<svg width="162" height="44" viewBox="0 0 162 44" fill="none" xmlns="http://www.w3.org/2000/svg">
<path d="M21.8772 23.8214L10.8667 21.8567C-5.60027 18.566 -1.84892 0 12.0847 0H30.1594V8.98828H12.0847C8.52821 8.98828 7.60255 11.837 12.8642 12.7702L23.9234 14.784C40.3904 18.0257 36.5903 36.8372 22.6567 36.8372H2.38963V27.5542H22.6567C26.2619 27.5542 27.1876 24.7546 21.8772 23.8214Z" fill="#2E7D32"/>
<path d="M34.5902 0.0491186H43.7006V7.8586C53.5418 3.29079 67.9626 8.20242 67.9626 22.4461V36.8372H58.8522V22.4461C58.8522 12.8193 43.798 12.8193 43.798 22.4461V36.8372H34.5902V0.0491186Z" fill="#2E7D32"/>
<path d="M84.4745 5.74661C87.0079 5.74661 89.3951 6.28688 91.49 7.31833V20.3341C90.808 16.9451 87.69 14.9805 84.4745 14.9805C80.7719 14.9805 77.4103 17.7801 77.4103 21.4638C77.4103 29.7645 91.5875 30.0592 91.5875 21.4638C91.5875 21.12 91.5388 20.8253 91.49 20.5306L97.8235 12.5738C99.6261 15.0296 100.747 18.1239 100.747 21.4638C100.747 30.4521 92.7567 37.181 84.4745 37.181C75.7051 37.181 68.2511 30.01 68.2511 21.4638C68.2511 12.4264 76.1923 5.74661 84.4745 5.74661Z" fill="#2E7D32"/>
<path d="M110.178 34.8726V43.1732H101.018C101.018 35.6093 100.97 28.0454 100.97 20.5306C100.97 16.5031 102.577 12.9667 105.159 10.3635C113.734 1.62084 131.078 7.02363 131.078 20.5306C131.078 28.3892 124.744 34.8726 116.901 34.8726H110.178ZM110.178 25.5405H116.901C119.678 25.5405 121.968 23.2811 121.968 20.5306C121.968 19.0571 121.383 17.7801 120.457 16.9451C117.193 13.8508 110.178 15.3243 110.178 20.5306V25.5405Z" fill="#2E7D32"/>
<path d="M162 17.9766C162 21.12 162 24.2634 162 27.456C162 30.01 160.879 32.3676 159.174 34.0867C157.42 35.8058 155.082 36.8372 152.305 36.8372C144.656 36.8372 145.679 36.8372 139.882 36.8372C137.202 36.8372 134.815 35.8058 133.012 34.0867C129.31 30.403 129.31 23.9687 133.012 20.2359C134.815 18.566 137.202 17.5345 139.882 17.5345C147.092 17.5345 145.338 17.5345 152.695 17.5345C152.354 16.061 150.99 14.9313 149.382 14.9313H134.912V6.23777H149.382C156.056 6.23777 161.61 11.4441 162 17.9766ZM140.564 28.9786C146.069 28.9786 143.438 28.9786 150.843 28.9786C152.061 28.9786 153.084 28.0454 153.084 26.7684V24.5581C146.556 24.5581 146.459 24.5581 140.564 24.5581C137.592 24.5581 137.592 28.9786 140.564 28.9786Z" fill="#2E7D32"/>
<path d="M141.214 41.4419C141.214 42.8547 140.078 44 138.677 44C137.275 44 136.139 42.8547 136.139 41.4419C136.139 40.029 137.275 38.8837 138.677 38.8837C140.078 38.8837 141.214 40.029 141.214 41.4419Z" fill="#2E7D32"/>
<path d="M156.946 41.4419C156.946 42.8547 155.81 44 154.409 44C153.007 44 151.871 42.8547 151.871 41.4419C151.871 40.029 153.007 38.8837 154.409 38.8837C155.81 38.8837 156.946 40.029 156.946 41.4419Z" fill="#2E7D32"/>
</svg>
