<svg width="1462" height="817" viewBox="0 0 1462 817" fill="none" xmlns="http://www.w3.org/2000/svg">
<path fill-rule="evenodd" clip-rule="evenodd" d="M1462 27.4094V404.596H0V36.4677L87.5677 24.1484L97.4667 17.9888L144.677 22.3368L190.746 28.4964L205.594 34.6561L248.235 20.5251L280.217 22.3368L366.261 7.48116L404.715 23.7861L429.843 17.6264L459.159 22.6991L504.466 17.6264H548.25L593.747 22.8803L614.877 34.6561L625.919 39.7287L645.717 43.7143L687.596 44.8014L731.761 36.1054L823.041 35.0184L868.443 29.5834L889.383 40.8157L916.796 35.0184L1005.5 40.8157L1044.72 38.6417L1061.85 30.6704L1054.24 10.7422L1088.88 11.1045L1110.02 6.93768L1139.91 7.84353L1162.37 2.04619H1180.64L1195.87 4.22021L1216.05 10.3798H1222.9L1237.37 -1.93945L1248.79 4.22021L1270.49 0.234529L1278.87 4.94488L1288.76 0.234529L1303.62 10.3798L1318.37 7.02823L1330.27 7.84353L1342.84 16.1771L1361.86 20.1628L1411.36 27.0471L1435.35 24.1484L1462 27.4094ZM0 781.79V404.603H1462V772.731L1374.43 785.05L1364.53 791.21L1317.33 786.862L1271.25 780.702L1256.41 774.543L1213.77 788.674L1181.78 786.862L1095.74 801.718L1057.28 785.412L1032.16 791.572L1002.84 786.499L957.534 791.572H913.75L868.253 786.318L847.123 774.543L836.081 769.47L816.283 765.484L774.404 764.398L730.239 773.094L638.959 774.18L593.557 779.615L572.617 768.383L545.204 774.18L456.494 768.383L417.279 770.557L400.146 778.528L407.761 798.456L373.115 798.094L351.984 802.261L322.097 801.355L299.634 807.152H281.359L266.129 804.979L245.952 798.819H239.098L224.63 811.138L213.208 804.979L191.507 808.964L183.131 804.254L173.232 808.964L158.383 798.819L143.63 802.17L131.733 801.355L119.168 793.022L100.132 789.036L50.637 782.151L26.651 785.05L0 781.79Z" fill="white"/>
<path d="M15.983 783.859L0 782.758V773.58L15.983 773.947C20.169 779.822 31.2048 781.29 35.0104 781.29C38.8158 781.29 43.0018 776.885 44.1435 776.151C45.2851 775.416 59.7459 775.416 65.4541 776.151C71.1623 776.885 73.065 781.658 73.8261 781.658C74.5872 781.658 85.6231 780.188 87.9063 779.821C89.733 779.527 94.7562 781.411 97.0399 782.391C98.8666 787.971 103.636 787.409 105.793 786.43C119.492 783.859 122.156 787.531 127.483 794.139C132.811 800.748 135.855 799.647 136.236 799.647C141.716 796.416 149.935 793.895 153.361 793.038C163.255 791.937 163.255 804.786 172.769 805.888C175.636 806.219 180.506 801.605 182.662 798.912C183.043 801.482 192.557 809.927 197.504 806.99C201.462 804.64 209.301 800.87 212.726 799.279C214.629 805.154 220.717 808.825 223.762 808.825C226.806 808.825 233.655 802.584 233.655 800.381C233.655 798.178 238.984 792.304 238.984 793.405C238.984 794.286 242.789 795.241 244.692 795.608C244.692 795.975 245.91 796.269 250.78 794.506C255.347 793.773 266.003 802.584 269.047 802.584C271.483 802.584 273.867 801.115 274.755 800.381C278.713 806.842 281.986 805.765 283.127 804.419C283.634 803.563 286.096 801.335 291.88 799.279C299.11 796.71 297.968 805.888 299.871 804.419C301.773 802.95 310.526 798.912 317.377 796.71C324.226 794.506 329.173 799.279 338.306 800.381C347.439 801.482 358.095 794.139 364.945 792.304C371.794 790.468 385.495 795.608 393.867 796.71C402.239 797.811 406.044 794.874 406.805 795.608C407.413 796.195 411.625 799.524 413.654 801.115C405.435 806.99 376.995 803.563 363.803 801.115C356.801 805.521 339.067 807.356 331.076 807.723C320.725 800.968 305.96 807.846 299.871 812.129C296.522 804.786 289.089 808.335 285.791 811.028C279.093 816.021 276.15 810.906 275.517 807.723C272.168 811.835 269.046 810.906 267.905 809.927C254.967 803.685 250.4 801.115 248.117 802.584C245.833 804.052 243.93 803.685 242.789 803.685C241.876 803.685 239.871 801.971 238.984 801.115C238.349 800.992 236.928 801.335 236.32 803.685C235.711 806.035 230.738 812.007 228.328 814.699C222.24 819.692 215.39 811.15 212.726 806.255L205.876 809.927C198.265 814.626 194.333 815.066 193.318 814.699C189.969 814.993 184.565 809.192 182.283 806.255C177.335 812.497 168.202 817.27 162.494 806.255C156.786 795.241 141.563 806.255 140.042 806.255C134.562 809.779 131.923 807.723 131.289 806.255C119.111 794.213 112.769 793.405 111.12 794.506C98.0291 797.444 96.2785 793.283 97.0399 790.835L87.1452 789C85.3186 789.881 77.5047 790.59 73.8261 790.835C67.433 782.611 51.1201 784.226 43.7629 786.062C33.1076 795.167 20.8032 788.388 15.983 783.859Z" fill="#FFEFD6"/>
<path d="M397.889 774.38C397.508 775.096 402.08 780.464 402.08 780.822C412.749 775.095 425.576 773.665 430.655 773.665C443.153 766.508 452.373 770.683 455.422 773.665C467.613 767.94 468.756 777.243 487.807 776.17C503.047 779.891 515.493 777.482 519.811 775.812C525.298 781.927 534.797 781.222 538.862 780.106C563.551 768.369 572.517 771.16 573.915 774.023C581.535 770.445 588.393 782.611 593.345 784.042C598.299 785.474 600.584 779.032 600.965 779.032C601.347 779.032 606.3 780.822 613.92 782.253C620.016 783.398 633.986 780.583 640.21 779.032C648.439 781.609 672.341 780.106 683.264 779.032C692.027 781.895 685.93 782.611 707.267 777.959C728.603 773.307 724.031 779.39 731.651 776.886C737.747 774.882 749.432 775.573 754.511 776.17C755.909 775.215 759.312 773.235 761.75 772.949C764.19 772.663 766.323 773.546 767.085 774.023C767.085 772.592 770.387 770.325 772.038 769.371C791.469 766.15 808.234 771.876 808.996 771.876C809.758 771.876 808.996 772.949 814.711 770.444C820.426 767.94 823.855 774.023 824.236 774.023C835.666 768.655 838.714 775.454 841 777.243C843.286 779.032 854.336 781.18 859.289 783.326C864.241 785.474 871.481 792.988 875.672 794.419C879.025 795.564 896.628 794.658 905.01 794.062C908.438 797.998 931.3 796.208 935.49 795.135C939.682 794.062 944.253 797.64 945.396 796.567C946.54 795.493 962.923 796.208 980.45 791.199C994.474 787.191 1013.22 789.529 1020.84 791.199C1031.51 802.65 1043.7 793.704 1047.89 790.483C1051.24 787.907 1055.38 788.217 1057.03 788.694C1059.19 789.529 1063.88 791.199 1065.41 791.199C1067.32 791.199 1074.56 797.282 1076.84 797.64C1078.67 797.926 1080.4 797.044 1081.03 796.567C1085.98 803.007 1089.04 803.365 1096.66 806.586C1102.75 809.162 1118 800.98 1124.85 796.567C1131.71 800.144 1139.33 796.925 1146.19 795.85C1151.67 794.992 1155.08 795.493 1156.09 795.85C1161.56 793.585 1175.99 789.911 1190 793.346C1204.02 796.781 1215.15 792.631 1218.95 790.125C1232.29 790.125 1247.16 780.822 1251.34 779.39C1255.53 777.959 1265.45 778.674 1265.45 779.39C1265.45 780.106 1269.63 786.905 1270.4 786.905C1271.01 786.905 1271.92 785.951 1272.3 785.474C1278.39 787.764 1295.42 790.483 1303.16 791.556L1340.88 791.914C1348.19 789.052 1361.2 793.108 1366.79 795.493H1371.74V794.419C1362.22 782.611 1399.56 791.199 1401.46 791.199C1402.99 791.199 1406.67 788.098 1408.32 786.547L1406.79 785.831C1406.04 785.474 1404.89 779.748 1404.13 780.822C1403.52 781.681 1400.82 781.895 1399.56 781.895C1366.79 775.454 1370.6 780.822 1370.6 782.611C1370.6 784.4 1371.74 786.905 1369.84 787.262C1368.32 787.549 1355.23 784.042 1348.88 782.253C1346.6 782.968 1341.34 784.042 1338.6 782.611C1335.17 780.822 1303.93 784.042 1302.4 782.611C1300.88 781.18 1282.21 779.39 1277.63 778.317C1273.98 777.458 1272.3 776.289 1271.92 775.812C1271.79 776.289 1271.31 777.315 1270.4 777.601C1269.26 777.959 1267.35 772.592 1265.45 769.371C1263.92 766.794 1255.15 768.298 1250.97 769.371C1244.86 775.096 1220.11 781.18 1218.2 781.895C1216.3 782.611 1212.48 787.262 1205.63 785.831C1198.77 784.4 1176.29 784.042 1174 783.684C1171.71 783.326 1159.52 786.905 1154.95 787.978C1150.38 789.052 1153.81 788.337 1148.09 786.905C1142.38 785.474 1138.57 789.768 1134.38 790.125C1131.02 790.411 1126.63 788.814 1124.85 787.978C1113.42 796.567 1109.61 795.493 1101.23 799.071C1092.85 802.65 1081.03 787.262 1081.03 787.62C1081.03 787.978 1076.84 789.052 1074.56 788.694C1072.27 788.337 1066.18 782.968 1065.41 782.611C1064.65 782.253 1064.65 782.611 1059.7 780.106C1055.73 778.102 1052.2 779.271 1050.93 780.106C1048.14 782.372 1041.11 787.262 1035.32 788.694C1028.07 790.483 1023.12 784.4 1020.84 782.611C1018.55 780.822 1006.74 781.18 1005.97 781.18C997.133 778.603 988.574 780.106 985.402 781.18C975.344 784.042 953.271 786.905 943.491 787.978C941.586 784.4 919.869 790.125 911.487 787.978C904.781 786.261 902.343 785.354 901.962 785.116C890.531 787.62 878.72 786.189 874.91 785.116C871.1 784.042 863.099 772.592 859.289 773.307C856.24 773.879 845.064 768.775 839.857 766.151C833.761 756.847 828.427 762.214 827.665 761.856C826.903 761.498 824.617 764.361 823.855 762.929C823.093 761.498 819.283 759.351 816.235 760.067C813.186 760.783 809.758 760.783 808.996 760.783C803.281 757.205 784.23 758.636 779.658 758.636H772.419C769.676 758.636 767.72 761.976 767.085 763.646C764.952 759.924 758.322 763.765 755.273 766.151C751.311 763.861 744.478 765.197 741.558 766.151C738.383 766.866 730.661 767.869 725.174 766.151C718.316 764.004 709.934 767.224 707.267 768.298C704.6 769.371 693.17 771.518 687.835 771.16C682.502 770.802 684.026 767.94 682.121 769.014C680.215 770.087 650.116 770.087 645.162 769.014C641.2 768.155 635.129 769.371 632.59 770.087C617.959 774.667 605.157 771.279 600.584 769.014C599.366 772.163 596.521 773.665 595.251 774.023C591.44 776.171 583.82 767.224 581.154 764.362C578.486 761.499 576.962 762.572 576.2 763.288C575.591 763.861 573.66 763.526 572.772 763.288C565.533 757.563 546.863 766.151 538.1 770.445C529.337 774.739 520.955 766.151 519.811 766.151C518.668 766.151 510.667 769.371 508 769.014C505.866 768.727 493.648 766.985 487.807 766.151C486.536 767.105 481.558 768.011 471.805 764.004C462.05 759.996 457.326 762.095 456.183 763.646C451.306 759.064 446.277 758.635 444.372 758.994C440.562 757.563 431.036 763.646 429.894 763.646C420.75 761.498 398.27 773.665 397.889 774.38Z" fill="#FFEFD6"/>
<path d="M1407.17 776.807C1407.94 777.923 1406.41 777.923 1406.03 778.294H1419.36C1422.53 779.411 1429.56 780.898 1432.3 777.923C1435.05 774.949 1437.76 776.932 1438.78 778.294C1439.68 777.402 1454.64 776.436 1462 776.064V765.654C1460.1 764.538 1438.78 768.628 1438.01 767.513C1437.4 766.621 1436.23 766.149 1435.73 766.026C1434.46 766.892 1431.31 768.776 1428.88 769.371C1425.83 770.115 1422.02 769.371 1420.11 768.256C1418.22 767.141 1404.51 768.256 1403.36 769.371C1402.22 770.487 1404.51 771.975 1406.03 775.32C1407.55 778.667 1406.41 775.692 1407.17 776.807Z" fill="#FFEC97"/>
<path d="M1446.01 24.8135L1462 25.8625V34.6031L1446.01 34.2535C1441.83 28.659 1430.8 27.2603 1426.99 27.2603C1423.19 27.2603 1419 31.4562 1417.86 32.1556C1416.72 32.8549 1402.26 32.8549 1396.55 32.1556C1390.84 31.4562 1388.93 26.9106 1388.17 26.9106C1387.41 26.9106 1376.38 28.3101 1374.1 28.6598C1372.27 28.9395 1367.25 27.1446 1364.96 26.2121C1363.13 20.8973 1358.36 21.4335 1356.21 22.3659C1342.51 24.8135 1339.84 21.3169 1334.52 15.0231C1329.19 8.72926 1326.15 9.77828 1325.76 9.77828C1320.28 12.8553 1312.06 15.2562 1308.64 16.0721C1298.74 17.121 1298.74 4.88307 1289.23 3.83405C1286.37 3.51792 1281.49 7.91344 1279.34 10.4776C1278.96 8.02995 1269.45 -0.0121679 1264.5 2.78509C1260.54 5.02293 1252.7 8.61275 1249.28 10.1279C1247.37 4.53337 1241.29 1.0368 1238.23 1.0368C1235.19 1.0368 1228.34 6.98102 1228.34 9.07896C1228.34 11.1769 1223.02 16.7714 1223.02 15.7224C1223.02 14.8832 1219.21 13.9742 1217.31 13.6245C1217.31 13.2749 1216.09 12.9951 1211.22 14.6735C1206.66 15.3728 1196 6.98102 1192.95 6.98102C1190.52 6.98102 1188.13 8.37965 1187.24 9.07896C1183.29 2.92499 1180.02 3.95065 1178.88 5.23269C1178.36 6.0486 1175.9 8.16981 1170.12 10.1279C1162.89 12.5755 1164.03 3.83405 1162.13 5.23269C1160.22 6.63132 1151.47 10.4776 1144.62 12.5755C1137.77 14.6735 1132.83 10.1279 1123.69 9.07896C1114.56 8.02994 1103.91 15.0231 1097.06 16.7714C1090.21 18.5197 1076.5 13.6245 1068.14 12.5755C1059.76 11.5265 1055.96 14.3238 1055.19 13.6245C1054.59 13.065 1050.37 9.89478 1048.35 8.37965C1056.57 2.78509 1085 6.0486 1098.2 8.37965C1105.2 4.18376 1122.94 2.43543 1130.93 2.08578C1141.27 8.51951 1156.04 1.96922 1162.13 -2.11011C1165.48 4.88307 1172.92 1.50301 1176.21 -1.06114C1182.9 -5.81648 1185.85 -0.944588 1186.49 2.08578C1189.83 -1.83039 1192.95 -0.944588 1194.1 -0.0121679C1207.03 5.932 1211.6 8.37965 1213.88 6.98102C1216.16 5.58239 1218.07 5.932 1219.21 5.932C1220.12 5.932 1222.13 7.56373 1223.02 8.37965C1223.65 8.49615 1225.07 8.16981 1225.68 5.932C1226.29 3.69419 1231.26 -1.99356 1233.68 -4.55772C1239.76 -9.31306 1246.61 -1.17768 1249.28 3.48444L1256.12 -0.0121679C1263.74 -4.48778 1267.67 -4.90737 1268.68 -4.55772C1272.03 -4.83744 1277.43 0.687147 1279.72 3.48444C1284.67 -2.45977 1293.8 -7.00532 1299.51 3.48444C1305.21 13.9742 1320.44 3.48444 1321.95 3.48444C1327.44 0.127695 1330.08 2.08578 1330.72 3.48444C1342.89 14.9532 1349.23 15.7224 1350.89 14.6735C1363.97 11.8762 1365.72 15.839 1364.96 18.1701L1374.85 19.9183C1376.69 19.0791 1384.49 18.4032 1388.17 18.1701C1394.57 26.0024 1410.88 24.4639 1418.24 22.7156C1428.9 14.0441 1441.19 20.5011 1446.01 24.8135Z" fill="#FFEFD6"/>
<path d="M1065.16 33.8024C1065.54 33.0867 1060.98 27.7191 1060.98 27.3613C1050.3 33.0869 1037.47 34.518 1032.4 34.5177C1019.9 41.6744 1010.68 37.4997 1007.63 34.5177C995.434 40.2431 994.292 30.9393 975.25 32.0129C960.005 28.2914 947.559 30.7008 943.24 32.3708C937.754 26.2557 928.254 26.9601 924.19 28.0767C899.501 39.8137 890.535 37.0223 889.137 34.1595C881.517 37.7375 874.659 25.5718 869.707 24.1405C864.753 22.7091 862.468 29.1502 862.086 29.1502C861.705 29.1502 856.752 27.361 849.132 25.9296C843.036 24.7846 829.066 27.5996 822.842 29.1502C814.613 26.5738 790.711 28.0767 779.788 29.1502C771.025 26.2875 777.122 25.5718 755.785 30.2237C734.449 34.8756 739.021 28.7923 731.401 31.2972C725.305 33.3011 713.62 32.6092 708.541 32.0129C707.143 32.9671 703.74 34.9471 701.302 35.2335C698.863 35.5196 696.729 34.637 695.967 34.1599C695.967 35.5912 688.666 34.2791 687.015 35.2335C667.584 38.4539 661.181 34.1599 660.419 34.1599C659.657 34.1599 654.056 35.2335 648.341 37.7383C642.626 40.2432 639.197 34.1599 638.816 34.1599C627.386 39.5275 625.48 30.9393 623.195 29.1502C620.909 27.361 608.716 27.0032 603.763 24.8562C598.811 22.7091 591.571 15.1945 587.38 13.7632C584.027 12.6181 566.424 13.5246 558.042 14.121C554.614 10.1848 531.753 11.974 527.562 13.0475C523.371 14.121 518.799 10.5427 517.656 11.6161C516.513 12.6897 500.129 11.974 482.603 16.9837C468.583 20.9915 449.837 18.6536 442.217 16.9837C431.548 5.53297 419.356 14.4789 415.165 17.6994C411.812 20.2758 407.672 19.9658 406.021 19.4886C403.862 18.6536 399.163 16.9837 397.639 16.9837C395.734 16.9837 388.494 10.9005 386.209 10.5427C384.38 10.2564 382.653 11.139 382.017 11.6161C377.065 5.17509 374.016 4.8173 366.396 1.59676C360.3 -0.979659 345.059 7.20287 338.202 11.6161C331.344 8.03778 323.724 11.2584 316.866 12.3318C311.379 13.1906 307.975 12.6897 306.959 12.3318C301.498 14.5982 287.071 18.272 273.05 14.8367C259.028 11.4015 247.903 15.5524 244.093 18.0573C230.758 18.0573 215.899 27.361 211.707 28.7924C207.517 30.2237 197.61 29.5081 197.61 28.7924C197.61 28.0767 193.419 21.2778 192.657 21.2778C192.047 21.2778 191.134 22.232 190.752 22.7091C184.656 20.419 167.638 17.6994 159.89 16.6259L122.171 16.2681C114.856 19.1308 101.851 15.0753 96.2624 12.6897H91.3093V13.7632C100.834 25.5718 63.4958 16.9837 61.5908 16.9837C60.0668 16.9837 56.3838 20.085 54.7327 21.6357L56.2567 22.3512C57.0188 22.7091 58.1616 28.4345 58.9237 27.361C59.5334 26.5022 62.2258 26.2875 63.4958 26.2875C96.2624 32.7286 92.4524 27.361 92.4524 25.5718C92.4524 23.7826 91.3093 21.2778 93.2143 20.92C94.7383 20.6336 107.82 24.1405 114.17 25.9296C116.455 25.2139 121.714 24.1405 124.457 25.5718C127.886 27.361 159.128 24.1405 160.652 25.5718C162.177 27.0032 180.846 28.7924 185.418 29.8659C189.075 30.7247 190.752 31.8937 191.134 32.3708C191.26 31.8937 191.743 30.8678 192.657 30.5815C193.8 30.2237 195.705 35.5913 197.61 38.8118C199.135 41.3882 207.898 39.8853 212.088 38.8118C218.184 33.0863 242.951 27.0032 244.855 26.2875C246.76 25.5718 250.571 20.9199 257.429 22.3512C264.286 23.7826 286.766 24.1405 289.052 24.4984C291.338 24.8562 303.53 21.2778 308.102 20.2042C312.674 19.1308 309.246 19.8464 314.96 21.2778C320.675 22.7091 324.486 18.4151 328.676 18.0573C332.029 17.7709 336.424 19.3693 338.202 20.2042C349.632 11.6161 353.442 12.6897 361.824 9.11133C370.206 5.53297 382.017 20.9199 382.017 20.5621C382.017 20.2042 386.209 19.1308 388.494 19.4886C390.781 19.8464 396.876 25.214 397.639 25.5718C398.401 25.9296 398.401 25.5718 403.354 28.0767C407.317 30.0805 410.847 28.9116 412.117 28.0767C414.911 25.8104 421.947 20.92 427.739 19.4886C434.978 17.6994 439.93 23.7826 442.217 25.5718C444.503 27.361 456.314 27.0032 457.076 27.0032C465.915 29.5796 474.475 28.0767 477.65 27.0032C487.709 24.1405 509.781 21.2778 519.561 20.2042C521.466 23.7826 543.183 18.0573 551.565 20.2042C558.272 21.9219 560.71 22.8285 561.091 23.0669C572.521 20.5621 584.332 21.9935 588.142 23.0669C591.952 24.1405 599.953 35.5912 603.763 34.8756C606.812 34.303 617.988 39.4079 623.195 42.0319C629.291 51.3353 634.625 45.9686 635.387 46.3264C636.149 46.6842 638.435 43.8214 639.197 45.2529C639.959 46.6842 643.769 48.8313 646.817 48.1156C649.866 47.3999 653.294 47.3994 654.056 47.3994C659.771 50.9778 678.822 49.5465 683.394 49.5465H690.633C693.376 49.5465 695.333 46.2067 695.967 44.5368C698.1 48.2583 704.73 44.4175 707.779 42.0319C711.741 44.3221 718.574 42.9862 721.494 42.0319C724.67 41.3163 732.391 40.3143 737.878 42.0319C744.736 44.179 753.118 40.9584 755.785 39.8849C758.452 38.8114 769.882 36.6643 775.217 37.0222C780.55 37.38 779.026 40.2427 780.931 39.1693C782.837 38.0957 812.936 38.0957 817.89 39.1693C821.852 40.0281 827.922 38.8114 830.462 38.0957C845.093 33.5154 857.895 36.9029 862.467 39.1693C863.686 36.0203 866.531 34.5173 867.801 34.1595C871.612 32.0125 879.232 40.9584 881.898 43.8211C884.565 46.6838 886.09 45.6103 886.852 44.8946C887.461 44.3221 889.391 44.6561 890.28 44.8946C897.519 50.62 916.189 42.0319 924.952 37.7379C933.715 33.4439 942.097 42.0319 943.24 42.0319C944.384 42.0319 952.385 38.8114 955.052 39.1693C957.186 39.4555 969.398 41.1969 975.25 42.0319C976.517 41.0777 981.497 40.1712 991.246 44.179C1001 48.1867 1005.72 46.0879 1006.87 44.5375C1011.75 49.1183 1016.78 49.5469 1018.68 49.1886C1022.49 50.6199 1032.01 44.5375 1033.16 44.5375C1042.3 46.6845 1064.78 34.5181 1065.16 33.8024Z" fill="#FFEFD6"/>
<path d="M54.8269 32.185C54.0655 31.1493 55.5885 31.1493 55.9692 30.804H42.6432C39.4704 29.7683 32.4392 28.3873 29.6979 31.1493C26.9566 33.9113 24.2407 32.07 23.2254 30.804C22.3116 31.6326 7.36101 32.5303 0 32.8756V42.5426C1.90367 43.5783 23.2252 39.7806 23.9868 40.8163C24.596 41.6449 25.7636 42.0822 26.2713 42.1973C27.5404 41.3916 30.6879 39.6424 33.1247 39.09C36.1706 38.3995 39.978 39.09 41.8817 40.1258C43.7853 41.1616 57.4921 40.1258 58.6344 39.09C59.7767 38.0543 57.4921 36.6733 55.9692 33.5661C54.4462 30.4588 55.5885 33.2208 54.8269 32.185Z" fill="#FFEC97"/>
</svg>
