<svg width="1462" height="799" viewBox="0 0 1462 799" fill="none" xmlns="http://www.w3.org/2000/svg">
<g clip-path="url(#clip0_124_5558)">
<rect y="-0.5" width="1462" height="800" rx="20" fill="#1D5620"/>
<path d="M1165.25 -78.8387C1167.2 -77.4017 1169.5 -76.355 1171.99 -75.7771C1175.15 -75.7771 1174.73 -75.7771 1164.83 -62.9903C1146.12 -39.1665 1137.78 -10.4883 1141.24 18.0544C1143.98 75.6861 1168.83 125.033 1230.53 194.191C1277.28 247.32 1291.39 275.236 1282.76 299.55C1278.12 312.517 1266.33 321.882 1229.05 342.413C1199.92 357.328 1174.29 376.75 1153.46 399.684C1130.06 426.854 1098.77 448.332 1062.69 461.998C1053.85 465.241 1026.47 472.984 1001.62 480.008C919.492 501.26 902.857 507.743 877.375 527.555C851.893 547.366 841.364 570.778 838.206 632.012C835.046 693.246 830.414 711.076 815.25 730.167C807.214 740.392 795.872 748.402 782.61 753.218C764.506 760.917 744.49 764.748 724.276 764.383C680.053 766.005 648.887 760.423 558.964 734.848C449.668 703.691 440.402 701.53 412.815 698.828C394.549 695.704 375.58 697.998 359.042 705.331C342.502 712.666 329.381 724.602 321.841 739.17C289.831 785.456 270.458 802.745 236.341 817.154C201.879 829.734 164.929 836.579 127.467 837.323C82.8993 838.933 38.2523 836.821 -5.83619 831.021L-57.2203 826.158H-63.1167V816.613C-63.1167 811.209 -63.1167 806.347 -61.22 805.987C-51.1994 805.97 -41.1933 806.693 -31.3161 808.148C2.55592 812.507 36.7746 814.614 71.0293 814.453C115.673 816.238 160.233 809.66 201.595 795.181C237.183 780.594 252.136 763.844 283.725 703.512C300.992 670.552 318.893 657.945 353.639 655.064C379.542 653.083 418.712 662.447 489.469 687.482C545.231 709.81 604.115 725.911 664.679 735.388C735.017 742.953 778.608 721.88 791.034 674.695C794.468 654.058 796.015 633.224 795.665 612.38C797.561 558.352 799.458 543.582 808.512 522.331C814.872 506.283 826.231 492.024 841.364 481.088C869.583 458.757 898.435 450.292 969.192 442.547C1064.17 432.462 1091.54 422.196 1140.19 378.072C1158.9 360.176 1180.11 344.328 1203.36 330.886C1232.85 312.875 1242.74 304.951 1249.06 294.866C1262.96 272.353 1253.48 246.419 1212.84 195.272C1164.41 134.578 1143.77 97.658 1132.4 51.1925C1126.83 21.6668 1126.83 -8.43088 1132.4 -37.9572C1137.12 -54.0151 1146.46 -68.8111 1159.56 -81C1161.79 -80.2815 1163.85 -79.2463 1165.67 -77.9384L1165.25 -78.8387Z" fill="#40A645"/>
<path d="M1052.6 -107.862C1043.83 -84.6659 1040.9 -60.1389 1044 -35.8997C1050.62 26.0689 1072.05 86.2056 1106.94 140.769C1130.87 182.687 1134.64 191.863 1134.86 210.393C1134.86 234.68 1125.83 246.374 1086.17 276.959C1025.32 322.835 1003.92 332.191 951.251 336.328C915.669 337.678 880.021 336.535 844.658 332.91C812.067 329.332 778.956 332.289 747.925 341.544C709.737 356.118 687.074 387.602 675.534 442.654C669.411 473.862 666.323 505.455 666.302 537.104C664.413 587.477 662.313 598.992 652.451 616.443C638.602 639.831 609.226 650.266 568.521 646.308C527.813 642.35 495.709 633.174 417.022 603.49C338.334 573.806 316.723 567.508 283.989 566.609C266.465 564.365 248.562 566.932 232.845 573.944C217.128 580.958 204.401 592.056 196.49 605.649C189.046 619.493 182.462 633.666 176.767 648.108C169.422 666.099 160.819 685.167 157.462 691.104C149.483 705.012 138.104 717.285 124.098 727.085C94.5291 742.529 61.219 751.946 26.7363 754.613C-10.2654 757.326 -47.47 757.326 -84.4735 754.613L-113.64 752.453V734.102H-59.9236C-35.433 735.199 -10.8759 733.994 13.3078 730.505C45.7543 727.138 76.2923 715.548 101.016 697.221C118.539 682.254 131.257 663.665 137.948 643.25C147.046 619.004 158.997 595.616 173.618 573.445C180.562 563.984 189.759 555.889 200.608 549.686C211.456 543.487 223.71 539.32 236.568 537.464C253.607 534.57 271.145 534.57 288.187 537.464C319.45 541.602 340.434 547.898 430.032 579.562C490.042 600.611 517.95 606.548 552.363 605.468C560.527 606.181 568.773 605.359 576.528 603.061C584.283 600.761 591.361 597.04 597.266 592.156C612.584 579.562 621.187 556.174 625.383 516.055C629.978 468.965 638.321 422.2 650.353 376.086C668.609 318.877 702.601 295.849 769.327 295.849C782.128 295.849 806.257 297.288 823.253 298.908L877.599 304.485C908.951 307.872 940.674 307.872 972.023 304.485C1010.67 296.908 1045.76 279.544 1072.74 254.65C1090.71 243.024 1103.15 226.218 1107.78 207.335C1111.77 189.344 1107.78 174.412 1082.82 123.498C1054.86 69.3787 1037.02 11.8235 1029.94 -47.0539C1027.7 -66.9097 1029.11 -86.9449 1034.13 -106.423C1035.81 -111.82 1036.02 -112 1044.41 -112C1052.81 -112 1052.81 -112 1051.55 -108.583L1052.6 -107.862Z" fill="#40A645"/>
<path d="M949.838 -108.399C949.838 -106.418 952.151 -97.4164 953.833 -88.0528C955.516 -78.691 960.142 -60.865 963.929 -48.0817C967.714 -35.2979 975.704 -10.2709 981.383 7.91444C992.319 39.3232 998.331 71.8379 999.26 104.603C999.26 135.392 992.949 151.237 976.336 164.021C965.985 171.907 953.469 177.42 939.954 180.045C923.044 183.958 905.437 185.18 888.01 183.647C843.848 183.647 833.963 182.565 748.162 166.902C662.36 151.237 635.022 147.995 608.314 149.976C557.212 153.577 533.449 171.042 524.194 211.734C522.722 218.215 521.04 241.803 519.78 267.009C520.927 299.829 515.594 332.579 504.006 363.878C499.549 378.824 490.784 392.571 478.511 403.865C466.241 415.158 450.855 423.635 433.768 428.517C407.9 435.899 397.385 436.799 315.999 436.979C284.205 436.08 252.375 437.041 220.735 439.86C176.707 445.422 135.077 460.548 99.8134 483.793C90.7694 489.194 61.9587 511.341 35.4627 532.946C-25.9454 583.002 -57.9106 603.168 -103.125 619.552L-113.64 623.514V597.945L-101.233 590.924C-64.8504 570.218 -19.4258 541.77 12.3294 519.803C49.0564 492.489 89.5179 469.091 132.831 450.124C181.41 429.418 214.846 424.014 308.85 420.955C341.965 421.055 374.986 417.914 407.27 411.591C426.989 407.144 444.85 398.029 458.798 385.292C472.746 372.553 482.22 356.708 486.132 339.571C494.461 310.131 497.37 279.755 494.754 249.545C494.754 194.45 496.016 183.286 504.848 166.541C511.924 155.136 522.365 145.514 535.131 138.633C561.705 128.059 591.268 124.247 620.3 127.65C657.31 130.577 693.961 136.179 729.865 144.394C821.976 162.399 830.388 163.479 875.393 163.479C893.828 165.359 912.515 163.95 930.281 159.339C941.636 156.956 952.095 152.135 960.668 145.331C969.243 138.526 975.648 129.961 979.281 120.447C982.899 108.711 984.109 96.5268 982.856 84.4366C982.856 49.3264 979.07 32.5815 956.99 -32.5974C948.226 -57.0955 941.686 -82.1372 937.431 -107.499C937.431 -111.64 937.431 -112 942.898 -112C948.366 -112 948.786 -112 949.208 -108.58L949.838 -108.399Z" fill="#40A645"/>
<path d="M868.222 -100.758C872.63 -85.2756 879.77 -62.2345 887.749 -39.3726C897.221 -16.7329 902.052 7.14165 902.027 31.1936C902.239 39.8343 899.698 48.3608 894.678 55.8557C890.818 62.0953 885.482 67.5759 879.009 71.9465C872.537 76.3171 865.072 79.4815 857.092 81.2379C842.948 84.5373 828.237 85.6947 813.627 84.6583C774.574 84.6583 766.384 83.3981 677.564 66.6566C638.702 57.2892 598.65 52.0298 558.3 50.9955C531.193 49.3394 503.961 51.8388 477.879 58.376C403.549 76.3777 380.452 118.681 393.889 212.469C398.862 240.933 398.862 269.873 393.889 298.336C390.094 311.818 382.279 324.223 371.212 334.339C350.215 352.34 325.648 359.002 241.447 370.343C205.634 374.104 170.192 380.12 135.41 388.344C99.5055 396.984 -8.00188 419.126 -28.9986 422.186C-37.6079 423.448 -55.6653 425.608 -68.8945 426.868C-83.4398 427.222 -97.7411 430.164 -110.889 435.507C-112.778 436.948 -113.199 433.709 -113.199 416.426C-114.202 408.94 -113.49 401.356 -111.1 394.104C-97.172 392.583 -83.1437 391.861 -69.1046 391.944C1.41736 389.132 71.5999 381.851 140.871 370.162C160.608 366.382 193.784 360.802 214.782 357.741C244.65 354.443 274.147 349.023 302.97 341.54C342.026 330.559 359.453 316.159 368.483 287.536C372.939 262.237 372.939 236.508 368.483 211.209C360.293 150.363 363.862 117.601 382.13 88.4384C398.089 63.0562 425.386 49.1955 480.398 38.2145C499.25 34.9416 518.522 33.7916 537.721 34.7941C581.543 34.3032 625.203 39.3992 667.275 49.9154C745.385 64.8567 776.252 67.9169 806.909 67.9169C854.364 65.5767 876.831 49.9154 879.559 17.3327C879.332 -7.20058 874.366 -31.5319 864.862 -54.6733C858.774 -74.6549 853.734 -93.7371 853.523 -96.9776C853.313 -100.217 853.523 -102.557 860.032 -103.098C866.54 -103.637 866.961 -103.098 868.011 -99.1369L868.222 -100.758Z" fill="#40A645"/>
<path d="M721.198 -79.7096C726.045 -79.7096 730.049 -78.6429 730.049 -77.932C728.568 -75.1441 726.805 -72.4671 724.781 -69.9336C718.412 -62.3553 709.927 -56.2178 700.075 -52.0636C690.224 -47.9095 679.312 -45.8678 668.303 -46.1175C639.428 -44.845 610.482 -45.3196 581.689 -47.5392C458.197 -53.2261 373.692 -45.4066 325.011 -24.4338C306.353 -15.5722 290.964 -2.53178 280.546 13.2456C270.88 29.1982 265.894 46.8738 266.005 64.7884C261.369 119.53 255.889 141.925 240.295 168.585C227.198 194.101 202.983 214.397 172.647 225.282C150.323 235.326 125.227 240.171 99.9444 239.323C79.9442 239.313 60.0106 237.405 40.5168 233.636C12.0743 227.808 -17.0434 224.648 -46.3083 224.216H-62.534V198.801C-63.6584 189.818 -62.9454 180.739 -60.4277 171.962C-44.4985 170.199 -28.4449 169.368 -12.3788 169.474C68.9647 167.697 101.63 162.897 142.302 146.368C159.316 140.099 174.819 131.243 188.032 120.241C210.582 102.468 216.903 86.6496 219.643 47.5482C219.568 31.2982 222.337 15.1281 227.861 -0.439682C234.061 -14.1626 244.198 -26.3755 257.366 -35.9865C283.912 -56.722 318.011 -69.2524 354.094 -71.5333C418.704 -75.5095 483.571 -75.5095 548.182 -71.5333C620.676 -68.156 648.072 -69.5787 668.724 -78.287C676.768 -81.1476 685.595 -82.0699 694.223 -80.9534C704.339 -80.9534 716.352 -80.9534 721.198 -80.9534V-79.7096Z" fill="#40A645"/>
<path d="M1484.29 -79.3948L1505.32 -78.4973L1495.23 -75.8051C1470.96 -70.4349 1446.3 -66.4175 1421.41 -63.7788C1412.24 -63.1082 1403.16 -61.7257 1394.29 -59.6495C1399.36 -59.4869 1404.45 -59.8485 1409.43 -60.7268C1441.63 -63.7473 1473.54 -68.7262 1504.91 -75.6262C1521.52 -79.3957 1532.45 -80.2932 1529.3 -77.9597C1508.86 -71.5265 1487.73 -66.8366 1466.21 -63.9578L1411.53 -57.1371C1373.38 -54.6343 1336.02 -46.4953 1301.13 -33.0839C1286.03 -27.2512 1273.03 -18.0789 1263.48 -6.51738C1252.93 5.56387 1247.72 20.4411 1248.76 35.486C1248.27 54.5094 1254.33 73.2378 1266.21 89.3364C1283.04 117.518 1299.24 134.392 1365.69 192.73C1422.89 242.631 1439.08 265.967 1438.65 295.405C1438.65 311.022 1430.03 337.767 1426.26 334.715C1426.59 330.535 1427.66 326.422 1429.41 322.508C1432.88 313.424 1434.38 303.873 1433.82 294.328C1434.32 284.909 1431.85 275.551 1426.67 267.222C1415.74 245.682 1395.13 223.245 1347.18 182.139C1269.59 115.006 1240.35 72.8225 1242.03 30.6396C1241.99 15.3129 1248.07 0.431717 1259.27 -11.5434C1277.37 -32.7246 1309.11 -45.8285 1364.42 -55.1624C1371.56 -56.1814 1378.59 -57.6815 1385.45 -59.6495C1364.12 -57.1515 1343.03 -53.3111 1322.36 -48.1619C1306.93 -44.975 1292.39 -39.2097 1279.57 -31.1994C1266.76 -23.1892 1255.93 -13.0923 1247.7 -1.49143C1240.89 9.55367 1237.55 21.9277 1238.04 34.409C1238.04 74.2584 1264.33 113.569 1330.78 172.805C1353.09 191.595 1374.15 211.43 1393.87 232.22C1413.72 250.561 1424.5 274.745 1423.94 299.712C1421.09 315.887 1414.74 331.468 1405.23 345.665C1389.69 364.655 1367.65 379.078 1342.14 386.952C1311.25 397.597 1284.36 415.221 1264.33 437.929C1253.61 452.288 1244.87 467.645 1238.24 483.702C1214.04 536.966 1171.15 582.544 1115.43 614.2C1091.46 627.513 1069 642.717 1048.35 659.612C1029.52 679.168 1016.34 702.226 1009.86 726.927C987.152 791.368 959.814 817.934 898.618 834.628C844.782 849.348 791.995 851.322 705.143 841.808C602.307 830.5 562.351 834.628 519.031 860.836C503.257 870.349 463.302 896.736 463.302 897.813C463.302 898.891 463.302 897.813 491.06 883.99C513.956 871.21 538.427 860.617 564.034 852.399C595.998 844.321 637.008 844.861 713.555 853.655C751.102 859.291 789.216 861.697 827.326 860.836C911.445 857.962 972.852 840.551 1006.92 809.497C1023.29 792.937 1036.88 774.51 1047.3 754.75C1054.56 742.37 1062.71 730.382 1071.69 718.85C1087.25 700.899 1109.55 687.077 1158.12 665.895C1173.9 659.075 1193.66 649.562 1202.49 644.895C1232.15 627.798 1256.82 605.141 1274.63 578.658C1284.87 558.688 1293.16 538.037 1299.44 516.91C1302.76 506.918 1306.9 497.14 1311.85 487.651C1325.31 465.213 1348.86 450.135 1402.49 429.672C1425.36 422.398 1446.26 411.22 1463.9 396.823C1485.94 376.868 1502.6 353.034 1512.69 326.997C1518.78 303.018 1514.52 277.964 1500.7 256.452C1488.08 234.913 1472.52 218.758 1426.67 179.985C1368.63 130.981 1354.55 117.339 1340.66 96.3373C1332.26 84.9104 1328.08 71.5866 1328.67 58.1034C1330.99 34.2296 1352.01 19.8692 1398.7 10.1761C1435.62 3.52055 1473.1 -0.561478 1510.79 -2.02988C1550.01 -3.87754 1589.03 -8.19742 1627.51 -14.954C1645.38 -19.262 1644.96 -19.4413 1644.96 -9.7484C1644.96 -3.28628 1644.96 -1.13265 1641.6 -0.594101C1607.78 4.57661 1573.67 8.17204 1539.39 10.1761C1431.72 19.3307 1398.07 26.1519 1375.58 43.384C1353.07 60.6162 1357.7 85.0284 1387.35 117.877C1393.66 124.878 1418.26 147.136 1442.03 167.06C1492.08 209.424 1510.79 228.63 1526.15 255.196C1537.9 272.437 1544.68 291.819 1545.91 311.739C1547.12 321.266 1546.12 330.903 1542.96 340.101C1532.11 372.815 1509.45 401.773 1478.19 422.851C1462.67 431.165 1446.5 438.6 1429.83 445.11C1376.62 466.649 1359.38 476.702 1345.71 494.83C1333.16 513.156 1324.95 533.403 1321.52 554.426C1318.2 573.732 1311.1 592.422 1300.49 609.713C1277.23 642.209 1242.26 667.399 1200.81 681.512C1140.46 705.566 1124.27 713.823 1105.97 730.158C1089.23 746.444 1075.08 764.553 1063.91 784.008C1048.01 811.116 1022.47 833.234 990.937 847.193C954.878 860.852 916.448 869.399 877.166 872.502C830.313 875.794 783.196 875.193 736.477 870.708C709.755 867.965 682.845 866.766 655.935 867.117C587.166 867.117 586.956 867.117 485.383 924.2C451.458 940.272 416.333 954.424 380.233 966.562C343.89 978.349 305.088 983.605 266.252 982C254.476 982 222.09 978.229 194.122 974.997C113.998 965.306 87.0794 965.126 36.818 974.997C10.6342 977.73 -14.3575 985.93 -35.9447 998.873L-40.9914 1003.72V976.794C-40.9914 944.303 -42.8848 946.458 -11.3392 941.97C49.1027 935.163 110.22 933.84 170.989 938.02C205.956 940.929 241.17 940.929 276.137 938.02C319.392 930.687 360.811 916.958 398.529 897.453C425.07 883.073 450.694 867.496 475.289 850.784C490.09 840.659 505.846 831.593 522.395 823.678C552.003 813.823 584.042 810.489 615.556 813.986C641.422 815.779 648.362 816.499 705.774 824.038C783.586 834.09 830.48 832.832 879.899 819.37C897.492 815.481 913.95 808.531 928.246 798.955C942.539 789.379 954.36 777.385 962.968 763.725C973.919 744.823 981.705 724.701 986.1 703.95C989.861 684.905 996.95 666.45 1007.13 649.203C1025.16 629.023 1047.4 611.86 1072.74 598.583C1097.25 585.105 1120.46 569.978 1142.14 553.349C1178.54 527.206 1207.34 494.21 1226.26 456.956C1251.71 412.978 1271.9 396.463 1328.67 372.41C1350.07 365.734 1369.12 354.487 1383.98 339.742C1395.12 327.189 1401.09 311.863 1401.01 296.122C1402.51 286.827 1401.14 277.359 1397.02 268.658C1387.97 246.4 1372.2 227.734 1325.52 184.474C1292.06 157.008 1263.69 125.352 1241.4 90.593C1205.86 30.101 1221.63 -24.4677 1281.78 -50.3156C1308.48 -61.8041 1335.83 -68.266 1405.64 -77.421C1431.27 -81.2107 1457.38 -81.9952 1483.25 -79.7536L1484.29 -79.3948Z" fill="#40A645"/>
</g>
<defs>
<clipPath id="clip0_124_5558">
<rect width="1462" height="799" rx="20" fill="white"/>
</clipPath>
</defs>
</svg>
