<svg width="1462" height="278" viewBox="0 0 1462 278" fill="none" xmlns="http://www.w3.org/2000/svg">
<g opacity="0.15">
<g clip-path="url(#clip0_124_7712)">
<g clip-path="url(#clip1_124_7712)">
<path d="M1440 419.315V475.622C1435.74 473.468 1431.43 471.44 1427.05 469.566C1408.33 461.597 1392.09 451.082 1378.33 436.477C1373.89 431.784 1365.22 427.631 1370.7 419.001C1376.07 410.503 1382.92 402.972 1394.89 405.296C1410.39 408.48 1425.66 412.792 1440 419.315ZM1362.04 525.412C1387.58 518.463 1413.7 516.327 1440 515.022V547.331C1429.64 548.476 1419.32 549.797 1409.05 551.353C1394.91 553.557 1380.84 553.118 1366.73 554.719C1358.03 555.716 1350.77 551.347 1348.96 542.056C1347.04 532.06 1353.42 527.713 1362.04 525.412ZM1406.72 615.492C1417.63 607.551 1428.75 599.896 1440 592.428V637.08C1435.83 640.68 1431.69 644.332 1427.59 648.023C1418.88 655.838 1408.88 662.303 1399.13 668.854C1392.41 673.371 1385.19 674.618 1378.43 668.13C1371.53 661.432 1371.21 654.061 1375.86 646.274C1383.56 633.469 1394.91 624.161 1406.72 615.492ZM681.38 57.4633C670.865 81.3873 648.068 95.4057 624.799 91.9823C603.661 88.9063 584.641 67.3747 581.218 43.7867C578.985 28.9766 579.742 14.4456 581.668 0H688.944C689.138 2.67152 689.332 5.34304 689.531 8.00886C690.83 25.1032 688.346 41.5082 681.38 57.4633ZM1409.35 236.808C1406.67 241.884 1403.34 248.651 1395.14 247.682C1384.59 246.48 1374.04 244.584 1369.34 233.402C1361.69 215.453 1359.39 196.189 1353.25 177.761C1352.73 176.297 1352.87 174.628 1352.35 173.17C1351.45 170.761 1351.69 166.927 1347.86 167.075C1345.27 167.206 1344.45 170.06 1343.71 172.339C1339.21 187.365 1334.11 202.21 1330.19 217.424C1319.3 259.211 1307.23 300.634 1290.73 340.633C1284.93 354.589 1278.02 368.379 1266.98 379.407C1262.77 383.571 1258.02 388.743 1251.24 385.696C1245.33 383.07 1245.39 376.832 1245.47 371.193C1245.66 349.599 1255.01 330.203 1261.08 310.039C1271.71 274.363 1287.01 239.941 1292.19 202.796C1292.71 199.139 1294.25 195.431 1291.63 188.63C1281.22 206.402 1276.03 223.456 1270.08 240.215C1253.87 286.103 1238.72 332.447 1208.18 371.939C1202.37 379.441 1196.19 390.264 1185.57 385.189C1175.56 380.29 1179.44 368.151 1182.12 359.504C1192.64 324.604 1204.95 290.256 1218.62 256.403C1226.76 236.136 1236.51 216.103 1239.33 194.092C1239.62 192.047 1241.11 189.581 1238.08 186.972C1232.96 189.615 1230.61 194.537 1228.48 199.39C1219.12 221.064 1209.37 242.493 1200.88 264.492C1191.47 288.638 1175.42 308.768 1160.87 329.907C1159.19 332.345 1156.07 333.985 1153.46 335.694C1149.12 338.651 1144.58 341.573 1138.97 338.297C1133.17 334.891 1132.4 329.428 1133 323.761C1134.5 310.386 1138.37 297.553 1143.92 285.351C1158.74 252.843 1174.35 220.654 1189.58 188.208C1191.92 183.287 1195.65 178.855 1194.58 171.86C1187.65 176.428 1184.92 183.281 1181.08 189.279C1168.91 208.179 1156.93 227.199 1144.39 245.848C1139.3 253.356 1132.62 259.741 1125.32 265.449C1119.28 270.245 1113 273.811 1105.47 269.567C1098.12 265.449 1097.31 258.095 1097.83 250.827C1099 235.327 1104.94 221.098 1111.24 207.216C1124.41 177.653 1141.15 149.782 1160.86 124.223C1189.83 86.6962 1198.74 44.9259 1195.22 0H1372.26C1376.7 39.0703 1386.44 77.3487 1397.87 115.377C1406.2 143.043 1412.11 171.057 1416.94 199.413C1419.19 212.525 1415.63 225.308 1409.35 236.808ZM681.511 298.566C687.264 310.215 700.547 317.768 710.305 328.511C729.564 349.656 721.111 391.101 703.43 407.882C660.919 448.416 609.87 458.259 553.716 439.023C529.98 430.958 512.983 415.549 494.732 401.047C469.265 380.808 439.73 374.018 407.159 376.901C395.573 377.994 389.267 373.842 388.475 362.182C387.917 352.851 388.863 343.492 389.25 334.139C389.523 327.366 395.453 324.815 400.352 322.348C410.144 317.415 420.22 312.676 430.519 308.962C457.194 299.535 481.039 309.754 504.775 318.742C533.233 329.599 560.398 343.487 589.996 351.285C602.573 354.611 615.93 355.141 628.935 351.718C638.146 349.308 644.599 345.065 637.639 334.549C622.578 311.839 613.008 286.359 602.037 261.758C585.968 225.826 596.865 195.118 634.591 170.909C648.074 162.273 663.995 159.254 679.261 154.994C703.766 148.175 720.906 163.219 739.453 173.558C761.166 185.708 779.223 203.246 802.618 212.873C816.169 218.398 828.41 213.42 839.056 205.24C848.432 198.108 851.616 188.066 848.654 176.645C841.494 149.047 832.956 121.642 832.603 92.8367C832.375 77.3544 844.069 67.6367 855.513 59.9411C888.773 37.4924 925.587 38.4038 962.766 45.0968C968.804 46.1506 974.7 47.569 980.698 48.3892C991.709 49.819 998.823 57.0646 1000.44 66.1614C1002.8 80.2481 1002.67 95.0696 997.644 109.071C992.267 124.246 983.928 128.916 968.03 124.297C950.531 119.375 934.872 121.289 918.78 130.483C909.131 135.968 906.044 141.209 910.692 151.023C920.216 171.142 927.456 191.717 923.987 214.718C923.035 221.32 921.207 227.495 916.923 232.416C888.944 264.611 853.149 280.595 809.146 271.441C782.846 266.007 760.506 252.467 736.969 240.835C719.487 232.092 700.046 230.275 681.824 241.394C664.468 252.023 661.067 268.536 672.021 285.254C674.584 289.202 677.683 292.762 681.67 298.048L681.505 298.561L681.511 298.566ZM1182.78 675.997C1205.88 643.813 1219.67 594.222 1211.72 539.322C1208.32 515.985 1210.41 509.417 1228.77 500.656C1240.19 495.199 1245.92 499.756 1248.29 510.397C1266.49 587.466 1254.98 657.672 1205.15 721.208C1172.25 763.285 1131.41 778.87 1081.98 770.93C1048.37 765.581 1022.35 745.297 1001.65 717.864C999.957 715.563 998.556 713.147 997.16 710.738C986.354 691.228 971.259 683.123 948.469 680.377C890.026 673.246 853.98 633.435 832.802 579.549C806.166 511.73 800.123 441.82 825.448 370.999C832.118 352.515 859.301 344.575 873.661 356.981C880.291 362.632 882.239 369.82 879.699 379.954C861.995 448.565 857.233 516.891 884.147 583.986C896.747 615.366 917.003 637.923 949.187 647.476C954.302 648.991 960.232 653.132 964.697 648.142C968.673 643.876 964.492 638.476 963.165 633.72C943.901 566.242 948.48 499.762 973.863 434.432C980.163 418.204 990.712 404.63 1002.15 391.745C1051.67 335.951 1117.89 362.558 1142.31 417.087C1170.35 479.677 1155.19 583.058 1105.18 630.917C1088.57 646.872 1069.37 658.196 1049.67 669.03C1033.39 678.053 1034.2 681.089 1044.76 696.122C1080.33 746.328 1134.88 729.621 1182.77 676.003L1182.78 675.997ZM1059.56 612.091C1086.73 584.191 1099.2 548.784 1107.44 512.351C1115.4 477.456 1108.96 443.797 1088.43 414.33C1079.46 401.503 1067.45 397.697 1053.69 404.835C1041.4 411.22 1030.51 419.611 1022.21 432.017C996.038 471.19 985.819 514.492 988.28 560.859C989.516 584.653 992.523 608.616 1003.06 630.883C1008.08 641.358 1013.6 643.677 1023.85 639.068C1037.91 632.643 1050.07 624.122 1059.47 612.199L1059.56 612.097V612.091ZM1372.26 875.506H1195.22C1195.11 874.003 1194.98 872.493 1194.83 870.978C1192.5 846.051 1189.23 821.187 1182.82 796.773C1180.07 786.366 1185.93 779.167 1197.33 778.705C1242.96 776.666 1288.4 779.554 1333.73 785.404C1361.26 788.924 1370.18 799.416 1369.71 826.525C1369.49 843.015 1370.42 859.329 1372.26 875.506ZM163.885 807.482C171.034 830.09 177.294 853.029 185.018 875.506H114.704C111.315 863.886 108.33 852.135 106.075 840.161C103.642 827.259 105.568 821.899 118.02 816.283C130.147 810.786 142.684 806.138 155.073 801.091C161.92 798.317 162.456 803.204 163.885 807.482ZM354.873 875.506H278.681C267.722 843.904 253.077 813.64 239.873 782.84C233.835 768.851 234.177 768.27 248.924 761.508C259.405 756.638 269.846 751.415 280.356 746.624C291.742 741.412 297.53 743.041 303.91 753.448C327.287 791.704 342.866 832.904 354.873 875.506ZM812.956 819.592C798.904 849.332 782.009 857.421 748.35 851.958C724.842 848.193 702.165 842.839 683.151 826.206H683.037C686.586 842.844 687.782 859.227 688.944 875.506H581.668C583.211 863.949 585.496 852.448 587.597 840.902C588.537 835.547 590.429 830.421 588.304 823.244C569.523 836.573 550.27 847.282 528.3 853.32C488.968 864.262 431.328 843.528 423.177 793.618C417.389 757.732 442.077 726.619 485.778 722.746C518.85 719.897 552.868 720.923 583.462 737.789C595.037 744.169 592.673 735.163 591.727 730.037C587.125 704.29 585.587 678.537 587.239 652.557C589.01 622.823 598.699 595.247 614.056 569.951C636.021 533.603 682.439 532.35 707.958 566.419C730.988 597.184 729.928 631.253 721.065 665.886C715.751 686.746 707.485 706.568 696.025 725.024C689.645 735.397 693.9 735.625 703.35 735.511C737.128 734.935 768.902 741.549 796.773 761.372C816.385 775.276 823.118 798.289 812.956 819.592ZM370.794 126.467C366.659 164.028 349.684 196.992 321.129 221.97C292.494 246.982 262.361 257.827 230.07 239.588C222.397 235.213 216.883 228.845 211.528 222.141C195.573 202.084 180.678 181.35 172.47 156.913C164.153 132.42 148.597 110.939 142.582 85.5741L142.439 85.4487C133.992 56.7285 123.101 28.7487 114.704 0H185.018C185.092 0.210759 185.161 0.421519 185.235 0.632279C192.908 22.9101 204.625 43.2057 214.923 64.2247C222.363 79.4108 227.256 95.8329 239.582 108.535C248.822 118.042 259.32 126.159 273.224 122.634C287.043 119.136 289.954 105.944 292.631 94.1127C297.843 70.593 292.517 47.7911 286.593 25.6671C284.286 16.9918 281.615 8.44747 278.681 0H354.873C358.069 11.3468 361.014 22.7848 363.782 34.2968C371.051 64.4582 374.178 95.3658 370.794 126.467ZM347.109 530.932C324.866 542.535 301.13 539.18 277.684 539.242C266.332 539.339 255.013 539.67 243.735 540.228C240.761 540.336 236.432 539.453 235.435 543.799C234.598 547.639 237.839 550.008 240.488 551.626C249.944 557.806 259.884 563.201 269.043 569.791C289.652 584.521 314.465 593.22 331.576 613.168C340.194 623.193 340.622 636.653 331.24 647.089C323.487 655.718 310.87 656.123 301.061 646.166C295.923 640.868 291.873 637.906 284.423 640.025C282.008 640.646 278.265 638.111 275.719 636.357C245.29 614.66 211.517 598.386 180.142 578.267C176.297 575.875 171.946 571.768 167.377 575.47C163.555 578.58 166.244 583.542 167.218 587.466C175.904 620.926 189.923 652.489 200.871 685.128C205.115 697.745 208.185 710.556 209.062 723.816C209.78 734.594 203.844 741.025 194.907 744.334C186.186 747.484 178.576 744.727 172.652 736.673C166.882 728.835 163.629 720.245 161.453 710.897C153.484 677.432 146.296 643.614 133.844 611.334C132.403 607.489 132.385 601.992 127.179 601.604C122.092 601.2 120.771 606.549 118.942 610.189C96.9892 652.021 80.4475 696.366 60.038 738.917C54.8715 749.535 49.7222 758.717 35.7095 753.243C17.2538 746.191 12.6854 739.116 18.393 722.791C34.5873 676.23 57.2241 632.615 83.1304 590.765C86.7646 584.932 94.6253 577.003 89.9658 572.463C84.0247 566.573 77.8956 576.382 72.7234 580.056C47.5861 597.885 23.3146 616.87 0 637.08V592.428C17.4475 580.842 35.2196 569.723 53.0032 558.723C58.6766 555.203 69.2658 551.757 67.1582 545.144C64.8968 538.32 54.319 542.603 47.9392 543.116C31.9386 544.232 15.9323 545.571 0 547.331V515.022C4.43165 514.8 8.86899 514.606 13.3063 514.413C24.6019 513.968 35.8918 512.687 47.2158 511.639C49.4544 511.411 52.2114 511.462 52.8437 508.608C53.4589 505.641 50.8671 504.37 49.0329 503.339C32.6392 494.168 16.6956 484.018 0 475.622V419.315C2.81392 420.591 5.59367 421.952 8.32785 423.41C27.8943 433.76 49.4259 439.855 67.9329 452.649C71.4076 454.978 76.2095 458.897 80.8348 454.825C84.5259 451.612 82.2247 446.827 81.9342 442.686C79.5418 415.054 75.1443 387.621 69.4823 360.501C68.2975 354.463 67.5854 348.351 67.5911 342.251C67.5741 332.92 72.9627 326.814 81.8772 325.663C91.2589 324.439 96.8981 329.901 99.1367 338.89C106.758 368.573 114.397 398.375 122.018 428.058C126.051 443.945 130.084 459.826 133.997 475.73L134.214 475.576C151.274 444.56 159.448 411.813 175.175 382.198C183.304 366.807 190.509 350.846 198.256 335.278C201.093 329.69 204.317 324.279 211.796 324.672C219.298 325.179 221.782 331.132 224.111 336.868C227.751 345.634 226.418 353.979 222.403 362.746C207.843 394.451 194.206 426.737 182.455 459.558C181.111 463.238 177.545 467.983 182.096 471.104C186.363 473.907 189.968 469.396 193.204 467.1C222.984 446.297 252.769 425.501 282.247 404.271C291.611 397.544 300.053 394.912 307.994 405.16C315.205 414.57 313.103 425.666 302.332 433.327C274.227 453.384 245.916 472.876 217.794 492.818C213.699 495.729 208.453 497.387 206.168 504.205C220.734 507.082 235.025 506.649 249.237 504.911C280.225 501.032 311.417 501.556 342.575 501.841C350.971 501.972 358.342 503.214 360.154 514.06C362.022 525.258 354.304 527.178 347.109 530.932Z" fill="black"/>
</g>
</g>
</g>
<defs>
<clipPath id="clip0_124_7712">
<rect width="1440" height="940.8" fill="white"/>
</clipPath>
<clipPath id="clip1_124_7712">
<rect width="1440" height="875.506" fill="white"/>
</clipPath>
</defs>
</svg>
