<svg width="1462" height="928" viewBox="0 0 1462 928" fill="none" xmlns="http://www.w3.org/2000/svg">
<g clip-path="url(#clip0_124_6412)">
<path fill-rule="evenodd" clip-rule="evenodd" d="M1512 31.5333V462.496H-99V41.883L-2.50781 27.8073L8.4 20.7695L60.4219 25.7374L111.185 32.7752L127.547 39.8131L174.534 23.6674L209.775 25.7374L304.589 8.76373L346.961 27.3933L374.651 20.3555L406.954 26.1513L456.879 20.3555H505.125L555.259 26.3583L578.543 39.8131L590.709 45.6089L612.525 50.1628L658.673 51.4048L707.339 41.469L807.922 40.227L857.951 34.0172L881.025 46.8508L911.231 40.227L1008.98 46.8508L1052.19 44.3669L1071.07 35.2591L1062.68 12.4897L1100.85 12.9036L1124.15 8.14277L1157.08 9.17777L1181.83 2.55388H1201.97L1218.75 5.03787L1240.99 12.0757H1248.53L1264.48 -2L1277.06 5.03787L1300.97 0.483932L1310.21 5.86585L1321.11 0.483932L1337.47 12.0757L1353.73 8.24623L1366.84 9.17777L1380.69 18.6995L1401.66 23.2534L1456.2 31.1192L1482.64 27.8073L1512 31.5333ZM-99 893.468V462.504H1512V883.117L1415.51 897.193L1404.6 904.231L1352.58 899.263L1301.81 892.225L1285.46 885.188L1238.47 901.333L1203.22 899.263L1108.41 916.237L1066.03 897.607L1038.35 904.645L1006.05 898.849L956.121 904.645H907.875L857.741 898.641L834.457 885.188L822.291 879.391L800.475 874.838L754.327 873.596L705.661 883.532L605.078 884.773L555.049 890.983L531.975 878.15L501.769 884.773L404.018 878.15L360.806 880.633L341.927 889.741L350.318 912.511L312.141 912.096L288.857 916.857L255.924 915.822L231.171 922.446H211.033L194.252 919.963L172.018 912.925H164.466L148.523 927L135.938 919.963L112.024 924.517L102.795 919.134L91.8865 924.517L75.525 912.925L59.268 916.754L46.1583 915.822L32.3136 906.301L11.3364 901.747L-43.2023 893.881L-69.6328 897.193L-99 893.468Z" fill="#FFFFEE"/>
<path d="M-81.3809 896.573L-99 895.333V885L-81.3809 885.414C-76.7663 892.027 -64.6007 893.681 -60.4057 893.681C-56.2107 893.681 -51.5961 888.72 -50.3376 887.894C-49.079 887.067 -33.1379 887.067 -26.8454 887.894C-20.5529 888.72 -18.4553 894.094 -17.6163 894.094C-16.7773 894.094 -4.61173 892.44 -2.09474 892.026C-0.0811081 891.696 5.45633 893.817 7.97385 894.919C9.98748 901.203 15.2446 900.57 17.6225 899.467C32.7242 896.573 35.661 900.707 41.5337 908.147C47.4063 915.588 50.7627 914.348 51.1823 914.348C57.2232 910.711 66.284 907.872 70.06 906.907C80.9673 905.667 80.9672 920.135 91.455 921.374C94.6154 921.748 99.9844 916.553 102.361 913.521C102.781 916.414 113.268 925.922 118.723 922.615C123.085 919.97 131.727 915.725 135.503 913.934C137.6 920.548 144.312 924.681 147.668 924.681C151.024 924.681 158.575 917.655 158.575 915.174C158.575 912.695 164.448 906.081 164.448 907.321C164.448 908.313 168.643 909.388 170.741 909.8C170.741 910.214 172.083 910.545 177.452 908.561C182.487 907.734 194.233 917.655 197.589 917.655C200.274 917.655 202.902 916.001 203.882 915.174C208.245 922.449 211.852 921.237 213.111 919.721C213.67 918.757 216.383 916.249 222.76 913.934C230.73 911.041 229.471 921.374 231.569 919.721C233.666 918.067 243.314 913.521 250.866 911.041C258.417 908.561 263.87 913.934 273.938 915.174C284.007 916.414 295.753 908.147 303.304 906.081C310.855 904.014 325.957 909.8 335.187 911.041C344.416 912.281 348.61 908.974 349.449 909.8C350.12 910.462 354.763 914.21 357 916.002C347.939 922.615 316.588 918.757 302.045 916.002C294.326 920.962 274.778 923.028 265.968 923.441C254.557 915.836 238.281 923.579 231.569 928.402C227.877 920.135 219.683 924.13 216.047 927.162C208.664 932.784 205.42 927.024 204.721 923.441C201.029 928.071 197.589 927.024 196.33 925.922C182.067 918.895 177.034 916.001 174.517 917.655C171.999 919.308 169.901 918.895 168.643 918.895C167.637 918.895 165.427 916.965 164.448 916.002C163.749 915.863 162.182 916.249 161.511 918.895C160.841 921.54 155.359 928.264 152.702 931.295C145.99 936.917 138.439 927.299 135.503 921.788L127.952 925.922C119.562 931.213 115.227 931.709 114.108 931.295C110.416 931.626 104.459 925.095 101.943 921.788C96.4885 928.815 86.4203 934.189 80.1281 921.788C73.8359 909.388 57.0549 921.788 55.3778 921.788C49.3369 925.756 46.4277 923.441 45.7292 921.788C32.3046 908.23 25.3128 907.321 23.4951 908.561C9.06425 911.867 7.13442 907.183 7.97385 904.427L-2.93374 902.36C-4.94737 903.353 -13.5612 904.151 -17.6163 904.427C-24.6639 895.168 -42.6467 896.987 -50.7571 899.054C-62.5032 909.305 -76.0672 901.672 -81.3809 896.573Z" fill="#FFEFD6"/>
<path d="M339.025 885.42C338.605 886.243 343.642 892.412 343.642 892.824C355.393 886.242 369.522 884.598 375.117 884.598C388.882 876.373 399.039 881.171 402.396 884.598C415.825 878.018 417.085 888.71 438.069 887.477C454.855 891.754 468.564 888.985 473.321 887.065C479.364 894.094 489.827 893.284 494.305 892C521.499 878.511 531.376 881.719 532.915 885.01C541.308 880.897 548.862 894.88 554.318 896.525C559.774 898.17 562.291 890.767 562.711 890.767C563.131 890.767 568.587 892.824 576.98 894.469C583.695 895.785 599.083 892.549 605.938 890.767C615.003 893.728 641.33 892 653.361 890.767C663.014 894.057 656.298 894.88 679.8 889.533C703.302 884.186 698.266 891.178 706.659 888.3C713.374 885.997 726.245 886.791 731.84 887.477C733.379 886.38 737.128 884.104 739.813 883.775C742.5 883.446 744.85 884.461 745.689 885.01C745.689 883.364 749.326 880.759 751.145 879.663C772.548 875.961 791.014 882.541 791.853 882.541C792.693 882.541 791.853 883.775 798.148 880.896C804.444 878.018 808.22 885.01 808.64 885.01C821.231 878.84 824.587 886.655 827.106 888.71C829.624 890.767 841.795 893.235 847.25 895.702C852.706 898.17 860.68 906.806 865.296 908.451C868.99 909.768 888.379 908.726 897.612 908.041C901.388 912.565 926.569 910.508 931.185 909.275C935.802 908.041 940.838 912.153 942.097 910.92C943.356 909.686 961.402 910.508 980.708 904.751C996.154 900.145 1016.8 902.831 1025.19 904.751C1036.94 917.912 1050.38 907.629 1054.99 903.928C1058.69 900.967 1063.25 901.323 1065.06 901.871C1067.44 902.831 1072.61 904.751 1074.29 904.751C1076.39 904.751 1084.37 911.742 1086.88 912.153C1088.9 912.482 1090.8 911.468 1091.5 910.92C1096.95 918.322 1100.32 918.734 1108.71 922.435C1115.42 925.397 1132.21 915.992 1139.77 910.92C1147.32 915.032 1155.71 911.331 1163.27 910.097C1169.31 909.11 1173.06 909.686 1174.17 910.097C1180.19 907.493 1196.09 903.27 1211.52 907.218C1226.97 911.166 1239.23 906.396 1243.42 903.516C1258.11 903.516 1274.48 892.824 1279.09 891.178C1283.71 889.533 1294.63 890.355 1294.63 891.178C1294.63 892 1299.24 899.815 1300.08 899.815C1300.75 899.815 1301.75 898.719 1302.18 898.17C1308.89 900.803 1327.64 903.928 1336.17 905.161L1377.72 905.573C1385.77 902.283 1400.1 906.944 1406.26 909.686H1411.71V908.451C1401.22 894.88 1442.35 904.751 1444.45 904.751C1446.13 904.751 1450.18 901.186 1452 899.404L1450.32 898.581C1449.49 898.17 1448.22 891.59 1447.39 892.824C1446.72 893.811 1443.74 894.057 1442.35 894.057C1406.26 886.655 1410.45 892.824 1410.45 894.88C1410.45 896.936 1411.71 899.815 1409.61 900.226C1407.94 900.555 1393.53 896.525 1386.53 894.469C1384.01 895.291 1378.22 896.525 1375.2 894.88C1371.42 892.824 1337.01 896.525 1335.33 894.88C1333.66 893.235 1313.09 891.178 1308.05 889.945C1304.02 888.958 1302.18 887.614 1301.75 887.065C1301.61 887.614 1301.08 888.793 1300.08 889.122C1298.82 889.533 1296.72 883.364 1294.63 879.663C1292.94 876.702 1283.29 878.429 1278.68 879.663C1271.96 886.243 1244.69 893.235 1242.59 894.057C1240.49 894.88 1236.29 900.226 1228.74 898.581C1221.18 896.936 1196.42 896.525 1193.9 896.114C1191.38 895.702 1177.96 899.815 1172.92 901.049C1167.88 902.283 1171.66 901.461 1165.36 899.815C1159.07 898.17 1154.87 903.106 1150.26 903.516C1146.56 903.845 1141.73 902.009 1139.77 901.049C1127.17 910.92 1122.98 909.686 1113.74 913.798C1104.52 917.912 1091.5 900.226 1091.5 900.637C1091.5 901.049 1086.88 902.283 1084.37 901.871C1081.85 901.461 1075.13 895.291 1074.29 894.88C1073.45 894.469 1073.45 894.88 1068 892C1063.63 889.697 1059.74 891.042 1058.35 892C1055.27 894.605 1047.52 900.226 1041.14 901.871C1033.16 903.928 1027.71 896.936 1025.19 894.88C1022.67 892.824 1009.66 893.235 1008.82 893.235C999.084 890.274 989.656 892 986.162 893.235C975.083 896.525 950.77 899.815 939.998 901.049C937.899 896.936 913.979 903.516 904.746 901.049C897.359 899.075 894.674 898.032 894.254 897.759C881.663 900.637 868.654 898.992 864.457 897.759C860.26 896.525 851.447 883.364 847.25 884.186C843.892 884.844 831.582 878.978 825.847 875.962C819.132 865.268 813.257 871.437 812.418 871.026C811.578 870.614 809.06 873.904 808.22 872.259C807.381 870.614 803.185 868.147 799.827 868.969C796.469 869.792 792.693 869.792 791.853 869.792C785.559 865.68 764.575 867.325 759.538 867.325H751.564C748.543 867.325 746.388 871.164 745.689 873.082C743.339 868.805 736.037 873.22 732.679 875.962C728.315 873.33 720.788 874.865 717.571 875.962C714.074 876.784 705.569 877.936 699.525 875.962C691.971 873.494 682.739 877.196 679.8 878.429C676.862 879.663 664.273 882.131 658.397 881.719C652.522 881.308 654.201 878.018 652.102 879.252C650.003 880.486 616.85 880.486 611.393 879.252C607.029 878.265 600.342 879.663 597.545 880.486C581.429 885.75 567.328 881.856 562.291 879.252C560.949 882.871 557.815 884.598 556.416 885.01C552.219 887.478 543.826 877.196 540.889 873.905C537.951 870.615 536.272 871.849 535.432 872.672C534.761 873.33 532.635 872.945 531.656 872.672C523.682 866.091 503.118 875.962 493.465 880.897C483.813 885.833 474.58 875.962 473.321 875.962C472.062 875.962 463.249 879.663 460.311 879.252C457.961 878.923 444.503 876.921 438.069 875.962C436.669 877.059 431.186 878.1 420.442 873.494C409.698 868.888 404.494 871.3 403.235 873.082C397.864 867.817 392.324 867.324 390.226 867.737C386.028 866.091 375.536 873.082 374.278 873.082C364.206 870.614 339.445 884.598 339.025 885.42Z" fill="#FFEFD6"/>
<path d="M1451.54 888.777C1452.38 890.033 1450.7 890.033 1450.28 890.451H1464.98C1468.47 891.708 1476.22 893.382 1479.25 890.033C1482.28 886.685 1485.27 888.917 1486.39 890.451C1487.39 889.447 1503.88 888.359 1512 887.94V876.219C1509.9 874.964 1486.39 879.568 1485.55 878.312C1484.88 877.308 1483.59 876.777 1483.03 876.638C1481.63 877.614 1478.16 879.735 1475.48 880.405C1472.11 881.242 1467.91 880.405 1465.81 879.149C1463.72 877.894 1448.6 879.149 1447.34 880.405C1446.08 881.661 1448.6 883.336 1450.28 887.102C1451.95 890.87 1450.7 887.521 1451.54 888.777Z" fill="#FFEC97"/>
<path d="M1494.38 28.6681L1512 29.8824V40L1494.38 39.5953C1489.77 33.1194 1477.61 31.5004 1473.41 31.5004C1469.21 31.5004 1464.59 36.3573 1463.34 37.1668C1462.08 37.9763 1446.14 37.9763 1439.85 37.1668C1433.55 36.3573 1431.45 31.0956 1430.61 31.0956C1429.77 31.0956 1417.61 32.7155 1415.1 33.1203C1413.09 33.4441 1407.55 31.3664 1405.03 30.287C1403.01 24.1349 1397.75 24.7556 1395.38 25.8349C1380.28 28.6681 1377.34 24.6206 1371.47 17.3352C1365.59 10.0498 1362.24 11.2641 1361.81 11.2641C1355.78 14.8258 1346.71 17.605 1342.94 18.5495C1332.03 19.7637 1332.03 5.59766 1321.54 4.38338C1318.39 4.01744 1313.01 9.10545 1310.64 12.0736C1310.22 9.24032 1299.73 -0.0688057 1294.28 3.16915C1289.92 5.75956 1281.27 9.91494 1277.5 11.6688C1275.4 5.19287 1268.69 1.14543 1265.33 1.14543C1261.97 1.14543 1254.42 8.02613 1254.42 10.4546C1254.42 12.8831 1248.56 19.359 1248.56 18.1447C1248.56 17.1733 1244.36 16.121 1242.26 15.7162C1242.26 15.3115 1240.92 14.9877 1235.54 16.9305C1230.52 17.74 1218.77 8.02613 1215.41 8.02613C1212.72 8.02613 1210.09 9.64511 1209.11 10.4546C1204.76 3.33109 1201.15 4.51834 1199.89 6.00236C1199.33 6.94681 1196.61 9.40221 1190.25 11.6688C1182.27 14.502 1183.53 4.38338 1181.43 6.00236C1179.33 7.62134 1169.68 12.0736 1162.13 14.502C1154.58 16.9305 1149.13 11.6688 1139.06 10.4546C1129 9.24031 1117.25 17.3352 1109.7 19.359C1102.15 21.3827 1087.04 15.7162 1077.82 14.502C1068.59 13.2878 1064.39 16.5257 1063.55 15.7162C1062.88 15.0686 1058.24 11.399 1056 9.64511C1065.06 3.16915 1096.41 6.94681 1110.96 9.64511C1118.68 4.78817 1138.23 2.76441 1147.03 2.35966C1158.44 9.80701 1174.72 2.22475 1181.43 -2.49727C1185.12 5.59766 1193.32 1.68509 1196.95 -1.28304C1204.33 -6.78757 1207.58 -1.14813 1208.28 2.35966C1211.97 -2.17348 1215.41 -1.14813 1216.67 -0.0688057C1230.93 6.81185 1235.97 9.64511 1238.48 8.02613C1241 6.40715 1243.09 6.81185 1244.36 6.81185C1245.36 6.81185 1247.58 8.70065 1248.56 9.64511C1249.25 9.77997 1250.81 9.40221 1251.48 6.81185C1252.16 4.22148 1257.64 -2.36236 1260.3 -5.33049C1267.01 -10.835 1274.56 -1.41794 1277.5 3.97868L1285.05 -0.0688057C1293.44 -5.24954 1297.77 -5.73523 1298.89 -5.33049C1302.59 -5.65428 1308.54 0.740684 1311.06 3.97868C1316.52 -2.90202 1326.58 -8.1637 1332.87 3.97868C1339.16 16.121 1355.95 3.97868 1357.62 3.97868C1363.67 0.093092 1366.57 2.35966 1367.28 3.97868C1380.69 17.2543 1387.69 18.1447 1389.51 16.9305C1403.94 13.6926 1405.87 18.2797 1405.03 20.978L1415.93 23.0016C1417.95 22.0303 1426.56 21.2478 1430.61 20.978C1437.66 30.0443 1455.65 28.2634 1463.76 26.2396C1475.51 16.2019 1489.06 23.6763 1494.38 28.6681Z" fill="#FFEFD6"/>
<path d="M1074.98 39.5798C1075.39 38.7572 1070.36 32.5881 1070.36 32.1768C1058.6 38.7574 1044.48 40.4022 1038.88 40.4019C1025.12 48.6274 1014.96 43.8293 1011.6 40.4019C998.169 46.9823 996.912 36.2892 975.936 37.523C959.144 33.2458 945.435 36.015 940.679 37.9344C934.635 30.9061 924.171 31.7157 919.695 32.9991C892.5 46.4888 882.624 43.2806 881.085 39.9903C872.691 44.1026 865.137 30.1201 859.682 28.475C854.226 26.8299 851.708 34.2328 851.289 34.2328C850.869 34.2328 845.413 32.1764 837.019 30.5313C830.305 29.2153 814.917 32.4507 808.062 34.2328C798.997 31.2717 772.67 32.9991 760.638 34.2328C750.986 30.9426 757.701 30.1201 734.199 35.4666C710.698 40.8132 715.734 33.8215 707.34 36.7005C700.626 39.0036 687.755 38.2084 682.16 37.523C680.621 38.6198 676.872 40.8954 674.186 41.2246C671.5 41.5535 669.15 40.5391 668.31 39.9907C668.31 41.6358 660.269 40.1277 658.45 41.2246C637.047 44.926 629.994 39.9907 629.155 39.9907C628.315 39.9907 622.146 41.2246 615.852 44.1034C609.556 46.9824 605.779 39.9907 605.36 39.9907C592.769 46.1599 590.67 36.2892 588.153 34.2328C585.635 32.1764 572.205 31.7652 566.75 29.2975C561.294 26.8299 553.32 18.1931 548.704 16.548C545.01 15.2319 525.621 16.2738 516.388 16.9593C512.612 12.4352 487.431 14.4916 482.815 15.7254C478.198 16.9593 473.162 12.8465 471.903 14.0803C470.644 15.3142 452.598 14.4916 433.293 20.2495C417.85 24.8558 397.201 22.1688 388.808 20.2495C377.057 7.08869 363.628 17.3706 359.011 21.072C355.318 24.0332 350.757 23.6768 348.939 23.1285C346.561 22.1688 341.385 20.2495 339.706 20.2495C337.608 20.2495 329.634 13.2578 327.116 12.8465C325.102 12.5175 323.199 13.5319 322.499 14.0803C317.044 6.67736 313.686 6.26614 305.293 2.56466C298.579 -0.396515 281.791 9.00797 274.237 14.0803C266.683 9.96756 258.29 13.6691 250.736 14.9029C244.692 15.8899 240.943 15.3142 239.824 14.9029C233.808 17.5077 217.918 21.7301 202.473 17.7818C187.029 13.8336 174.775 18.6044 170.577 21.4834C155.889 21.4834 139.522 32.1764 134.905 33.8216C130.289 35.4667 119.378 34.6442 119.378 33.8216C119.378 32.9991 114.761 25.1848 113.921 25.1848C113.25 25.1848 112.244 26.2815 111.824 26.8299C105.108 24.1977 86.3636 21.072 77.8297 19.8382L36.2826 19.4269C28.2248 22.7171 13.8999 18.056 7.7444 15.3142H2.28867V16.548C12.7803 30.1201 -28.3476 20.2495 -30.4459 20.2495C-32.1245 20.2495 -36.1813 23.8139 -38 25.5961L-36.3213 26.4186C-35.4819 26.8299 -34.223 33.4103 -33.3836 32.1764C-32.712 31.1894 -29.7464 30.9426 -28.3476 30.9426C7.7444 38.3456 3.54772 32.1764 3.54772 30.1201C3.54772 28.0637 2.28866 25.1848 4.38695 24.7736C6.06562 24.4444 20.4748 28.475 27.4695 30.5313C29.9868 29.7088 35.7787 28.475 38.7998 30.1201C42.5773 32.1764 76.9902 28.475 78.6691 30.1201C80.348 31.7652 100.912 33.8216 105.948 35.0554C109.977 36.0424 111.824 37.386 112.244 37.9344C112.383 37.386 112.915 36.207 113.921 35.8779C115.181 35.4667 117.279 41.6358 119.378 45.3373C121.057 48.2985 130.709 46.5711 135.325 45.3373C142.04 38.7568 169.319 31.7652 171.417 30.9426C173.515 30.1201 177.713 24.7735 185.267 26.4186C192.821 28.0637 217.581 28.475 220.099 28.8863C222.618 29.2975 236.046 25.1848 241.083 23.9509C246.119 22.7171 242.342 23.5397 248.637 25.1848C254.932 26.8299 259.129 21.8946 263.745 21.4834C267.438 21.1542 272.279 22.9913 274.237 23.9509C286.827 14.0803 291.024 15.3142 300.256 11.2014C309.489 7.08869 322.499 24.7735 322.499 24.3622C322.499 23.9509 327.116 22.7171 329.634 23.1285C332.152 23.5397 338.866 29.7089 339.706 30.1201C340.545 30.5313 340.545 30.1201 346.002 32.9991C350.366 35.3021 354.254 33.9587 355.654 32.9991C358.731 30.3943 366.482 24.7736 372.861 23.1285C380.834 21.072 386.29 28.0637 388.808 30.1201C391.326 32.1764 404.336 31.7652 405.175 31.7652C414.912 34.7264 424.34 32.9991 427.838 31.7652C438.917 28.475 463.23 25.1848 474.002 23.9509C476.1 28.0637 500.021 21.4834 509.254 23.9509C516.641 25.9251 519.326 26.967 519.746 27.2411C532.337 24.3622 545.346 26.0073 549.543 27.2411C553.739 28.475 562.552 41.6358 566.75 40.8132C570.107 40.1552 582.418 46.0224 588.153 49.0383C594.868 59.7311 600.743 53.5628 601.582 53.974C602.422 54.3854 604.94 51.0951 605.779 52.7403C606.619 54.3854 610.815 56.853 614.173 56.0305C617.531 55.2079 621.307 55.2074 622.146 55.2074C628.441 59.3201 649.425 57.675 654.462 57.675H662.435C665.456 57.675 667.612 53.8365 668.31 51.9172C670.66 56.1945 677.963 51.7802 681.321 49.0383C685.685 51.6705 693.211 50.1351 696.429 49.0383C699.926 48.2158 708.431 47.0642 714.474 49.0383C722.028 51.506 731.261 47.8044 734.199 46.5707C737.137 45.3368 749.727 42.8691 755.603 43.2805C761.478 43.6917 759.799 46.9819 761.898 45.7481C763.996 44.5142 797.15 44.5142 802.606 45.7481C806.971 46.7352 813.658 45.3368 816.455 44.5142C832.571 39.2499 846.672 43.1433 851.708 45.7481C853.051 42.1289 856.185 40.4015 857.583 39.9903C861.781 37.5226 870.174 47.8044 873.111 51.0946C876.049 54.3848 877.728 53.1511 878.567 52.3285C879.238 51.6705 881.365 52.0543 882.344 52.3285C890.317 58.9089 910.882 49.0383 920.534 44.103C930.187 39.1677 939.419 49.0383 940.679 49.0383C941.938 49.0383 950.751 45.3368 953.689 45.7481C956.039 46.0771 969.491 48.0786 975.936 49.0383C977.332 47.9416 982.818 46.8997 993.556 51.506C1004.3 56.1123 1009.5 53.7 1010.76 51.918C1016.14 57.183 1021.68 57.6756 1023.78 57.2637C1027.98 58.9088 1038.46 51.918 1039.73 51.918C1049.79 54.3857 1074.55 40.4023 1074.98 39.5798Z" fill="#FFEFD6"/>
</g>
<defs>
<clipPath id="clip0_124_6412">
<rect width="1570" height="928" fill="white" transform="translate(-54)"/>
</clipPath>
</defs>
</svg>
