<svg width="1389" height="806" viewBox="0 0 1389 806" fill="none" xmlns="http://www.w3.org/2000/svg">
<g clip-path="url(#clip0_124_5977)">
<rect y="-60" width="1389" height="866" rx="20" fill="#1D5620"/>
<g opacity="0.15">
<g clip-path="url(#clip1_124_5977)">
<g clip-path="url(#clip2_124_5977)">
<path d="M1380 341.843V395.804C1375.92 393.741 1371.78 391.797 1367.59 390.001C1349.65 382.364 1334.09 372.287 1320.9 358.291C1316.64 353.793 1308.34 349.813 1313.59 341.543C1318.74 333.398 1325.3 326.182 1336.77 328.409C1351.62 331.46 1366.25 335.593 1380 341.843ZM1305.29 443.52C1329.77 436.86 1354.8 434.813 1380 433.563V464.526C1370.08 465.623 1360.18 466.889 1350.34 468.38C1336.79 470.492 1323.3 470.072 1309.78 471.606C1301.45 472.561 1294.49 468.374 1292.76 459.471C1290.92 449.89 1297.03 445.725 1305.29 443.52ZM1348.11 529.846C1358.56 522.237 1369.22 514.9 1380 507.743V550.535C1376 553.985 1372.04 557.485 1368.11 561.022C1359.76 568.511 1350.17 574.707 1340.83 580.985C1334.4 585.314 1327.47 586.509 1321 580.292C1314.38 573.872 1314.08 566.808 1318.53 559.346C1325.91 547.074 1336.79 538.155 1348.11 529.846ZM652.989 -4.93101C642.912 17.9962 621.066 31.4305 598.766 28.1497C578.508 25.2019 560.281 4.56741 557 -18.0377C554.86 -32.2308 555.586 -46.1563 557.432 -60H660.238C660.424 -57.4398 660.609 -54.8796 660.801 -52.3248C662.045 -35.9428 659.665 -20.2213 652.989 -4.93101ZM1350.63 166.941C1348.06 171.805 1344.87 178.29 1337.01 177.362C1326.9 176.21 1316.79 174.393 1312.29 163.677C1304.96 146.476 1302.75 128.014 1296.86 110.355C1296.36 108.952 1296.5 107.352 1296 105.955C1295.14 103.646 1295.37 99.9719 1291.7 100.114C1289.21 100.239 1288.43 102.974 1287.72 105.158C1283.41 119.558 1278.52 133.784 1274.77 148.365C1264.33 188.411 1252.76 228.108 1236.95 266.44C1231.39 279.814 1224.77 293.03 1214.19 303.598C1210.16 307.589 1205.61 312.545 1199.11 309.625C1193.44 307.108 1193.5 301.131 1193.58 295.727C1193.75 275.032 1202.72 256.445 1208.53 237.12C1218.72 202.931 1233.39 169.944 1238.35 134.346C1238.85 130.842 1240.32 127.288 1237.81 120.77C1227.83 137.802 1222.86 154.146 1217.16 170.206C1201.62 214.182 1187.11 258.596 1157.84 296.442C1152.27 303.631 1146.34 314.003 1136.17 309.139C1126.58 304.444 1130.3 292.812 1132.86 284.525C1142.95 251.079 1154.74 218.162 1167.85 185.72C1175.64 166.297 1184.99 147.098 1187.69 126.005C1187.97 124.045 1189.39 121.682 1186.49 119.182C1181.59 121.715 1179.33 126.431 1177.3 131.082C1168.32 151.853 1158.98 172.389 1150.85 193.471C1141.83 216.611 1126.45 235.903 1112.5 256.161C1110.89 258.497 1107.9 260.069 1105.4 261.707C1101.24 264.54 1096.89 267.341 1091.51 264.202C1085.95 260.937 1085.22 255.702 1085.79 250.271C1087.22 237.453 1090.94 225.155 1096.26 213.462C1110.46 182.308 1125.42 151.46 1140.01 120.366C1142.26 115.65 1145.83 111.403 1144.8 104.699C1138.16 109.077 1135.55 115.644 1131.87 121.393C1120.21 139.505 1108.72 157.732 1096.71 175.604C1091.83 182.799 1085.43 188.919 1078.44 194.388C1072.64 198.985 1066.63 202.402 1059.41 198.335C1052.36 194.388 1051.59 187.341 1052.09 180.375C1053.21 165.522 1058.9 151.886 1064.94 138.582C1077.56 110.251 1093.6 83.5408 1112.49 59.0468C1140.25 23.0839 1148.8 -16.946 1145.42 -60H1315.08C1319.34 -22.5577 1328.67 14.1259 1339.62 50.5692C1347.61 77.0829 1353.27 103.93 1357.9 131.104C1360.06 143.67 1356.64 155.92 1350.63 166.941ZM653.115 226.126C658.628 237.29 671.358 244.528 680.709 254.823C699.165 275.087 691.065 314.805 674.12 330.887C633.381 369.732 584.458 379.165 530.645 360.731C507.898 353.001 491.609 338.235 474.118 324.337C449.712 304.941 421.408 298.434 390.194 301.196C379.091 302.245 373.048 298.265 372.289 287.091C371.754 278.149 372.66 269.18 373.031 260.217C373.293 253.726 378.976 251.281 383.671 248.917C393.054 244.19 402.711 239.648 412.581 236.089C438.145 227.054 460.995 236.847 483.742 245.461C511.015 255.866 537.048 269.175 565.412 276.648C577.466 279.836 590.267 280.344 602.729 277.063C611.556 274.754 617.741 270.687 611.07 260.61C596.637 238.845 587.466 214.428 576.953 190.851C561.553 156.417 571.996 126.988 608.15 103.788C621.071 95.512 636.328 92.6188 650.958 88.5356C674.442 82.0014 690.868 96.4182 708.642 106.326C729.451 117.97 746.756 134.778 769.175 144.003C782.162 149.298 793.893 144.527 804.096 136.688C813.081 129.854 816.132 120.23 813.294 109.285C806.432 82.8365 798.249 56.574 797.911 28.9685C797.692 14.1313 808.899 4.81852 819.866 -2.5564C851.741 -24.0698 887.021 -23.1964 922.651 -16.7822C928.438 -15.7723 934.088 -14.4131 939.836 -13.627C950.388 -12.2568 957.206 -5.31313 958.756 3.40467C961.016 16.9044 960.891 31.1084 956.076 44.5263C950.923 59.0687 942.931 63.5449 927.695 59.1178C910.926 54.4014 895.919 56.2355 880.498 65.0461C871.251 70.303 868.292 75.3252 872.746 84.7308C881.874 104.011 888.812 123.729 885.487 145.772C884.576 152.099 882.823 158.016 878.718 162.732C851.904 193.586 817.601 208.904 775.431 200.131C750.228 194.923 728.818 181.948 706.262 170.801C689.509 162.421 670.878 160.68 653.415 171.336C636.782 181.522 633.523 197.347 644.02 213.369C646.477 217.152 649.446 220.564 653.267 225.629L653.109 226.121L653.115 226.126ZM1133.5 587.83C1155.64 556.988 1168.85 509.463 1161.23 456.85C1157.98 434.485 1159.98 428.191 1177.57 419.796C1188.51 414.566 1194.01 418.933 1196.28 429.13C1213.72 502.989 1202.69 570.269 1154.93 631.157C1123.41 671.482 1084.27 686.417 1036.89 678.808C1004.69 673.682 979.751 654.243 959.913 627.953C958.292 625.748 956.949 623.433 955.612 621.124C945.256 602.427 930.79 594.659 908.949 592.028C852.942 585.194 818.398 547.042 798.102 495.401C772.576 430.408 766.784 363.411 791.054 295.541C797.447 277.827 823.496 270.217 837.258 282.107C843.612 287.522 845.479 294.411 843.045 304.122C826.078 369.874 821.515 435.353 847.308 499.653C859.383 529.726 878.795 551.343 909.637 560.498C914.539 561.95 920.222 565.918 924.502 561.136C928.312 557.048 924.305 551.873 923.033 547.315C904.571 482.649 908.96 418.939 933.285 356.331C939.323 340.779 949.432 327.77 960.394 315.422C1007.85 261.953 1071.31 287.451 1094.71 339.709C1121.59 399.691 1107.06 498.764 1059.13 544.629C1043.22 559.919 1024.81 570.771 1005.94 581.154C990.33 589.801 991.111 592.711 1001.23 607.116C1035.32 655.231 1087.6 639.22 1133.49 587.836L1133.5 587.83ZM1015.41 526.587C1041.45 499.85 1053.4 465.918 1061.3 431.003C1068.93 397.562 1062.75 365.305 1043.08 337.067C1034.48 324.773 1022.97 321.127 1009.79 327.967C998.011 334.086 987.568 342.127 979.614 354.016C954.536 391.557 944.743 433.055 947.101 477.49C948.286 500.292 951.168 523.258 961.267 544.596C966.076 554.635 971.366 556.857 981.187 552.441C994.659 546.283 1006.32 538.116 1015.32 526.691L1015.41 526.593V526.587ZM1315.08 779.027H1145.42C1145.31 777.586 1145.19 776.139 1145.05 774.687C1142.81 750.799 1139.68 726.971 1133.53 703.575C1130.9 693.601 1136.52 686.701 1147.44 686.259C1191.17 684.305 1234.72 687.072 1278.16 692.679C1304.54 696.052 1313.09 706.107 1312.64 732.086C1312.42 747.89 1313.31 763.524 1315.08 779.027ZM157.057 713.837C163.908 735.503 169.907 757.486 177.309 779.027H109.925C106.677 767.891 103.817 756.629 101.655 745.155C99.324 732.79 101.169 727.654 113.102 722.271C124.724 717.003 136.739 712.549 148.612 707.712C155.174 705.054 155.687 709.738 157.057 713.837ZM340.087 779.027H267.069C256.566 748.741 242.532 719.738 229.878 690.222C224.092 676.815 224.419 676.258 238.552 669.779C248.597 665.111 258.603 660.106 268.674 655.515C279.586 650.52 285.133 652.081 291.247 662.054C313.65 698.716 328.58 738.2 340.087 779.027ZM779.083 725.443C765.616 753.943 749.425 761.695 717.169 756.46C694.64 752.852 672.908 747.72 654.687 731.78H654.577C657.978 747.726 659.125 763.426 660.238 779.027H557.432C558.911 767.951 561.1 756.929 563.114 745.864C564.015 740.733 565.827 735.82 563.791 728.942C545.793 741.716 527.342 751.978 506.288 757.765C468.594 768.251 413.356 748.381 405.544 700.55C399.998 666.16 423.657 636.343 465.537 632.631C497.231 629.902 529.832 630.884 559.151 647.048C570.244 653.162 567.978 644.531 567.072 639.619C562.661 614.944 561.187 590.265 562.77 565.367C564.468 536.872 573.754 510.445 588.471 486.203C609.52 451.37 654.004 450.169 678.46 482.818C700.53 512.302 699.515 544.951 691.021 578.141C685.928 598.131 678.007 617.128 667.024 634.815C660.91 644.755 664.988 644.974 674.044 644.865C706.415 644.313 736.864 650.651 763.575 669.648C782.369 682.973 788.822 705.027 779.083 725.443ZM355.345 61.1976C351.381 97.1934 335.114 128.784 307.749 152.721C280.307 176.691 251.43 187.084 220.483 169.605C213.13 165.413 207.846 159.31 202.715 152.885C187.425 133.664 173.15 113.794 165.283 90.3752C157.313 66.9021 142.405 46.3168 136.641 22.0085L136.504 21.8884C128.409 -5.6352 117.971 -32.4491 109.925 -60H177.309C177.38 -59.798 177.446 -59.596 177.517 -59.3941C184.87 -38.0445 196.099 -18.5945 205.968 1.54866C213.098 16.102 217.787 31.8399 229.6 44.0131C238.454 53.124 248.515 60.9028 261.84 57.5238C275.083 54.1721 277.872 41.5294 280.438 30.1913C285.433 7.65166 280.329 -14.2002 274.652 -35.4024C272.441 -43.7162 269.881 -51.9045 267.069 -60H340.087C343.149 -49.1259 345.972 -38.1646 348.625 -27.1322C355.59 1.77247 358.587 31.3923 355.345 61.1976ZM332.647 448.81C311.33 459.929 288.583 456.714 266.114 456.774C255.234 456.867 244.388 457.183 233.579 457.718C230.73 457.822 226.581 456.976 225.626 461.141C224.823 464.82 227.929 467.091 230.468 468.642C239.529 474.564 249.055 479.734 257.833 486.05C277.583 500.166 301.362 508.502 317.76 527.619C326.02 537.227 326.429 550.126 317.438 560.127C310.009 568.397 297.917 568.784 288.517 559.242C283.593 554.166 279.712 551.327 272.572 553.358C270.257 553.953 266.671 551.523 264.231 549.842C235.069 529.049 202.704 513.453 172.636 494.173C168.952 491.88 164.781 487.944 160.403 491.492C156.74 494.473 159.317 499.228 160.25 502.989C168.575 535.054 182.009 565.302 192.501 596.581C196.568 608.672 199.51 620.949 200.351 633.657C201.039 643.986 195.351 650.149 186.786 653.32C178.428 656.339 171.135 653.697 165.458 645.978C159.928 638.467 156.811 630.235 154.726 621.277C147.089 589.206 140.2 556.797 128.267 525.861C126.886 522.177 126.869 516.909 121.88 516.538C117.005 516.15 115.739 521.276 113.986 524.764C92.948 564.854 77.0955 607.351 57.5364 648.129C52.5852 658.304 47.6504 667.104 34.2216 661.858C16.5349 655.1 12.1569 648.32 17.6267 632.675C33.1462 588.054 54.8397 546.256 79.6666 506.149C83.1494 500.56 90.6826 492.961 86.2173 488.61C80.5237 482.966 74.6499 492.366 69.6933 495.887C45.6033 512.973 22.3431 531.167 0 550.535V507.743C16.7205 496.64 33.7521 485.984 50.7947 475.443C56.2317 472.07 66.3798 468.767 64.36 462.429C62.1928 455.89 52.0557 459.995 45.9418 460.486C30.6078 461.556 15.2684 462.839 0 464.526V433.563C4.24699 433.35 8.49945 433.164 12.7519 432.979C23.5768 432.553 34.3963 431.325 45.2485 430.32C47.3938 430.102 50.0359 430.151 50.6419 427.416C51.2314 424.572 48.7476 423.355 46.9899 422.367C31.2793 413.578 15.9999 403.85 0 395.804V341.843C2.69668 343.066 5.3606 344.371 7.98085 345.768C26.732 355.687 47.3665 361.528 65.1024 373.788C68.4323 376.021 73.0341 379.777 77.4667 375.874C81.004 372.795 78.7987 368.209 78.5203 364.241C76.2275 337.76 72.0133 311.47 66.5872 285.48C65.4517 279.694 64.7694 273.837 64.7748 267.99C64.7585 259.049 69.9226 253.197 78.4657 252.094C87.4564 250.92 92.8607 256.155 95.006 264.769C102.31 293.216 109.63 321.776 116.934 350.222C120.799 365.447 124.664 380.667 128.414 395.908L128.622 395.76C144.971 366.037 152.804 334.654 167.876 306.273C175.666 291.523 182.572 276.228 189.996 261.309C192.714 255.953 195.804 250.767 202.971 251.144C210.161 251.63 212.541 257.335 214.773 262.832C218.262 271.233 216.984 279.23 213.136 287.631C199.183 318.015 186.114 348.956 174.853 380.41C173.564 383.936 170.147 388.484 174.509 391.475C178.598 394.161 182.053 389.837 185.154 387.638C213.693 367.702 242.237 347.771 270.487 327.426C279.461 320.979 287.551 318.457 295.161 328.278C302.072 337.296 300.057 347.93 289.734 355.272C262.8 374.493 235.67 393.173 208.72 412.284C204.795 415.074 199.767 416.662 197.578 423.197C211.536 425.953 225.233 425.538 238.852 423.873C268.549 420.156 298.441 420.658 328.301 420.931C336.348 421.057 343.411 422.247 345.147 432.64C346.938 443.372 339.541 445.212 332.647 448.81Z" fill="black"/>
</g>
</g>
</g>
</g>
<defs>
<clipPath id="clip0_124_5977">
<rect width="1389" height="806" rx="20" fill="white"/>
</clipPath>
<clipPath id="clip1_124_5977">
<rect width="1380" height="878" fill="white" transform="translate(0 -60)"/>
</clipPath>
<clipPath id="clip2_124_5977">
<rect width="1380" height="839.027" fill="white" transform="translate(0 -60)"/>
</clipPath>
</defs>
</svg>
