<svg width="355" height="337" viewBox="0 0 355 337" fill="none" xmlns="http://www.w3.org/2000/svg">
<path d="M167.776 336.792C260.436 336.792 335.552 333.475 335.552 329.383C335.552 325.291 260.436 321.974 167.776 321.974C75.1159 321.974 0 325.291 0 329.383C0 333.475 75.1159 336.792 167.776 336.792Z" fill="black"/>
<path d="M158.412 307.974C158.412 307.974 225.04 303.524 219.033 284.535C213.026 265.546 183.199 285.116 183.199 285.116C183.199 285.116 206.606 268.219 207.407 248.896C208.208 229.573 163.939 280.292 163.939 280.292C163.939 280.292 177.257 263.596 176.236 243.452C175.214 223.307 145.075 254.654 158.412 307.974Z" fill="#CDE1CE"/>
<path opacity="0.39" d="M161.621 297.453C161.621 297.453 208.957 237.677 197.204 256.331C185.451 274.985 161.621 297.453 161.621 297.453Z" fill="#A87D1D"/>
<path opacity="0.39" d="M209.824 285.839L164.021 297.914C164.021 297.914 204.414 293.029 209.824 285.839Z" fill="#A87D1D"/>
<path opacity="0.39" d="M169.555 248.11L157.63 284.921C157.63 284.921 161.866 254.244 169.555 248.11Z" fill="#A87D1D"/>
<path d="M26.7558 327.984H153.174C163.7 327.984 172.233 319.451 172.233 308.925V19.06C172.233 8.534 163.7 0 153.174 0H26.7558C16.2298 0 7.69678 8.533 7.69678 19.06V308.925C7.69678 319.451 16.2298 327.984 26.7558 327.984Z" fill="#2F2F35"/>
<path d="M34.7348 326.543H161.153C171.679 326.543 180.212 318.064 180.212 307.604V19.565C180.212 9.10498 171.679 0.625977 161.153 0.625977H34.7348C24.2088 0.625977 15.6748 9.10498 15.6748 19.565V307.604C15.6758 318.064 24.2088 326.543 34.7348 326.543Z" stroke="#9191A3" stroke-width="0.9332" stroke-miterlimit="10"/>
<path d="M46.4379 327.984H172.856C183.382 327.984 191.915 319.451 191.915 308.925V19.06C191.915 8.534 183.382 0 172.856 0H46.4379C35.9119 0 27.3789 8.533 27.3789 19.06V308.925C27.3779 319.451 35.9109 327.984 46.4379 327.984Z" fill="#333333"/>
<path d="M40.9146 309.138H178.377C183.257 309.138 187.213 305.182 187.213 300.302V17.2169C187.213 12.3369 183.257 8.38086 178.377 8.38086H40.9146C36.0346 8.38086 32.0786 12.3369 32.0786 17.2169V300.302C32.0786 305.182 36.0346 309.138 40.9146 309.138Z" fill="#FFFFFD"/>
<path d="M103.36 318.298C103.36 321.77 106.175 324.585 109.647 324.585C113.119 324.585 115.934 321.77 115.934 318.298C115.934 314.826 113.119 312.011 109.647 312.011C106.174 312.01 103.36 314.825 103.36 318.298Z" fill="white"/>
<path d="M17.7988 47.541C20.1438 47.541 22.0458 49.442 22.0458 51.788V76.738C22.0458 79.083 20.1448 80.985 17.7988 80.985H13.5518V76.738V51.788V47.541H17.7988Z" fill="#333333"/>
<path d="M9.30566 76.737C9.30566 79.082 11.2067 80.984 13.5527 80.984C15.8977 80.984 17.7997 79.083 17.7997 76.737V51.787C17.7997 49.442 15.8977 47.54 13.5527 47.54C11.2077 47.54 9.30566 49.441 9.30566 51.787V76.737Z" fill="#A9A7AA"/>
<path d="M17.7988 87.3535C20.1438 87.3535 22.0458 89.2545 22.0458 91.6005V116.551C22.0458 118.896 20.1448 120.798 17.7988 120.798H13.5518V116.551V91.6005V87.3535H17.7988Z" fill="#333333"/>
<path d="M9.30566 116.551C9.30566 118.896 11.2067 120.798 13.5527 120.798C15.8977 120.798 17.7997 118.897 17.7997 116.551V91.6005C17.7997 89.2545 15.8977 87.3535 13.5527 87.3535C11.2077 87.3535 9.30566 89.2545 9.30566 91.6005V116.551Z" fill="#A9A7AA"/>
<path d="M49.2757 203.072H168.135C172.906 203.072 176.773 199.205 176.773 194.434V37.6048C176.773 32.8338 172.906 28.9668 168.135 28.9668H49.2757C44.5047 28.9668 40.6377 32.8338 40.6377 37.6048V194.434C40.6377 199.205 44.5057 203.072 49.2757 203.072Z" fill="#ECECEC"/>
<path d="M46.3847 300.052H171.026C174.2 300.052 176.773 297.479 176.773 294.305V214.128C176.773 210.954 174.2 208.381 171.026 208.381H46.3847C43.2107 208.381 40.6377 210.954 40.6377 214.128V294.305C40.6377 297.479 43.2107 300.052 46.3847 300.052Z" fill="#ECECEC"/>
<path d="M155.779 10.0877C155.779 14.4087 152.276 17.9127 147.954 17.9127H71.7937C67.4727 17.9127 63.9688 14.4097 63.9688 10.0877C63.9688 5.76669 67.4717 2.2627 71.7937 2.2627H147.954C152.276 2.2627 155.779 5.76569 155.779 10.0877Z" fill="#333333"/>
<path d="M53.7036 40.5127H69.2726" stroke="#333333" stroke-width="1.6105" stroke-miterlimit="10"/>
<path d="M53.7036 46.126H69.2726" stroke="#333333" stroke-width="1.6105" stroke-miterlimit="10"/>
<path d="M53.7036 51.7383H69.2726" stroke="#333333" stroke-width="1.6105" stroke-miterlimit="10"/>
<path d="M129.164 41.9342C129.164 38.7122 121.476 36.9072 121.476 41.9342C121.476 49.9252 129.164 53.4472 129.164 53.4472C129.164 53.4472 136.852 49.9252 136.852 41.9342C136.852 36.9082 129.164 38.7122 129.164 41.9342Z" fill="#333333"/>
<path d="M161.291 50.0137H148.927L147.825 40.5127H162.393L161.291 50.0137Z" fill="#333333"/>
<path d="M151.837 53.8137C152.887 53.8137 153.737 52.963 153.737 51.9137C153.737 50.8643 152.887 50.0137 151.837 50.0137C150.788 50.0137 149.938 50.8643 149.938 51.9137C149.938 52.963 150.788 53.8137 151.837 53.8137Z" fill="#333333"/>
<path d="M158.382 53.8137C159.432 53.8137 160.282 52.963 160.282 51.9137C160.282 50.8643 159.432 50.0137 158.382 50.0137C157.333 50.0137 156.482 50.8643 156.482 51.9137C156.482 52.963 157.333 53.8137 158.382 53.8137Z" fill="#333333"/>
<path d="M166.405 40.5127H160.282V42.5817H166.405V40.5127Z" fill="#333333"/>
<path d="M168.535 216.036H47.8076V236.567H168.535V216.036Z" fill="#2E7D32"/>
<path opacity="0.53" d="M76.1956 242.789H47.8076V271.177H76.1956V242.789Z" fill="#333333"/>
<path opacity="0.28" d="M112.138 242.789H83.75V271.177H112.138V242.789Z" fill="#333333"/>
<path opacity="0.13" d="M147.857 242.789H119.47V271.177H147.857V242.789Z" fill="#333333"/>
<path d="M156.514 249.059V264.117L168.536 256.588L156.514 249.059Z" fill="#333333"/>
<path d="M47.8076 280.74H168.536" stroke="#333333" stroke-width="0.9416" stroke-miterlimit="10"/>
<path d="M47.8076 288.828H168.536" stroke="#333333" stroke-width="0.9416" stroke-miterlimit="10"/>
<path d="M64.6587 226.302H148.145" stroke="#2F2F35" stroke-width="1.8664" stroke-miterlimit="10" stroke-linecap="round"/>
<path d="M76.196 9.74325C76.196 11.6552 74.646 13.2053 72.734 13.2053C70.822 13.2053 69.272 11.6552 69.272 9.74325C69.272 7.83125 70.822 6.28125 72.734 6.28125C74.646 6.28125 76.196 7.83125 76.196 9.74325Z" fill="white"/>
<path d="M169.528 67.7197H134.146V84.1637H169.528V67.7197Z" fill="#2E7D32"/>
<path d="M140.917 75.9424H162.149" stroke="#333333" stroke-width="0.9416" stroke-miterlimit="10" stroke-linecap="round"/>
<path d="M149.129 76.0059C149.129 76.0059 152.416 82.0178 156.481 82.1768C159.546 92.4869 165.257 96.4039 169.527 98.3199C191.915 128.737 191.915 128.737 191.915 128.737V103.698L163.343 76.0059H149.129Z" fill="#333333"/>
<path opacity="0.33" d="M108.646 187.791C134.011 187.791 154.574 184.549 154.574 180.551C154.574 176.552 134.011 173.311 108.646 173.311C83.2804 173.311 62.7178 176.552 62.7178 180.551C62.7178 184.549 83.2804 187.791 108.646 187.791Z" fill="#333333"/>
<path d="M106.81 120.385C94.6607 120.385 83.1317 122.326 72.7687 125.806C70.8157 126.462 69.5797 128.388 69.7547 130.441L73.4667 173.963C73.7657 177.464 76.6937 180.153 80.2077 180.153H135.805C139.318 180.153 142.247 177.464 142.546 173.963L146.189 131.26C146.361 129.247 145.176 127.353 143.279 126.66C132.3 122.646 119.916 120.385 106.81 120.385Z" fill="#2E7D32"/>
<path d="M69.8757 131.858C70.2397 130.417 71.3017 129.207 72.7687 128.714C83.1317 125.234 94.6607 123.293 106.81 123.293C119.917 123.293 132.3 125.554 143.278 129.568C144.694 130.086 145.713 131.273 146.067 132.679L146.188 131.259C146.36 129.246 145.175 127.352 143.278 126.659C132.3 122.645 119.917 120.384 106.81 120.384C94.6607 120.384 83.1317 122.325 72.7687 125.805C70.8157 126.461 69.5797 128.387 69.7547 130.44L69.8757 131.858Z" fill="#2F2F35"/>
<path d="M74.2557 135.299C74.2557 137.724 72.2897 139.69 69.8647 139.69C67.4397 139.69 65.4727 137.724 65.4727 135.299C65.4727 132.874 67.4387 130.908 69.8647 130.908C72.2897 130.908 74.2557 132.874 74.2557 135.299Z" stroke="#2F2F35" stroke-width="1.8664" stroke-miterlimit="10"/>
<path d="M137.109 145.62H79.4707V147.267H137.109V145.62Z" fill="#2F2F35"/>
<path d="M81.8949 149.453C81.8949 150.66 80.916 151.639 79.709 151.639C78.502 151.639 77.5229 150.66 77.5229 149.453C77.5229 148.246 78.502 147.267 79.709 147.267C80.916 147.267 81.8949 148.245 81.8949 149.453Z" stroke="#2F2F35" stroke-width="1.8664" stroke-miterlimit="10"/>
<path d="M89.2276 135.921C89.2276 137.946 87.5855 139.588 85.5605 139.588C83.5355 139.588 81.8936 137.946 81.8936 135.921V130.945C81.8936 128.92 83.5355 127.278 85.5605 127.278C87.5855 127.278 89.2276 128.92 89.2276 130.945V135.921Z" fill="#2F2F35"/>
<path d="M124.391 135.921C124.391 137.946 126.033 139.588 128.057 139.588C130.082 139.588 131.723 137.946 131.723 135.921V130.945C131.723 128.92 130.082 127.278 128.057 127.278C126.032 127.278 124.391 128.92 124.391 130.945V135.921Z" fill="#2F2F35"/>
<path d="M85.5617 132.397C85.5617 132.397 84.5978 66.4307 107.972 66.4307C131.346 66.4307 128.058 132.397 128.058 132.397" stroke="#2E7D32" stroke-width="3.7329" stroke-miterlimit="10" stroke-linecap="round"/>
<path d="M71.5669 151.682L73.4669 173.963C73.7659 177.464 76.6939 180.153 80.2079 180.153H120.618C88.7259 177.602 71.5669 151.682 71.5669 151.682Z" fill="#CDE1CE"/>
<path d="M278.748 245.406L281.482 329.383H250.118C250.118 329.383 250.247 323.185 258.26 319.575C256.688 245.517 256.688 245.517 256.688 245.517L278.748 245.406Z" fill="#FF7E6E"/>
<path d="M250.118 245.406L243.789 329.383H211.117C211.117 329.383 213.93 320.789 222.849 319.575C228.413 236.891 228.413 236.891 228.413 236.891L250.118 245.406Z" fill="#FF7E6E"/>
<path d="M278.748 245.406L256.688 245.516C256.688 245.516 256.688 245.525 257.086 264.265C263.649 265.838 271.078 267.05 279.474 267.717L278.748 245.406Z" fill="#0F1201"/>
<path d="M227.396 252.006C232.817 255.549 239.854 259.1 248.87 261.98L250.118 245.406L228.413 236.89C228.413 236.89 228.412 236.898 227.396 252.006Z" fill="#0F1201"/>
<path d="M241.891 128.655L211.117 236.018C211.117 236.018 246.586 270.791 299.441 244.016C274.482 128.655 274.482 128.655 274.482 128.655L250.118 129.959L241.891 128.655Z" fill="#5A5A66"/>
<path d="M283.865 33.0801C283.865 33.0801 279.669 24.5951 266.605 25.9861C253.541 27.3771 244.525 44.5461 245.195 61.2541C245.865 77.9621 256.447 92.4031 256.447 92.4031L288.661 84.1631C288.661 84.1631 295.368 69.1441 288.661 56.9501C281.954 44.7561 282.648 35.7221 282.648 35.7221L283.865 33.0801Z" fill="#1C2F36"/>
<path d="M252.585 65.2803C252.585 65.2803 241.272 66.6713 232.553 76.7553C223.835 86.8393 208.058 103.697 208.058 103.697L183.437 77.6413C181.157 75.2283 177.684 73.8213 174.01 73.8213H152.491C151.079 73.8213 149.935 74.7803 149.935 75.9623V76.0053C149.935 77.1873 151.079 78.1463 152.491 78.1463H160.729C160.729 78.1463 161.559 88.4283 165.296 90.1663C169.033 91.9053 174.43 92.9483 174.43 92.9483L197.63 118.646C202.444 124.669 212.798 125.167 218.405 119.646L245.008 93.4463L252.585 65.2803Z" fill="#FF7E6E"/>
<path d="M264.145 46.9567L261.865 66.6397L270.625 67.7197L271.345 55.4627L267.265 46.1807L264.145 46.9567Z" fill="#FF7E6E"/>
<path d="M265.37 46.6516L265.517 47.7896C265.517 47.7896 265.889 58.1086 270.85 63.9026L271.346 55.4636L267.266 46.1816L265.37 46.6516Z" fill="#0F1201"/>
<path d="M265.146 43.8002C265.146 43.8002 265.146 57.8802 274.266 61.2402C276.346 61.7202 284.186 49.8802 285.146 42.0402C286.106 34.2002 283.865 33.0802 283.865 33.0802C283.865 33.0802 270.426 29.4002 265.146 43.8002Z" fill="#FF7E6E"/>
<path d="M266.567 45.2117C266.652 47.0457 265.234 48.6017 263.399 48.6867C261.565 48.7717 260.009 47.3537 259.924 45.5187C259.839 43.6847 261.257 42.1287 263.092 42.0437C264.926 41.9587 266.482 43.3767 266.567 45.2117Z" fill="#FF7E6E"/>
<path d="M275.754 48.1785C275.754 48.1785 275.041 46.3965 272.404 45.8975" stroke="#700B00" stroke-width="0.9332" stroke-miterlimit="10" stroke-linecap="round"/>
<path d="M280.316 49.3891C280.316 49.3891 281.489 49.2341 282.648 49.9891" stroke="#700B00" stroke-width="0.9332" stroke-miterlimit="10" stroke-linecap="round"/>
<path d="M278.749 51.3848L278.249 53.3798L276.396 52.3828" stroke="#700B00" stroke-width="0.384" stroke-miterlimit="10"/>
<path d="M272.12 52.3828L277.572 55.0908C277.572 55.0908 274.115 56.9438 272.12 52.3828Z" fill="white"/>
<path d="M245.008 93.4471L246.811 86.7431L247.642 74.498C247.642 74.498 239.259 82.9031 239.191 99.1761L245.008 93.4471Z" fill="#0F1201"/>
<path d="M277.252 43.6884C277.252 43.6884 276.254 41.7644 273.047 42.4764" stroke="#700B00" stroke-width="0.384" stroke-miterlimit="10"/>
<path d="M281.956 44.7568C281.956 44.7568 283.66 44.7548 284.162 46.1808" stroke="#700B00" stroke-width="0.384" stroke-miterlimit="10"/>
<path d="M285.319 40.1522C285.722 34.0302 283.865 33.0802 283.865 33.0802C283.865 33.0802 270.426 29.4002 265.146 43.8002C271.862 36.2502 281.896 38.9302 285.319 40.1522Z" fill="white"/>
<path d="M267.986 63.4795L280.981 67.6275C280.981 67.6275 274.735 106.225 274.484 128.654C258.063 135.174 250.499 134.131 241.893 128.654C244.762 103.096 244.762 103.096 244.762 103.096C244.762 103.096 239.024 91.6215 244.24 81.1895C249.456 70.7575 252.586 65.2805 252.586 65.2805L267.986 63.4795Z" fill="#1D5620"/>
<path d="M280.981 67.627C280.981 67.627 286.229 68.4089 293.009 80.4059C297.595 88.5199 307.668 108.443 313.709 120.491C316.351 125.76 313.992 132.16 308.566 134.462L271.232 150.301V154.213C271.232 154.213 277.667 153.691 275.036 157.082C272.561 160.272 265.21 162.769 259.81 158.927C259.174 158.475 258.746 157.778 258.598 157.012C256.494 146.137 256.561 142.392 262.429 139.869C268.493 137.261 297.181 122.917 297.181 122.917L277.65 89.5349L271.232 91.3609L280.981 67.627Z" fill="#FF7E6E"/>
<path opacity="0.5" d="M183.438 77.6423C181.158 75.2293 177.685 73.8223 174.011 73.8223H162.463C163.43 75.8033 165.938 79.0023 172.318 80.2973C181.856 82.2323 189.413 93.8993 196.411 101.502C203.409 109.105 209.287 111.624 213.486 108.825C211.044 106.48 209.308 104.79 208.125 103.629C208.085 103.671 208.059 103.699 208.059 103.699L183.438 77.6423Z" fill="white"/>
<path d="M267.986 63.4795L256.785 64.7895C255.035 69.0755 250.066 82.5265 255.976 84.0585C261.612 85.5195 271.51 71.4665 275.239 65.7955L267.986 63.4795Z" fill="#FF7E6E"/>
<path d="M255.454 117.179C250.76 113.006 244.761 103.096 244.761 103.096C244.761 103.096 244.76 103.107 243.79 111.75C248.788 118.196 259.801 121.043 255.454 117.179Z" fill="#48814B"/>
<path d="M274.483 128.655C274.501 127.042 274.553 125.337 274.629 123.577C269.908 126.07 257.608 130.965 242.327 124.783C242.19 126.008 242.046 127.288 241.892 128.655C250.499 134.131 258.062 135.175 274.483 128.655Z" fill="#FF7E6E"/>
<path opacity="0.49" d="M308.136 128.965C308.136 130.805 308.639 132.523 309.503 134.005C314.255 131.398 316.193 125.446 313.709 120.491C313.642 120.358 313.572 120.219 313.505 120.084C310.314 121.765 308.136 125.108 308.136 128.965Z" fill="#CD2E2B"/>
<path opacity="0.49" d="M217.084 120.761C214.98 118.311 211.555 116.71 207.676 116.71C204.199 116.71 201.088 117.998 198.963 120.029C203.739 124.32 211.817 124.666 217.084 120.761Z" fill="#CD2E2B"/>
<path d="M208.059 103.698L213.095 108.448" stroke="#7B3C38" stroke-width="0.4096" stroke-miterlimit="10" stroke-linecap="round"/>
<path d="M297.182 122.917L305.006 118.931" stroke="#7B3C38" stroke-width="0.4096" stroke-miterlimit="10" stroke-linecap="round"/>
<path d="M280.98 67.6268L277.877 66.6357C274.45 72.1917 262.631 93.7168 275.81 107.476C277.713 87.8168 280.98 67.6268 280.98 67.6268Z" fill="#FF7E6E"/>
<path d="M255.976 84.0579L257.339 80.2959" stroke="#7B3C38" stroke-width="0.4096" stroke-miterlimit="10" stroke-linecap="round"/>
<path d="M261.865 43.7998L263.398 48.6868" stroke="#7B3C38" stroke-width="0.4096" stroke-miterlimit="10" stroke-linecap="round"/>
<path opacity="0.5" d="M293.008 80.407C288.802 72.967 285.188 69.842 283.048 68.54C281.449 70.802 280.496 75.51 286.065 84.828C295.22 100.146 314.071 125.951 308.565 134.463C313.991 132.161 316.35 125.762 313.708 120.492C307.668 108.444 297.594 88.52 293.008 80.407Z" fill="white"/>
<path d="M277.816 89.8167L274.63 85.1797C274.63 85.1797 274.928 90.5097 277.247 94.3867L277.816 89.8167Z" fill="#0F1201"/>
<path d="M253.428 322.818C250.2 326.029 250.118 329.383 250.118 329.383H281.482L281.204 320.854C266.345 327.031 256.975 324.379 253.428 322.818Z" fill="#1D5620"/>
<path d="M216.069 322.479C212.425 325.405 211.117 329.383 211.117 329.383H243.789L244.399 321.286C228.439 327.351 219.759 324.597 216.069 322.479Z" fill="#1D5620"/>
<path d="M235.366 312.565C235.366 312.565 235.366 317.84 242.148 316.584" stroke="#7B3C38" stroke-width="0.4096" stroke-miterlimit="10" stroke-linecap="round"/>
<path d="M271.473 312.565C271.473 312.565 271.473 317.84 278.255 316.584" stroke="#7B3C38" stroke-width="0.4096" stroke-miterlimit="10" stroke-linecap="round"/>
<path d="M298.911 163.584C289.595 164.156 280.846 166.188 273.063 169.345C271.596 169.94 270.739 171.475 270.97 173.041L275.868 206.24C276.262 208.91 278.634 210.835 281.329 210.669L323.962 208.049C326.656 207.884 328.775 205.683 328.839 202.985L329.62 170.068C329.657 168.517 328.659 167.12 327.172 166.678C318.564 164.117 308.961 162.967 298.911 163.584Z" fill="#2E7D32"/>
<path d="M271.13 174.123C271.341 173.001 272.099 172.023 273.2 171.576C280.983 168.419 289.732 166.387 299.048 165.815C309.098 165.197 318.701 166.348 327.308 168.908C328.418 169.238 329.255 170.101 329.593 171.162L329.619 170.067C329.656 168.516 328.658 167.119 327.171 166.677C318.564 164.117 308.961 162.966 298.911 163.584C289.595 164.156 280.846 166.188 273.063 169.345C271.596 169.94 270.739 171.475 270.97 173.041L271.13 174.123Z" fill="#2F2F35"/>
<path d="M274.651 176.556C274.765 178.416 273.35 180.016 271.491 180.13C269.631 180.244 268.031 178.829 267.917 176.97C267.803 175.11 269.218 173.51 271.077 173.396C272.936 173.281 274.537 174.696 274.651 176.556Z" stroke="#2F2F35" stroke-width="1.4339" stroke-miterlimit="10"/>
<path d="M323.315 181.52L279.118 184.234L279.196 185.497L323.393 182.783L323.315 181.52Z" fill="#2F2F35"/>
<path d="M281.176 187.048C281.233 187.974 280.528 188.771 279.603 188.827C278.677 188.884 277.88 188.18 277.824 187.254C277.767 186.328 278.472 185.531 279.397 185.475C280.323 185.418 281.119 186.122 281.176 187.048Z" stroke="#2F2F35" stroke-width="1.4339" stroke-miterlimit="10"/>
<path d="M286.161 176.328C286.256 177.881 285.075 179.217 283.522 179.312C281.969 179.407 280.633 178.226 280.538 176.673L280.304 172.857C280.209 171.304 281.39 169.968 282.943 169.873C284.496 169.778 285.832 170.959 285.927 172.512L286.161 176.328Z" fill="#2F2F35"/>
<path d="M313.124 174.671C313.219 176.224 314.556 177.405 316.108 177.31C317.661 177.215 318.842 175.878 318.747 174.326L318.513 170.51C318.418 168.957 317.082 167.776 315.529 167.871C313.976 167.966 312.795 169.303 312.89 170.855L313.124 174.671Z" fill="#2F2F35"/>
<path d="M298.911 163.584C289.595 164.156 280.846 166.188 273.063 169.345C271.596 169.94 270.739 171.475 270.97 173.041L275.868 206.24C276.262 208.91 278.634 210.835 281.329 210.669L323.962 208.049C326.656 207.884 328.775 205.683 328.839 202.985L329.62 170.068C329.657 168.517 328.659 167.12 327.172 166.678C318.564 164.117 308.961 162.967 298.911 163.584Z" fill="#2E7D32"/>
<path d="M271.13 174.123C271.341 173.001 272.099 172.023 273.2 171.576C280.983 168.419 289.732 166.387 299.048 165.815C309.098 165.197 318.701 166.348 327.308 168.908C328.418 169.238 329.255 170.101 329.593 171.162L329.619 170.067C329.656 168.516 328.658 167.119 327.171 166.677C318.564 164.117 308.961 162.966 298.911 163.584C289.595 164.156 280.846 166.188 273.063 169.345C271.596 169.94 270.739 171.475 270.97 173.041L271.13 174.123Z" fill="#2F2F35"/>
<path d="M274.651 176.556C274.765 178.416 273.35 180.016 271.491 180.13C269.631 180.244 268.031 178.829 267.917 176.97C267.803 175.11 269.218 173.51 271.077 173.396C272.936 173.281 274.537 174.696 274.651 176.556Z" stroke="#2F2F35" stroke-width="1.4339" stroke-miterlimit="10"/>
<path d="M323.315 181.52L279.118 184.234L279.196 185.497L323.393 182.783L323.315 181.52Z" fill="#2F2F35"/>
<path d="M281.176 187.048C281.233 187.974 280.528 188.771 279.603 188.827C278.677 188.884 277.88 188.18 277.824 187.254C277.767 186.328 278.472 185.531 279.397 185.475C280.323 185.418 281.119 186.122 281.176 187.048Z" stroke="#2F2F35" stroke-width="1.4339" stroke-miterlimit="10"/>
<path d="M286.161 176.328C286.256 177.881 285.075 179.217 283.522 179.312C281.969 179.407 280.633 178.226 280.538 176.673L280.304 172.857C280.209 171.304 281.39 169.968 282.943 169.873C284.496 169.778 285.832 170.959 285.927 172.512L286.161 176.328Z" fill="#2F2F35"/>
<path d="M313.124 174.671C313.219 176.224 314.556 177.405 316.108 177.31C317.661 177.215 318.842 175.878 318.747 174.326L318.513 170.51C318.418 168.957 317.082 167.776 315.529 167.871C313.976 167.966 312.795 169.303 312.89 170.855L313.124 174.671Z" fill="#2F2F35"/>
<path d="M283.183 173.797C283.183 173.797 279.335 123.259 297.258 122.157C315.181 121.056 315.769 171.794 315.769 171.794" stroke="#2E7D32" stroke-width="2.8678" stroke-miterlimit="10" stroke-linecap="round"/>
<path d="M277.819 132.511L294.647 124.181L299.302 138.392L279.499 146.794L277.819 132.511Z" fill="#FF7E6E"/>
<path d="M330.422 154.575L336.003 143.892C336.368 143.193 337.305 143.046 337.867 143.6L341.315 147.002C341.829 147.509 341.768 148.356 341.186 148.783L331.749 155.713C330.982 156.275 329.983 155.417 330.422 154.575Z" fill="#A9A7AA"/>
<path d="M340.071 172.444L351.566 166.422C352.151 166.115 352.866 166.462 352.987 167.111L353.969 172.346C354.081 172.94 353.634 173.493 353.03 173.509L340.436 173.844C339.649 173.865 339.374 172.809 340.071 172.444Z" fill="#A9A7AA"/>
<path d="M339.99 189.252L353.89 191.607C354.465 191.704 354.782 192.33 354.52 192.851L352.001 197.872C351.762 198.349 351.153 198.499 350.719 198.187L339.6 190.185C339.155 189.863 339.448 189.161 339.99 189.252Z" fill="#A9A7AA"/>
<path d="M267.909 137.326C267.909 137.326 277.364 136.97 276.166 148.208C277.935 147.457 278.499 147.218 278.499 147.218C278.499 147.218 279.387 135.637 270.932 135.488C267.909 136.154 267.909 137.326 267.909 137.326Z" fill="#2E7D32"/>
<path opacity="0.49" d="M270.581 158.47C268.9 158.83 267.04 150.727 266.079 147.246C265.454 144.982 261.075 143.962 258.089 143.526C256.816 146.195 257.282 150.208 258.598 157.013C258.746 157.779 259.175 158.475 259.81 158.928C263.957 161.879 269.248 161.085 272.604 159.115C272.027 158.666 271.31 158.314 270.581 158.47Z" fill="#CD2E2B"/>
<path opacity="0.5" d="M329.194 188.005C312.45 190.356 300.757 205.549 297.878 209.652L323.962 208.049C326.656 207.883 328.775 205.683 328.839 202.985L329.194 188.005Z" fill="white"/>
<path opacity="0.5" d="M222.849 319.574C213.93 320.788 211.117 329.383 211.117 329.383H221.301C223.645 326.387 227.516 323.478 233.473 320.854C235.972 303.825 229.969 277.316 226.567 264.312C225.747 276.507 224.562 294.118 222.849 319.574Z" fill="white"/>
<path opacity="0.5" d="M265.8 321.286C268.653 297.998 259.451 274.265 257.183 268.865C257.416 279.822 257.757 295.914 258.259 319.575C250.247 323.185 250.117 329.383 250.117 329.383H259.183C260.682 326.018 262.871 322.516 265.8 321.286Z" fill="white"/>
<path d="M218.969 242.019C222.854 244.539 228.106 247.413 234.551 249.733C236.729 238.812 239.698 222.941 242.149 206.24C246.609 175.85 247.851 148.72 241.892 163.421C237.085 175.28 223.891 223.73 218.969 242.019Z" fill="#2F2F35"/>
<path opacity="0.5" d="M266.606 25.9861C257.562 26.9491 250.461 35.4751 247.168 46.1741C256.373 27.9381 275.24 33.3741 275.24 33.3741L278.75 35.9391L283.004 34.9561L283.867 33.0811C283.867 33.0811 279.67 24.5951 266.606 25.9861Z" fill="white"/>
<path d="M285.33 40.086C285.33 40.086 276.456 42.155 267.301 41.794C270.444 39.229 275.71 37.296 285.33 40.086Z" fill="#1C2F36"/>
<path opacity="0.5" d="M285.19 35.9395L271.346 38.2305C271.346 38.2305 267.681 47.3415 271.346 59.5945C272.198 60.2695 273.164 60.8344 274.266 61.2404C276.346 61.7204 284.186 49.8805 285.146 42.0405C285.491 39.2205 285.419 37.2805 285.19 35.9395Z" fill="white"/>
</svg>
