<svg width="339" height="310" viewBox="0 0 339 310" fill="none" xmlns="http://www.w3.org/2000/svg">
<path d="M338.984 307.108C338.984 312.298 263.1 316.504 169.492 316.504C75.8849 316.504 0.000488281 312.298 0.000488281 307.108C0.000488281 301.918 75.8841 297.711 169.492 297.711C263.1 297.711 338.984 301.918 338.984 307.108Z" fill="#FBDED3"/>
<path d="M66.9297 239.018C66.936 238.883 67.6398 225.477 72.7385 221.118C73.9271 220.102 75.2267 219.687 76.7152 219.847C85.4416 220.792 85.6677 238.907 85.6685 239.089L87.2633 239.079C87.2578 238.274 87.0197 219.359 76.8866 218.262C74.9657 218.052 73.2201 218.607 71.7007 219.907C66.0799 224.714 65.3642 238.363 65.3364 238.942L66.9297 239.018Z" fill="#ED3915"/>
<path d="M90.6096 237.437L52.0664 237.276L44.3311 304.471L98.5917 304.698L90.6096 237.437Z" fill="#FFDFA4"/>
<path d="M72.921 281.462C79.8114 281.462 85.3971 275.876 85.3971 268.986C85.3971 262.096 79.8114 256.51 72.921 256.51C66.0306 256.51 60.4448 262.096 60.4448 268.986C60.4448 275.876 66.0306 281.462 72.921 281.462Z" fill="#ED3915"/>
<path d="M63.5473 238.466C63.5537 238.331 64.2575 224.925 69.3562 220.566C70.5447 219.55 71.8444 219.135 73.3329 219.294C82.0592 220.239 82.2854 238.354 82.2862 238.537L83.881 238.527C83.8754 237.722 83.6374 218.806 73.5043 217.709C71.5826 217.5 69.8378 218.054 68.3183 219.354C62.6976 224.161 61.9819 237.81 61.9541 238.389L63.5473 238.466Z" fill="#FFDFA4"/>
<path d="M98.5915 304.697L102.948 299.821L94.1973 240.285L90.6094 237.437L98.5915 304.697Z" fill="#ED3915"/>
<path d="M39.3305 241.499C39.3369 241.364 40.0407 227.958 45.1394 223.599C46.3279 222.584 47.6284 222.169 49.1161 222.328C57.8424 223.273 58.0686 241.388 58.0694 241.571L59.6642 241.56C59.6586 240.756 59.4206 221.84 49.2875 220.744C47.3666 220.533 45.621 221.089 44.1015 222.388C38.4808 227.195 37.7651 240.845 37.7373 241.423L39.3305 241.499Z" fill="#FDC500"/>
<path d="M63.0119 239.918L24.4679 239.757L16.7334 306.951L70.994 307.178L63.0119 239.918Z" fill="#C3810C"/>
<path d="M46.9189 283.594C53.2952 280.982 56.3473 273.696 53.7358 267.32C51.1244 260.944 43.8383 257.892 37.4619 260.503C31.0856 263.114 28.0335 270.401 30.645 276.777C33.2564 283.153 40.5425 286.205 46.9189 283.594Z" fill="#FDC500"/>
<path d="M35.9526 240.947C35.959 240.812 36.6628 227.406 41.7614 223.047C42.9492 222.032 44.2489 221.617 45.7382 221.776C54.4653 222.721 54.6906 240.836 54.6914 241.019L56.2863 241.008C56.2815 240.204 56.0427 221.288 45.9096 220.192C43.9878 219.982 42.2431 220.537 40.7236 221.836C35.1028 226.643 34.3871 240.293 34.3594 240.871L35.9526 240.947Z" fill="#C3810C"/>
<path d="M70.9938 307.178L75.3506 302.303L66.5989 242.766L63.0117 239.918L70.9938 307.178Z" fill="#FDC500"/>
<path d="M247.491 44.7869V291.98C247.491 299.728 241.211 306.008 233.463 306.008H110.365C106.472 306.008 102.952 304.424 100.41 301.865C97.8929 299.327 96.3369 295.835 96.3369 291.98V44.7869C96.3369 37.0381 102.616 30.7588 110.365 30.7588H233.462C235.753 30.7588 237.915 31.3071 239.825 32.2822C244.377 34.6007 247.491 39.3288 247.491 44.7869Z" fill="#133643"/>
<path d="M247.49 44.7869V291.98C247.49 299.728 241.211 306.008 233.462 306.008H110.365C106.471 306.008 102.951 304.424 100.409 301.865L239.825 32.2822C244.376 34.6007 247.49 39.3288 247.49 44.7869Z" fill="#000B17"/>
<path d="M96.3363 107.881H95.7047C93.2196 107.881 91.2051 105.867 91.2051 103.381V79.7242C91.2051 77.2392 93.2196 75.2246 95.7047 75.2246H96.3363V107.881Z" fill="#000B17"/>
<path d="M247.491 99.3377H248.008C250.042 99.3377 251.69 97.6889 251.69 95.6561V76.4277C251.69 74.3941 250.041 72.7461 248.008 72.7461H247.491V99.3377Z" fill="#000B17"/>
<path d="M96.3363 144.97H95.7047C93.2196 144.97 91.2051 142.956 91.2051 140.471V116.814C91.2051 114.329 93.2196 112.314 95.7047 112.314H96.3363V144.97Z" fill="#000B17"/>
<path d="M240.49 43.9368V292.825C240.49 296.245 237.721 299.006 234.309 299.006H109.516C106.961 299.006 104.771 297.459 103.827 295.245C103.51 294.499 103.335 293.682 103.335 292.825V43.9368C103.335 40.525 106.104 37.7559 109.516 37.7559H234.309C235.174 37.7559 235.991 37.9304 236.737 38.2478C238.943 39.1999 240.49 41.3898 240.49 43.9368Z" fill="white"/>
<path d="M162.297 150.705H117.003C112.618 150.705 109.063 147.151 109.063 142.765V97.4713C109.063 93.0859 112.618 89.5312 117.003 89.5312H162.297C166.682 89.5312 170.237 93.0859 170.237 97.4713V142.765C170.237 147.151 166.682 150.705 162.297 150.705Z" fill="#DAE0DA"/>
<path d="M149.144 110.325C149.144 110.325 146.48 106.474 144.254 106.558C142.029 106.641 124.433 119.662 118.528 120.582C112.623 121.503 113.612 125.862 114.61 128.106C115.609 130.351 161.437 128.897 161.437 128.897C161.437 128.897 163.164 115.331 161.816 111.116C160.466 106.902 153.698 111.469 149.144 110.325Z" fill="#FFDFA4"/>
<path d="M139.35 119.497C139.555 119.566 139.788 119.555 139.995 119.446C140.397 119.235 140.552 118.738 140.341 118.337C140.27 118.202 138.587 115.028 136.217 113.73C133.065 111.999 130.501 113.725 130.393 113.8C130.019 114.058 129.925 114.569 130.183 114.943C130.44 115.317 130.953 115.41 131.327 115.153C131.397 115.106 133.182 113.943 135.427 115.172C137.358 116.231 138.87 119.073 138.885 119.102C138.987 119.295 139.156 119.432 139.35 119.497Z" fill="white"/>
<path d="M141.879 117.268C142.084 117.337 142.317 117.326 142.524 117.217C142.927 117.006 143.081 116.509 142.871 116.107C142.801 115.972 141.117 112.798 138.748 111.499C135.593 109.766 133.031 111.494 132.923 111.569C132.549 111.826 132.456 112.339 132.713 112.712C132.971 113.086 133.483 113.181 133.857 112.921C133.927 112.875 135.712 111.712 137.957 112.941C139.895 114.004 141.399 116.842 141.414 116.871C141.516 117.065 141.686 117.203 141.879 117.268Z" fill="white"/>
<path d="M135.961 121.26C136.167 121.329 136.399 121.318 136.606 121.209C137.009 120.998 137.163 120.501 136.953 120.099C136.883 119.965 135.199 116.791 132.83 115.491C129.676 113.759 127.113 115.486 127.005 115.561C126.631 115.819 126.538 116.331 126.796 116.705C127.053 117.078 127.566 117.173 127.94 116.914C128.01 116.868 129.796 115.705 132.039 116.934C133.979 117.997 135.482 120.835 135.497 120.863C135.599 121.058 135.769 121.195 135.961 121.26Z" fill="white"/>
<path d="M226.992 150.705H181.698C177.313 150.705 173.758 147.151 173.758 142.765V97.4713C173.758 93.0859 177.313 89.5312 181.698 89.5312H226.992C231.378 89.5312 234.932 93.0859 234.932 97.4713V142.765C234.932 147.151 231.378 150.705 226.992 150.705Z" fill="#DAE0DA"/>
<path d="M226.45 113.514H218.167V140.873H190.395L190.482 113.514H182.241C183.886 108.071 186.911 104.212 188.815 102.188C189.8 101.141 191.173 100.553 192.61 100.553H197.997C197.997 104.023 200.813 106.836 204.282 106.836C207.752 106.836 210.565 104.023 210.565 100.553H216.081C217.518 100.553 218.891 101.141 219.876 102.188C221.779 104.212 224.805 108.071 226.45 113.514Z" fill="#C3810C"/>
<path d="M162.297 280.137H117.003C112.618 280.137 109.063 276.582 109.063 272.197V226.903C109.063 222.518 112.618 218.963 117.003 218.963H162.297C166.682 218.963 170.237 222.518 170.237 226.903V272.197C170.237 276.581 166.682 280.137 162.297 280.137Z" fill="#DAE0DA"/>
<path d="M226.992 280.137H181.698C177.313 280.137 173.758 276.582 173.758 272.197V226.903C173.758 222.518 177.313 218.963 181.698 218.963H226.992C231.378 218.963 234.932 222.518 234.932 226.903V272.197C234.932 276.581 231.378 280.137 226.992 280.137Z" fill="#DAE0DA"/>
<path d="M231.135 79.5691H112.86C110.763 79.5691 109.063 77.8687 109.063 75.7725V65.5418C109.063 63.4447 110.763 61.7451 112.86 61.7451H231.135C233.233 61.7451 234.932 63.4455 234.932 65.5418V75.7725C234.932 77.8687 233.233 79.5691 231.135 79.5691Z" fill="#DAE0DA"/>
<path d="M233.43 167.718H110.565C109.735 167.718 109.063 167.045 109.063 166.216V161.449C109.063 160.619 109.736 159.947 110.565 159.947H233.43C234.26 159.947 234.932 160.62 234.932 161.449V166.216C234.932 167.045 234.259 167.718 233.43 167.718Z" fill="#DAE0DA"/>
<path d="M233.43 184.552H110.565C109.735 184.552 109.063 183.879 109.063 183.05V178.283C109.063 177.453 109.736 176.781 110.565 176.781H233.43C234.26 176.781 234.932 177.454 234.932 178.283V183.05C234.932 183.88 234.259 184.552 233.43 184.552Z" fill="#DAE0DA"/>
<path d="M233.43 201.386H110.565C109.735 201.386 109.063 200.713 109.063 199.884V195.117C109.063 194.287 109.736 193.615 110.565 193.615H233.43C234.26 193.615 234.932 194.288 234.932 195.117V199.884C234.932 200.713 234.259 201.386 233.43 201.386Z" fill="#DAE0DA"/>
<path d="M208.1 50.1193H135.73C132.298 50.1193 129.491 47.3121 129.491 43.8805V42.1285C129.491 38.6969 132.298 35.8896 135.73 35.8896H208.1C211.53 35.8896 214.338 38.6969 214.338 42.1285V43.8805C214.338 47.3113 211.53 50.1193 208.1 50.1193Z" fill="#133643"/>
<path d="M192.281 43.8206H144.498C143.654 43.8206 142.964 43.1303 142.964 42.2868V41.856C142.964 41.0126 143.654 40.3223 144.498 40.3223H192.281C193.124 40.3223 193.815 41.0126 193.815 41.856V42.2868C193.815 43.1303 193.125 43.8206 192.281 43.8206Z" fill="#000B17"/>
<path d="M206.203 41.9549C206.203 43.1142 205.263 44.0544 204.104 44.0544C202.945 44.0544 202.004 43.1142 202.004 41.9549C202.004 40.7957 202.945 39.8555 204.104 39.8555C205.263 39.8555 206.203 40.7957 206.203 41.9549Z" fill="#335464"/>
<path opacity="0.3" d="M240.489 43.9371V292.825C240.489 296.245 237.72 299.006 234.308 299.006H109.515C106.96 299.006 104.77 297.459 103.826 295.245L236.736 38.248C238.942 39.2002 240.489 41.3901 240.489 43.9371Z" fill="white"/>
<path d="M241.617 88.7229L252.667 113.912C253.383 115.546 255.289 116.29 256.923 115.573L282.112 104.524C283.746 103.807 284.489 101.901 283.773 100.268L272.723 75.078C272.007 73.4443 270.101 72.7009 268.467 73.4173L243.278 84.4669C241.643 85.1841 240.9 87.0892 241.617 88.7229ZM258.415 83.8646C257.406 84.5787 256.017 84.0178 255.797 82.7855C255.689 82.1754 255.959 81.5264 256.465 81.1685C257.474 80.4544 258.863 81.0154 259.082 82.2476C259.191 82.8578 258.921 83.5068 258.415 83.8646Z" fill="#C3810C"/>
<path d="M251.235 95.096C250.021 92.3284 251.113 89.96 253.479 88.9214C255.846 87.8835 258.326 88.6849 259.54 91.4525C260.765 94.2438 259.665 96.5892 257.298 97.6271C254.932 98.6657 252.46 97.8873 251.235 95.096ZM262.752 85.12L266.525 83.4648L262.709 103.772L258.936 105.427L262.752 85.12ZM256.371 92.8434C255.714 91.3485 255.028 91.1168 254.537 91.3319C254.046 91.5469 253.75 92.2102 254.405 93.7059C255.061 95.2015 255.75 95.4324 256.24 95.2166C256.732 95.0008 257.027 94.339 256.371 92.8434ZM265.921 97.439C264.707 94.6707 265.796 92.3022 268.163 91.2644C270.53 90.2266 273.01 91.028 274.224 93.7971C275.447 96.5877 274.349 98.9339 271.982 99.9717C269.615 101.01 267.145 100.23 265.921 97.439ZM271.054 95.1872C270.398 93.6916 269.712 93.4599 269.22 93.6757C268.73 93.8907 268.435 94.5525 269.091 96.0481C269.747 97.5438 270.434 97.7754 270.925 97.5596C271.415 97.3446 271.71 96.6837 271.054 95.1872Z" fill="white"/>
<path d="M259.41 69.9762C257.714 61.9862 253.389 52.8886 247.837 45.6397C247.724 45.4905 247.607 45.3405 247.488 45.1898V46.6053C253.252 54.2755 257.145 63.2129 258.614 70.1452C259.22 73.004 259.42 75.4994 259.231 77.4688C259.085 78.9787 258.711 80.18 258.117 80.9988C257.887 81.3138 257.627 81.5725 257.333 81.7708C256.896 82.0652 256.383 82.2279 255.799 82.2604C255.757 82.5286 255.779 82.8094 255.878 83.0816C256.59 83.0348 257.227 82.8213 257.788 82.4445C258.154 82.1993 258.475 81.8819 258.755 81.5003C259.508 80.4783 259.952 78.9827 260.076 77.099C260.21 75.1217 259.99 72.716 259.41 69.9762ZM247.488 77.3775C239.028 66.9088 227.118 36.1064 225.089 30.7594C225.074 30.7189 225.059 30.6816 225.045 30.6435C225.223 30.6808 225.401 30.7181 225.578 30.7594H228.584C227.266 30.3158 225.897 29.9596 224.48 29.7096C224.336 29.6835 224.189 29.7374 224.097 29.8493C224.002 29.9612 223.976 30.1143 224.029 30.2508C224.059 30.3349 224.125 30.5078 224.219 30.7594C226.002 35.4939 238.616 68.4965 247.489 78.6343C248.317 79.5801 249.111 80.3268 249.862 80.8322C250.095 80.9901 250.324 81.1377 250.549 81.2773L251.463 80.8774C251.092 80.6648 250.711 80.4235 250.317 80.1593C249.435 79.5658 248.486 78.6129 247.488 77.3775Z" fill="#000B17"/>
<path d="M284.92 292.784L284.09 300.205C284.09 300.205 281.666 301.597 277.841 300.835L278.647 292.157L284.92 292.784Z" fill="#FFAA95"/>
<path d="M279.65 299.992C279.65 299.992 278.432 298.232 277.416 298.27C276.4 298.308 268.36 304.258 265.661 304.678C262.963 305.099 263.415 307.09 263.871 308.116C264.327 309.142 285.268 308.477 285.268 308.477C285.268 308.477 286.057 302.278 285.441 300.352C284.823 298.428 281.731 300.514 279.65 299.992Z" fill="#FFDFA4"/>
<path d="M275.173 304.181C275.267 304.213 275.373 304.207 275.468 304.158C275.652 304.061 275.722 303.835 275.626 303.651C275.594 303.589 274.825 302.14 273.742 301.546C272.302 300.755 271.13 301.544 271.081 301.578C270.91 301.695 270.867 301.929 270.985 302.101C271.102 302.271 271.336 302.314 271.508 302.196C271.539 302.175 272.355 301.643 273.381 302.205C274.263 302.688 274.954 303.987 274.961 304C275.007 304.089 275.085 304.152 275.173 304.181Z" fill="white"/>
<path d="M276.329 303.164C276.423 303.196 276.529 303.19 276.624 303.141C276.808 303.044 276.878 302.817 276.782 302.634C276.75 302.572 275.981 301.123 274.898 300.529C273.456 299.737 272.286 300.527 272.237 300.561C272.066 300.678 272.023 300.912 272.142 301.084C272.259 301.254 272.493 301.298 272.664 301.179C272.696 301.157 273.512 300.626 274.538 301.188C275.423 301.673 276.11 302.97 276.118 302.983C276.164 303.072 276.241 303.134 276.329 303.164Z" fill="white"/>
<path d="M273.628 304.988C273.722 305.02 273.828 305.014 273.922 304.965C274.106 304.868 274.177 304.642 274.08 304.458C274.048 304.397 273.279 302.947 272.196 302.353C270.754 301.561 269.584 302.351 269.535 302.385C269.364 302.502 269.321 302.736 269.439 302.908C269.557 303.078 269.792 303.121 269.962 303.003C269.994 302.982 270.81 302.451 271.836 303.012C272.722 303.497 273.409 304.794 273.415 304.807C273.462 304.895 273.539 304.958 273.628 304.988Z" fill="white"/>
<path d="M272.029 156.485C271.535 158.189 271.026 159.927 270.514 161.64C269.857 163.848 269.201 166.011 268.578 168.005C267.699 170.813 266.888 173.28 266.235 175.044C264.036 180.985 256.72 194.307 253.609 199.589L248.483 197.901C250.839 193.453 256.447 174.444 259.149 170.083L260.777 164.248L262.046 159.695L262.943 156.485H272.029Z" fill="#FFAA95"/>
<path d="M244.015 207.359C243.535 207.754 242.829 207.822 242.269 207.45C241.685 207.063 241.456 206.317 241.722 205.669L243.728 200.776C243.728 200.776 243.73 200.776 243.732 200.776C243.268 199.627 243.94 198.331 245.154 198.056L249.87 196.989C249.87 196.989 253.36 197.311 254.042 198.634C254.474 199.474 253.326 201.72 252.429 203.25C252.712 203.873 252.73 204.617 252.442 205.282L251.216 208.11C250.853 208.95 249.818 209.256 249.056 208.75C248.899 208.646 248.771 208.515 248.668 208.369L248.649 208.411C248.286 209.25 247.251 209.557 246.49 209.05C246.393 208.986 246.31 208.909 246.233 208.827C245.765 209.116 245.15 209.135 244.65 208.803C244.165 208.482 243.93 207.913 244.015 207.359Z" fill="#FFAA95"/>
<path d="M249.319 198.734C249.319 198.734 247.889 200.095 247.037 199.975C247.037 199.975 247.873 200.853 247.621 201.658C247.621 201.658 248.407 201.329 249.054 202.002C249.054 202.002 250.055 201.897 250.394 202.608C250.394 202.608 251.588 202.3 252.071 202.951C252.071 202.951 252.237 201.724 250.551 201.578C248.866 201.432 248.219 200.759 248.666 200.084C249.114 199.409 249.319 198.734 249.319 198.734Z" fill="#FF8B6B"/>
<path d="M270.514 161.64C269.857 163.848 269.202 166.012 268.578 168.006C264.87 167.61 262.304 165.771 260.777 164.248L262.046 159.695L270.514 161.64Z" fill="#FF8B6B"/>
<path d="M272.467 129.779C272.467 129.779 262.973 152.375 258.891 159.695C258.891 159.695 264.6 164.556 270.164 164.693C270.164 164.693 273.39 139.88 272.467 129.779Z" fill="#FDC500"/>
<path d="M316.529 283.028L321.338 288.742C321.338 288.742 320.677 291.458 317.489 293.706L311.754 287.143L316.529 283.028Z" fill="#FFAA95"/>
<path d="M318.123 291.814C318.123 291.814 316.008 291.484 315.335 292.248C314.662 293.011 313.436 302.937 311.881 305.183C310.327 307.429 312.082 308.474 313.141 308.849C314.198 309.225 328.143 293.589 328.143 293.589C328.143 293.589 324.194 288.747 322.373 287.867C320.552 286.987 319.935 290.666 318.123 291.814Z" fill="#FFDFA4"/>
<path d="M318.079 297.945C318.167 297.898 318.236 297.818 318.265 297.715C318.321 297.515 318.206 297.308 318.006 297.251C317.94 297.232 316.358 296.791 315.183 297.167C313.617 297.665 313.381 299.058 313.372 299.118C313.339 299.323 313.48 299.515 313.684 299.547C313.889 299.58 314.081 299.439 314.114 299.235C314.12 299.197 314.297 298.24 315.411 297.883C316.369 297.576 317.787 297.971 317.801 297.975C317.898 298.001 317.997 297.988 318.079 297.945Z" fill="white"/>
<path d="M318.137 296.405C318.224 296.359 318.294 296.278 318.324 296.175C318.381 295.976 318.265 295.768 318.065 295.711C317.998 295.692 316.417 295.251 315.241 295.626C313.674 296.125 313.44 297.518 313.43 297.577C313.398 297.782 313.538 297.975 313.743 298.007C313.948 298.039 314.141 297.899 314.172 297.693C314.179 297.655 314.356 296.698 315.47 296.342C316.432 296.035 317.845 296.43 317.859 296.434C317.955 296.461 318.055 296.448 318.137 296.405Z" fill="white"/>
<path d="M317.596 299.621C317.683 299.575 317.753 299.494 317.783 299.391C317.839 299.191 317.723 298.984 317.524 298.927C317.457 298.908 315.876 298.467 314.7 298.842C313.133 299.341 312.899 300.734 312.889 300.793C312.857 300.998 312.997 301.191 313.202 301.223C313.407 301.255 313.6 301.115 313.631 300.91C313.638 300.872 313.815 299.915 314.929 299.559C315.891 299.252 317.304 299.647 317.318 299.651C317.415 299.677 317.514 299.663 317.596 299.621Z" fill="white"/>
<path d="M289.503 204.195L293.211 244.298C293.211 244.298 298.759 250.513 302.931 258.112C306.433 264.491 317.324 283.303 317.324 283.303L312.414 287.103L278.516 254.283L270.979 203.802L289.503 204.195Z" fill="#000B17"/>
<path d="M310.588 287.625C311.095 288.899 312.042 289.765 313.15 290.493L319.704 284.959C319.154 283.796 318.402 282.792 317.471 281.927L310.588 287.625Z" fill="#133643"/>
<path d="M314.466 205.865C314.466 205.865 305.761 227.267 294.447 243.956C294.447 243.956 292.758 260.199 289.868 268.845C288.603 272.631 286.28 290.179 286.28 290.179H277.57L279.784 240.306L288.864 204.183L314.466 205.865Z" fill="#133643"/>
<path d="M276.773 289.885C276.229 291.376 276.378 292.856 276.773 294.338L286.705 294.616C287.127 293.188 287.253 291.74 287.116 290.274L276.773 289.885Z" fill="#3A555B"/>
<path d="M314.76 194.554C314.762 194.861 314.76 195.162 314.76 195.46C314.753 200.893 314.726 205.105 314.699 207.173C309.451 208.595 304.203 209.513 298.953 209.938C298.714 209.956 298.479 209.974 298.239 209.992C298.112 210 297.985 210.01 297.857 210.016C297.575 210.036 297.291 210.054 297.012 210.068C296.699 210.088 296.388 210.104 296.073 210.12C292.501 210.285 288.93 210.22 285.355 209.927C284.633 209.867 283.916 209.798 283.194 209.72C283.147 209.715 283.102 209.711 283.055 209.706C282.872 209.686 282.689 209.663 282.503 209.641C282.391 209.628 282.279 209.614 282.17 209.601C278.014 209.105 273.859 208.293 269.701 207.173C269.69 206.235 269.686 204.842 269.686 203.087C269.686 202.761 269.686 202.425 269.688 202.075V202.072C269.69 199.562 269.706 196.437 269.732 192.906C269.735 192.604 269.737 192.3 269.739 191.992C269.759 189.64 269.783 187.121 269.815 184.494C269.82 184.19 269.822 183.887 269.826 183.58C269.859 180.887 269.9 178.088 269.947 175.248C269.976 173.513 270.007 171.763 270.043 170.011C270.078 168.236 270.116 166.459 270.158 164.693C270.167 164.308 270.177 163.924 270.188 163.539C270.595 146.84 271.299 131.491 272.463 129.779C273.27 128.594 275.119 127.202 277.295 125.798C277.561 125.629 277.832 125.456 278.107 125.284C279.035 124.705 286.601 122.135 287.562 121.569L295.559 121.011C295.608 121.04 303.255 123.619 303.304 123.646C303.632 123.834 303.966 124.023 304.294 124.213C307.126 125.847 309.92 127.569 311.53 129.05C311.764 129.264 311.975 129.474 312.153 129.68C312.296 129.843 312.424 130.002 312.526 130.158C312.622 130.3 312.716 130.536 312.805 130.861C313.773 134.376 314.28 148.194 314.534 163.228C314.551 164.306 314.567 165.39 314.583 166.476C314.59 166.952 314.596 167.431 314.603 167.909C314.609 168.237 314.614 168.568 314.616 168.897C314.618 169.062 314.621 169.225 314.622 169.391C314.633 170.209 314.642 171.025 314.649 171.837C314.656 172.438 314.663 173.037 314.669 173.636C314.744 181.209 314.766 188.562 314.76 194.554Z" fill="#C3810C"/>
<path d="M329.064 216.027C329.26 218.161 326.661 217.003 327.396 212.678C328.129 208.353 326.045 204.437 325.147 204.562C324.246 204.689 325.891 209.285 325.092 210.941C324.293 212.597 323.261 209.379 322.233 207.428C321.166 205.401 321.229 200.977 321.714 197.821C322.199 194.663 316.477 175.487 316.448 169.93L315.75 167.574L313.198 158.948L309.201 145.441C309.201 145.441 311.595 135.217 315.632 136.096C315.632 136.096 317.769 143.217 320.053 151.248C320.44 152.611 320.831 154.002 321.218 155.387C322.845 161.21 324.374 166.959 325.085 170.37C326.962 179.376 327.108 198.095 327.108 198.095C327.108 198.095 330.42 204.973 330.499 208.033C330.581 211.297 328.869 213.892 329.064 216.027Z" fill="#FFAA95"/>
<path d="M321.218 155.387L315.751 167.574L313.198 158.948L320.054 151.248C320.441 152.611 320.832 154.001 321.218 155.387Z" fill="#FF8B6B"/>
<path d="M321.489 151.758C319.09 155.872 316.652 159.962 314.223 164.058C313.422 161.378 312.593 158.806 311.815 156.44C311.813 156.434 311.811 156.429 311.809 156.423C311.498 155.477 311.194 154.566 310.904 153.694C310.899 153.678 310.895 153.663 310.888 153.649C310.787 153.343 310.689 153.041 310.589 152.746V152.744C309.429 149.237 308.53 146.449 308.273 144.824C307.58 140.45 309.468 131.88 312.129 130.191C312.198 130.345 312.408 129.869 312.533 130.16C313 131.24 315.074 133.906 316.101 136.504C316.232 136.834 316.366 137.179 316.505 137.529C317.991 141.349 319.808 146.318 321.489 151.758Z" fill="#C3810C"/>
<path d="M291.917 129.007C288.454 129.007 286.012 125.848 285.911 125.713C285.765 125.521 285.792 125.24 285.971 125.084C286.151 124.928 286.413 124.957 286.559 125.149C286.591 125.19 288.864 128.113 291.917 128.113C294.935 128.113 296.775 124.805 296.793 124.771C296.91 124.557 297.166 124.485 297.364 124.61C297.563 124.734 297.632 125.007 297.516 125.22C297.432 125.376 295.421 129.007 291.917 129.007Z" fill="#FDC500"/>
<path d="M277.274 159.283C277.21 159.283 277.145 159.268 277.084 159.235C276.876 159.122 276.793 158.851 276.898 158.63L278.409 155.438C278.513 155.215 278.767 155.127 278.975 155.239C279.183 155.351 279.266 155.623 279.161 155.845L277.651 159.037C277.576 159.193 277.428 159.283 277.274 159.283Z" fill="#FDC500"/>
<path d="M274.128 156.669C274.073 156.706 274.01 156.729 273.942 156.735C273.71 156.757 273.506 156.574 273.485 156.325L273.189 152.762C273.169 152.515 273.34 152.296 273.572 152.273C273.803 152.251 274.008 152.434 274.029 152.683L274.325 156.246C274.34 156.421 274.259 156.582 274.128 156.669Z" fill="#FDC500"/>
<path d="M282.243 151.143C282.04 151.143 281.862 150.987 281.827 150.765L281.281 147.236C281.243 146.99 281.399 146.758 281.629 146.718C281.859 146.678 282.075 146.843 282.113 147.089L282.659 150.619C282.697 150.865 282.542 151.096 282.312 151.137C282.288 151.141 282.265 151.143 282.243 151.143Z" fill="#FDC500"/>
<path d="M295.811 152.458C295.738 152.458 295.664 152.438 295.596 152.395C295.396 152.268 295.33 151.992 295.449 151.778L297.152 148.7C297.271 148.486 297.529 148.414 297.73 148.541C297.931 148.668 297.997 148.944 297.878 149.159L296.174 152.237C296.096 152.379 295.955 152.458 295.811 152.458Z" fill="#FDC500"/>
<path d="M279.141 138.661C279.063 138.661 278.983 138.638 278.913 138.589L276.104 136.646C275.909 136.511 275.852 136.232 275.978 136.023C276.105 135.815 276.366 135.754 276.562 135.889L279.37 137.832C279.566 137.967 279.622 138.246 279.496 138.455C279.415 138.588 279.28 138.661 279.141 138.661Z" fill="#FDC500"/>
<path d="M291.652 167.337C291.588 167.337 291.524 167.321 291.463 167.289C291.255 167.176 291.172 166.906 291.277 166.683L292.788 163.491C292.893 163.269 293.146 163.18 293.354 163.293C293.562 163.406 293.645 163.677 293.54 163.899L292.03 167.09C291.954 167.247 291.806 167.337 291.652 167.337Z" fill="#FDC500"/>
<path d="M285.016 141.062C284.876 141.062 284.738 140.988 284.658 140.85C284.534 140.639 284.595 140.361 284.791 140.229L287.626 138.331C287.824 138.2 288.083 138.263 288.207 138.474C288.331 138.685 288.271 138.964 288.074 139.095L285.239 140.993C285.17 141.04 285.092 141.062 285.016 141.062Z" fill="#FDC500"/>
<path d="M278.274 127.791C278.281 127.878 278.264 127.963 278.226 128.034C278.161 128.166 278.034 128.261 277.883 128.272C277.651 128.289 277.451 128.102 277.434 127.854L277.3 125.799C277.566 125.63 277.835 125.457 278.111 125.285L278.274 127.791Z" fill="#FDC500"/>
<path d="M274.495 147.374C274.355 147.374 274.218 147.299 274.138 147.162C274.014 146.951 274.074 146.672 274.271 146.541L277.106 144.643C277.303 144.511 277.563 144.575 277.687 144.786C277.81 144.997 277.75 145.275 277.553 145.407L274.718 147.305C274.649 147.352 274.572 147.374 274.495 147.374Z" fill="#FDC500"/>
<path d="M297.103 131.798C297.024 131.798 296.943 131.775 296.871 131.724C296.677 131.587 296.623 131.307 296.752 131.099L298.368 128.475C298.496 128.268 298.757 128.21 298.952 128.347C299.146 128.484 299.2 128.764 299.072 128.971L297.455 131.595C297.374 131.727 297.24 131.798 297.103 131.798Z" fill="#FDC500"/>
<path d="M298.553 177.125C298.442 177.125 298.331 177.078 298.249 176.986L295.933 174.406C295.772 174.226 295.777 173.941 295.945 173.768C296.112 173.595 296.379 173.602 296.541 173.781L298.857 176.361C299.018 176.541 299.012 176.826 298.845 176.999C298.763 177.083 298.658 177.125 298.553 177.125Z" fill="#FDC500"/>
<path d="M290.04 176.588C289.929 176.588 289.819 176.541 289.736 176.449L287.42 173.869C287.259 173.69 287.265 173.404 287.432 173.232C287.6 173.06 287.866 173.065 288.028 173.245L290.344 175.825C290.505 176.004 290.499 176.29 290.332 176.462C290.25 176.547 290.146 176.588 290.04 176.588Z" fill="#FDC500"/>
<path d="M283.921 194.031C283.882 193.92 283.883 193.793 283.935 193.678L285.381 190.452C285.482 190.228 285.734 190.133 285.943 190.24C286.153 190.348 286.241 190.617 286.141 190.842L284.695 194.067C284.594 194.292 284.343 194.386 284.132 194.279C284.031 194.227 283.957 194.135 283.921 194.031Z" fill="#FDC500"/>
<path d="M308.349 204.674C308.31 204.563 308.312 204.436 308.364 204.321L309.81 201.096C309.911 200.871 310.162 200.777 310.372 200.884C310.582 200.992 310.67 201.261 310.569 201.485L309.123 204.711C309.022 204.935 308.771 205.03 308.561 204.923C308.46 204.87 308.386 204.779 308.349 204.674Z" fill="#FDC500"/>
<path d="M297.859 210.017C297.577 210.037 297.295 210.055 297.015 210.068L296.721 208.059C296.685 207.813 296.842 207.583 297.072 207.544C297.302 207.506 297.517 207.674 297.553 207.92L297.859 210.017Z" fill="#FDC500"/>
<path d="M301.224 203.944C301.133 203.877 301.068 203.77 301.05 203.644L300.533 200.11C300.496 199.864 300.654 199.634 300.884 199.595C301.114 199.557 301.329 199.725 301.366 199.971L301.884 203.505C301.92 203.751 301.762 203.981 301.532 204.02C301.419 204.039 301.31 204.008 301.224 203.944Z" fill="#FDC500"/>
<path d="M280.886 174.394C280.815 174.394 280.742 174.374 280.675 174.333C280.474 174.209 280.405 173.933 280.522 173.718L282.198 170.621C282.315 170.406 282.572 170.333 282.774 170.457C282.975 170.582 283.044 170.858 282.927 171.073L281.251 174.169C281.174 174.313 281.032 174.394 280.886 174.394Z" fill="#FDC500"/>
<path d="M285.806 166.656C285.653 166.656 285.506 166.567 285.431 166.411L283.898 163.232C283.791 163.011 283.872 162.738 284.079 162.625C284.285 162.51 284.54 162.597 284.647 162.819L286.18 165.998C286.287 166.219 286.205 166.491 285.999 166.605C285.937 166.639 285.871 166.656 285.806 166.656Z" fill="#FDC500"/>
<path d="M272.482 166.19C272.438 166.245 272.382 166.288 272.323 166.315C272.181 166.378 272.014 166.355 271.888 166.243L270.164 164.695C270.173 164.311 270.181 163.926 270.191 163.541L272.432 165.552C272.609 165.713 272.632 165.998 272.482 166.19Z" fill="#FDC500"/>
<path d="M285.784 132.928C285.63 132.928 285.484 132.839 285.408 132.683L283.875 129.504C283.768 129.283 283.85 129.011 284.056 128.897C284.262 128.783 284.517 128.869 284.624 129.091L286.157 132.27C286.264 132.491 286.183 132.764 285.976 132.877C285.915 132.912 285.849 132.928 285.784 132.928Z" fill="#FDC500"/>
<path d="M295.61 144.575C295.584 144.575 295.557 144.572 295.53 144.567C295.302 144.519 295.152 144.283 295.196 144.038L295.83 140.526C295.875 140.281 296.096 140.123 296.324 140.169C296.552 140.216 296.702 140.453 296.658 140.697L296.024 144.209C295.985 144.425 295.809 144.575 295.61 144.575Z" fill="#FDC500"/>
<path d="M290.141 147.659C290.114 147.659 290.087 147.656 290.06 147.651C289.832 147.603 289.683 147.368 289.726 147.123L290.36 143.611C290.405 143.366 290.626 143.207 290.854 143.254C291.082 143.302 291.232 143.538 291.188 143.782L290.554 147.294C290.515 147.51 290.338 147.659 290.141 147.659Z" fill="#FDC500"/>
<path d="M294.061 136.07C293.921 136.07 293.785 135.996 293.705 135.86L291.912 132.841C291.788 132.63 291.846 132.352 292.042 132.219C292.24 132.085 292.499 132.148 292.624 132.357L294.416 135.377C294.541 135.587 294.483 135.866 294.286 135.999C294.216 136.048 294.138 136.07 294.061 136.07Z" fill="#FDC500"/>
<path d="M277.618 167.213C277.503 167.081 277.468 166.883 277.545 166.711L278.985 163.482C279.085 163.258 279.337 163.162 279.547 163.27C279.758 163.377 279.846 163.646 279.746 163.87L278.306 167.099C278.206 167.323 277.954 167.419 277.744 167.311C277.695 167.287 277.653 167.253 277.618 167.213Z" fill="#FDC500"/>
<path d="M288.462 157.847C288.294 157.847 288.134 157.738 288.069 157.559L286.85 154.229C286.766 153.997 286.873 153.735 287.089 153.645C287.306 153.553 287.55 153.668 287.635 153.9L288.854 157.231C288.939 157.463 288.832 157.724 288.615 157.815C288.564 157.836 288.513 157.847 288.462 157.847Z" fill="#FDC500"/>
<path d="M301.851 178.421C301.787 178.421 301.723 178.405 301.662 178.373C301.454 178.261 301.371 177.99 301.476 177.767L302.987 174.575C303.092 174.353 303.345 174.264 303.553 174.377C303.761 174.489 303.844 174.76 303.739 174.982L302.228 178.174C302.154 178.331 302.005 178.421 301.851 178.421Z" fill="#FDC500"/>
<path d="M279.658 201.361C279.657 201.43 279.642 201.499 279.61 201.564C279.503 201.785 279.248 201.871 279.042 201.757L276.072 200.111C275.866 199.997 275.785 199.725 275.892 199.503C275.999 199.282 276.254 199.196 276.46 199.31L279.43 200.956C279.577 201.037 279.659 201.196 279.658 201.361Z" fill="#FDC500"/>
<path d="M271.594 203.407C271.594 203.476 271.58 203.546 271.548 203.61C271.442 203.832 271.186 203.917 270.98 203.802L269.688 203.087C269.688 202.761 269.688 202.425 269.691 202.074L271.367 203.002C271.513 203.083 271.597 203.245 271.594 203.407Z" fill="#FDC500"/>
<path d="M284.073 207.387L283.057 209.707C282.873 209.687 282.689 209.665 282.503 209.642C282.392 209.628 282.282 209.615 282.171 209.601L283.31 207.004C283.409 206.778 283.659 206.681 283.87 206.788C284.082 206.892 284.174 207.161 284.073 207.387Z" fill="#FDC500"/>
<path d="M307.335 170.282C307.132 170.282 306.953 170.126 306.919 169.905L306.373 166.376C306.335 166.131 306.49 165.898 306.72 165.858C306.951 165.817 307.167 165.983 307.205 166.229L307.751 169.758C307.789 170.004 307.634 170.236 307.404 170.276C307.381 170.28 307.357 170.282 307.335 170.282Z" fill="#FDC500"/>
<path d="M307.681 144.24C307.608 144.24 307.534 144.22 307.467 144.177C307.266 144.05 307.2 143.774 307.319 143.56L309.023 140.482C309.141 140.268 309.399 140.197 309.6 140.324C309.801 140.451 309.867 140.727 309.748 140.941L308.044 144.019C307.966 144.161 307.825 144.24 307.681 144.24Z" fill="#FDC500"/>
<path d="M302.205 156.752C302.126 156.752 302.047 156.728 301.976 156.679L299.167 154.737C298.972 154.601 298.916 154.323 299.042 154.113C299.169 153.905 299.429 153.844 299.624 153.979L302.433 155.922C302.628 156.057 302.685 156.336 302.559 156.545C302.478 156.679 302.343 156.752 302.205 156.752Z" fill="#FDC500"/>
<path d="M272.468 177.736C272.404 177.736 272.339 177.72 272.278 177.687C272.07 177.576 271.987 177.303 272.093 177.082L273.603 173.891C273.709 173.669 273.962 173.58 274.17 173.692C274.378 173.804 274.46 174.076 274.356 174.298L272.845 177.49C272.77 177.645 272.622 177.736 272.468 177.736Z" fill="#FDC500"/>
<path d="M306.99 161.6C306.849 161.6 306.712 161.526 306.632 161.389C306.508 161.178 306.568 160.899 306.765 160.767L309.6 158.869C309.798 158.738 310.057 158.801 310.181 159.012C310.305 159.223 310.244 159.502 310.048 159.633L307.213 161.531C307.144 161.578 307.066 161.6 306.99 161.6Z" fill="#FDC500"/>
<path d="M300.193 166.115C300.09 166.216 299.941 166.262 299.796 166.219C299.572 166.154 299.439 165.905 299.5 165.666L300.378 162.214C300.439 161.974 300.671 161.831 300.895 161.897C301.12 161.962 301.252 162.21 301.191 162.45L300.314 165.901C300.292 165.987 300.249 166.06 300.193 166.115Z" fill="#FDC500"/>
<path d="M312.157 129.681L311.423 130.87C311.341 130.999 311.208 131.072 311.07 131.072C310.991 131.072 310.911 131.049 310.84 130.998C310.645 130.861 310.591 130.582 310.718 130.374L311.533 129.051C311.768 129.266 311.978 129.475 312.157 129.681Z" fill="#FDC500"/>
<path d="M315.363 137.529L314.583 138.794C314.501 138.926 314.368 138.998 314.23 138.998C314.151 138.998 314.071 138.973 313.998 138.924C313.804 138.785 313.752 138.506 313.879 138.298L314.985 136.503C315.108 136.834 315.233 137.178 315.363 137.529Z" fill="#FDC500"/>
<path d="M278.909 188.88C278.799 188.88 278.688 188.833 278.605 188.741L276.288 186.16C276.127 185.981 276.133 185.695 276.3 185.523C276.468 185.35 276.735 185.357 276.896 185.536L279.212 188.116C279.373 188.296 279.368 188.581 279.2 188.753C279.119 188.838 279.015 188.88 278.909 188.88Z" fill="#FDC500"/>
<path d="M294.322 197.901C294.212 197.901 294.101 197.854 294.018 197.762L291.702 195.182C291.541 195.003 291.547 194.717 291.714 194.545C291.882 194.372 292.149 194.378 292.31 194.557L294.626 197.138C294.787 197.317 294.782 197.603 294.614 197.775C294.533 197.86 294.427 197.901 294.322 197.901Z" fill="#FDC500"/>
<path d="M298.606 194.319C298.536 194.226 298.5 194.105 298.515 193.979L298.933 190.43C298.962 190.183 299.173 190.008 299.404 190.039C299.635 190.07 299.798 190.295 299.769 190.543L299.351 194.092C299.323 194.338 299.112 194.514 298.881 194.483C298.768 194.467 298.671 194.406 298.606 194.319Z" fill="#FDC500"/>
<path d="M289.827 204.322C289.717 204.322 289.606 204.275 289.523 204.183L287.207 201.603C287.046 201.424 287.052 201.138 287.219 200.966C287.386 200.793 287.654 200.799 287.815 200.978L290.131 203.559C290.292 203.738 290.287 204.024 290.119 204.196C290.037 204.28 289.932 204.322 289.827 204.322Z" fill="#FDC500"/>
<path d="M314.763 194.557C314.765 194.863 314.763 195.164 314.763 195.462L312.149 195.697C311.917 195.719 311.712 195.533 311.693 195.286C311.672 195.037 311.845 194.821 312.078 194.799L314.763 194.557Z" fill="#FDC500"/>
<path d="M284.141 183.454C284.03 183.454 283.919 183.407 283.837 183.315L281.521 180.734C281.36 180.555 281.365 180.269 281.533 180.097C281.701 179.925 281.967 179.931 282.128 180.11L284.444 182.69C284.606 182.87 284.6 183.155 284.433 183.327C284.351 183.412 284.246 183.454 284.141 183.454Z" fill="#FDC500"/>
<path d="M295.287 182.332C295.28 182.45 295.229 182.565 295.138 182.647L292.577 184.948C292.399 185.109 292.133 185.084 291.984 184.894C291.834 184.703 291.857 184.419 292.035 184.259L294.596 181.956C294.773 181.796 295.04 181.821 295.189 182.011C295.262 182.105 295.294 182.22 295.287 182.332Z" fill="#FDC500"/>
<path d="M307.484 194.996C307.412 194.996 307.339 194.976 307.273 194.935C307.071 194.81 307.003 194.534 307.119 194.319L308.795 191.223C308.912 191.007 309.169 190.934 309.371 191.059C309.573 191.183 309.642 191.459 309.525 191.675L307.849 194.771C307.771 194.916 307.63 194.996 307.484 194.996Z" fill="#FDC500"/>
<path d="M310.384 185.793C310.232 185.793 310.084 185.705 310.009 185.549L308.475 182.37C308.368 182.148 308.449 181.876 308.656 181.763C308.862 181.648 309.117 181.735 309.224 181.956L310.757 185.136C310.864 185.357 310.782 185.629 310.575 185.743C310.515 185.778 310.449 185.793 310.384 185.793Z" fill="#FDC500"/>
<path d="M305.809 149.698C305.656 149.698 305.509 149.609 305.433 149.454L303.9 146.275C303.793 146.053 303.874 145.781 304.081 145.668C304.288 145.553 304.542 145.64 304.649 145.861L306.182 149.04C306.29 149.261 306.208 149.533 306.001 149.647C305.94 149.682 305.874 149.698 305.809 149.698Z" fill="#FDC500"/>
<path d="M307.484 136.358C307.458 136.358 307.431 136.355 307.404 136.35C307.176 136.302 307.026 136.066 307.07 135.821L307.704 132.31C307.748 132.064 307.97 131.906 308.198 131.953C308.426 132 308.575 132.237 308.532 132.48L307.898 135.992C307.859 136.208 307.682 136.358 307.484 136.358Z" fill="#FDC500"/>
<path d="M315.184 148.477C315.157 148.477 315.131 148.474 315.104 148.469C314.876 148.421 314.727 148.186 314.77 147.941L315.404 144.429C315.449 144.184 315.67 144.025 315.898 144.072C316.126 144.119 316.276 144.356 316.232 144.599L315.598 148.112C315.559 148.327 315.382 148.477 315.184 148.477Z" fill="#FDC500"/>
<path d="M302.011 139.442C301.985 139.442 301.958 139.44 301.931 139.434C301.702 139.386 301.552 139.15 301.597 138.906L302.231 135.395C302.274 135.149 302.496 134.991 302.724 135.037C302.953 135.085 303.103 135.322 303.058 135.565L302.424 139.077C302.385 139.292 302.209 139.442 302.011 139.442Z" fill="#FDC500"/>
<path d="M304.522 127.206C304.44 127.226 304.361 127.22 304.288 127.193C304.156 127.144 304.049 127.026 304.016 126.871L303.308 123.646C303.635 123.834 303.968 124.023 304.298 124.214L304.835 126.663C304.89 126.907 304.749 127.149 304.522 127.206Z" fill="#FDC500"/>
<path d="M314.164 153.908C314.025 153.908 313.888 153.834 313.808 153.698L312.016 150.678C311.891 150.468 311.949 150.19 312.146 150.056C312.343 149.923 312.603 149.986 312.728 150.195L314.52 153.215C314.645 153.425 314.587 153.704 314.39 153.837C314.32 153.885 314.241 153.908 314.164 153.908Z" fill="#FDC500"/>
<path d="M302.196 186.353C302.081 186.221 302.046 186.023 302.124 185.85L303.564 182.622C303.664 182.397 303.915 182.302 304.126 182.409C304.337 182.516 304.425 182.785 304.324 183.01L302.884 186.238C302.784 186.463 302.532 186.558 302.322 186.451C302.273 186.426 302.231 186.392 302.196 186.353Z" fill="#FDC500"/>
<path d="M272.551 192.419L269.736 192.906C269.739 192.604 269.74 192.3 269.745 191.992L272.416 191.527C272.646 191.489 272.863 191.655 272.898 191.901C272.936 192.147 272.781 192.379 272.551 192.419Z" fill="#FDC500"/>
<path d="M271.693 184.171L269.818 184.495C269.822 184.191 269.825 183.888 269.829 183.581L271.557 183.281C271.787 183.241 272.002 183.409 272.039 183.654C272.077 183.901 271.923 184.131 271.693 184.171Z" fill="#FDC500"/>
<path d="M313.039 176.985C312.871 176.985 312.711 176.877 312.646 176.698L311.428 173.367C311.343 173.136 311.45 172.874 311.666 172.783C311.883 172.692 312.127 172.807 312.212 173.039L313.431 176.37C313.516 176.601 313.409 176.863 313.192 176.954C313.141 176.975 313.09 176.985 313.039 176.985Z" fill="#FDC500"/>
<path d="M314.589 166.476C313.798 163.206 312.803 159.571 311.818 156.439C311.815 156.433 311.813 156.428 311.811 156.421C311.507 155.453 311.203 154.534 310.905 153.692C310.901 153.676 310.897 153.661 310.889 153.647C310.798 153.381 310.704 153.124 310.613 152.874C310.599 152.829 310.59 152.786 310.59 152.744V152.742C310.59 152.592 310.684 152.451 310.834 152.395C311.028 152.326 311.243 152.424 311.312 152.619C312.322 155.373 313.517 159.338 314.54 163.227C314.558 164.305 314.573 165.389 314.589 166.476Z" fill="#FDC500"/>
<path d="M281.247 99.3428C281.247 99.3428 276.775 97.7821 277.221 94.3036C277.601 91.3433 280.885 93.2626 280.597 90.9489C280.308 88.6352 279.666 86.5326 282.493 85.9542C284.965 85.4487 285.007 87.2427 288.254 84.6394C292.09 81.5648 295.037 88.6844 298.461 88.8986C303.51 89.2136 304.148 92.2375 304.645 94.6559C305.142 97.0743 302.7 99.9141 302.7 99.9141L281.247 99.3428Z" fill="#133643"/>
<path d="M281.996 104.424C281.996 104.424 280.119 101.922 278.723 103.991C277.328 106.061 279.301 112.172 282.718 110.68L281.996 104.424Z" fill="#FF8B6B"/>
<path d="M281.971 108.792C281.845 108.792 281.729 108.708 281.693 108.581C281.164 106.694 279.209 105.929 279.189 105.921C279.041 105.864 278.965 105.697 279.022 105.549C279.078 105.4 279.245 105.325 279.394 105.381C279.485 105.416 281.639 106.251 282.249 108.424C282.292 108.577 282.203 108.737 282.049 108.781C282.023 108.788 281.997 108.792 281.971 108.792Z" fill="#D85C48"/>
<path d="M279.998 107.841C279.945 107.841 279.891 107.827 279.842 107.795C279.708 107.709 279.67 107.53 279.756 107.396C279.77 107.374 280.116 106.846 280.84 106.522C280.984 106.457 281.156 106.522 281.221 106.668C281.286 106.813 281.221 106.984 281.075 107.049C280.516 107.3 280.244 107.705 280.241 107.709C280.186 107.794 280.093 107.841 279.998 107.841Z" fill="#D85C48"/>
<path d="M301.337 104.424C301.337 104.424 303.213 101.922 304.609 103.991C306.005 106.061 304.031 112.172 300.615 110.68L301.337 104.424Z" fill="#FF8B6B"/>
<path d="M301.361 108.792C301.487 108.792 301.603 108.708 301.638 108.581C302.168 106.694 304.123 105.929 304.142 105.921C304.292 105.864 304.366 105.697 304.31 105.549C304.254 105.4 304.087 105.325 303.939 105.381C303.847 105.416 301.693 106.251 301.083 108.424C301.04 108.577 301.13 108.737 301.283 108.781C301.308 108.788 301.334 108.792 301.361 108.792Z" fill="#D85C48"/>
<path d="M303.336 107.841C303.39 107.841 303.444 107.827 303.492 107.795C303.626 107.709 303.665 107.53 303.579 107.396C303.564 107.374 303.218 106.846 302.495 106.522C302.35 106.457 302.178 106.522 302.113 106.668C302.048 106.813 302.113 106.984 302.258 107.049C302.818 107.3 303.09 107.705 303.092 107.709C303.148 107.794 303.241 107.841 303.336 107.841Z" fill="#D85C48"/>
<path d="M296.288 115.863V121.941C296.288 121.941 294.475 125.036 292.024 125.247C289.576 125.461 287.399 122.582 287.399 122.582V116.291L296.288 115.863Z" fill="#FFAA95"/>
<path d="M296.288 115.863V118.56C294.643 120.385 291.722 120.841 287.399 120.203V116.29L296.288 115.863Z" fill="#FF8B6B"/>
<path d="M302.693 100.256C302.582 102.618 302.357 105.572 301.906 107.932V107.938C301.906 107.945 301.904 107.952 301.901 107.961C301.901 107.963 301.899 107.963 301.899 107.966C301.788 108.542 301.663 109.085 301.527 109.572C301.445 109.857 301.357 110.157 301.257 110.464C299.816 114.983 296.479 121.524 288.09 118.531C284.558 117.272 282.718 113.624 281.781 109.667C281.726 109.431 281.675 109.197 281.629 108.973C281.597 108.823 281.567 108.678 281.541 108.535L281.499 108.324C281.492 108.287 281.488 108.263 281.486 108.247C281.483 108.238 281.483 108.233 281.483 108.233C280.93 105.19 280.846 102.114 280.887 99.9155C280.93 97.674 282.155 95.623 284.107 94.5177C289.391 91.5209 294.97 92.6388 298.643 94.0504C301.193 95.0287 302.825 97.5312 302.693 100.256Z" fill="#FFAA95"/>
<path d="M301.906 107.931L300.618 107.841C300.618 107.841 299.883 109.363 298.798 111.042C297.714 108.658 292.482 110.391 292.482 110.391C292.151 110.497 291.81 110.552 291.468 110.552C291.134 110.552 290.803 110.5 290.481 110.4L290.456 110.392C290.456 110.392 285.161 108.731 284.117 111.231C283.478 110.254 282.956 109.153 282.719 107.984L281.485 108.234C281.485 108.234 281.485 108.239 281.488 108.248C281.49 108.264 281.494 108.288 281.501 108.325L281.542 108.536C281.569 108.679 281.6 108.824 281.631 108.974C281.676 109.198 281.728 109.432 281.783 109.668C282.72 113.625 284.56 117.273 288.092 118.533C296.481 121.525 299.818 114.984 301.259 110.465C301.552 109.247 301.847 108.164 301.901 107.967C301.901 107.965 301.903 107.965 301.903 107.962C301.905 107.953 301.908 107.946 301.908 107.939C301.91 107.934 301.91 107.933 301.91 107.933H301.906V107.931ZM296.37 114.132V114.134C296.368 114.134 296.368 114.134 296.368 114.134C295.962 114.522 295.547 114.849 295.136 115.069C292.813 116.326 292.561 116.138 291.642 116.176C290.71 116.221 289.423 115.944 288.116 115.216C287.708 114.987 287.1 114.545 286.435 113.938C286.435 113.938 285.493 110.715 291.48 111.522C297.484 110.491 296.47 113.502 296.37 114.132Z" fill="#133643"/>
<path d="M296.469 104.652C296.469 105.301 296.134 105.827 295.722 105.827C295.31 105.827 294.976 105.301 294.976 104.652C294.976 104.003 295.31 103.478 295.722 103.478C296.135 103.477 296.469 104.003 296.469 104.652Z" fill="#133643"/>
<path d="M287.399 104.652C287.399 105.301 287.065 105.827 286.652 105.827C286.239 105.827 285.905 105.301 285.905 104.652C285.905 104.003 286.239 103.478 286.652 103.478C287.065 103.477 287.399 104.003 287.399 104.652Z" fill="#133643"/>
<path d="M298.819 100.691C298.819 100.691 295.733 99.4714 293.356 100.498L293.594 101.819C293.594 101.819 297.081 101.524 298.838 102.237C298.996 101.728 299.019 101.214 298.819 100.691Z" fill="#133643"/>
<path d="M284.145 100.695C284.145 100.695 287.253 99.467 289.647 100.501L289.408 101.832C289.408 101.832 285.894 101.536 284.124 102.253C283.965 101.74 283.942 101.222 284.145 100.695Z" fill="#133643"/>
<path d="M291.715 109.902C292.202 109.902 292.686 109.712 292.76 109.682C292.908 109.622 292.978 109.453 292.918 109.306C292.858 109.158 292.69 109.088 292.542 109.147C292.281 109.253 291.655 109.419 291.384 109.257C291.331 109.225 291.26 109.163 291.242 108.988C291.137 107.979 291.413 104.6 291.416 104.566C291.43 104.407 291.311 104.267 291.152 104.254C290.992 104.24 290.854 104.36 290.841 104.518C290.829 104.659 290.558 107.986 290.667 109.047C290.708 109.446 290.918 109.651 291.087 109.752C291.272 109.862 291.494 109.902 291.715 109.902Z" fill="#FF8B6B"/>
<path d="M288.086 112.1C288.305 113.202 289.033 115.231 291.488 115.231C293.949 115.231 294.638 113.377 294.875 112.1H288.086Z" fill="white"/>
<path d="M302.694 100.255C302.581 102.617 302.356 105.57 301.905 107.932L300.615 107.841C300.615 107.841 300.928 105.847 301.072 104.547C301.216 103.248 301.462 100.82 300.353 100.517C299.247 100.217 299.896 97.4459 298.358 96.2446C296.818 95.0409 293.376 94.7101 291.107 96.1081C288.838 97.503 286.281 96.0026 285.235 96.2446C284.187 96.4842 282.766 97.9283 283.15 99.2764C283.538 100.622 282.382 101.442 282.102 102.837C281.822 104.231 282.717 107.984 282.717 107.984L281.484 108.233C280.93 105.19 280.846 102.115 280.887 99.9175C280.93 97.6744 282.154 95.6241 284.106 94.5181C289.392 91.5212 294.97 92.6384 298.643 94.0499C301.192 95.029 302.823 97.5324 302.694 100.255Z" fill="#133643"/>
<path d="M184.442 231.597H129.897V273.026H184.442V231.597Z" fill="#FFDFA4"/>
<path d="M186.247 229.526H128.09V236.416H186.247V229.526Z" fill="#FF8652"/>
<path d="M184.442 236.416H129.897V240.208H184.442V236.416Z" fill="#ED3915"/>
<path d="M159.559 229.526H154.779V273.063H159.559V229.526Z" fill="white"/>
<path d="M159.559 239.957H154.779V273.063H159.559V239.957Z" fill="#F1F1F1"/>
<path d="M159.559 236.416H154.779V240.207H159.559V236.416Z" fill="#D8D8D8"/>
<path d="M225.488 202.369L175.83 179.799L158.686 217.517L208.344 240.087L225.488 202.369Z" fill="#C3810C"/>
<path d="M227.989 201.232L175.043 177.167L172.192 183.439L225.138 207.505L227.989 201.232Z" fill="#FFA70B"/>
<path d="M223.493 206.757L173.836 184.187L172.267 187.639L221.924 210.209L223.493 206.757Z" fill="#FDC500"/>
<path d="M203.69 190.189L199.337 188.211L181.322 227.846L185.674 229.825L203.69 190.189Z" fill="white"/>
<path d="M195.04 197.699L181.341 227.839L185.692 229.817L199.391 199.677L195.04 197.699Z" fill="#F1F1F1"/>
<path d="M196.505 194.477L194.937 197.929L199.288 199.907L200.857 196.455L196.505 194.477Z" fill="#D8D8D8"/>
<path d="M148.949 310.5C152.964 310.5 156.219 307.245 156.219 303.229C156.219 299.214 152.964 295.959 148.949 295.959C144.933 295.959 141.678 299.214 141.678 303.229C141.678 307.245 144.933 310.5 148.949 310.5Z" fill="#133643"/>
<path d="M148.951 307.776C146.444 307.776 144.405 305.737 144.405 303.23C144.405 300.723 146.445 298.684 148.951 298.684C151.458 298.684 153.498 300.723 153.498 303.23C153.498 305.737 151.458 307.776 148.951 307.776Z" fill="#335464"/>
<path d="M188.638 310.5C192.653 310.5 195.908 307.245 195.908 303.229C195.908 299.214 192.653 295.959 188.638 295.959C184.622 295.959 181.367 299.214 181.367 303.229C181.367 307.245 184.622 310.5 188.638 310.5Z" fill="#133643"/>
<path d="M188.638 307.776C186.131 307.776 184.092 305.737 184.092 303.23C184.092 300.723 186.132 298.684 188.638 298.684C191.145 298.684 193.185 300.723 193.185 303.23C193.185 305.737 191.146 307.776 188.638 307.776Z" fill="#335464"/>
<path d="M244.952 202.214C244.69 201.845 244.442 201.465 244.214 201.069H229.262C228.421 201.069 227.683 201.632 227.461 202.444L225.758 208.681H118.555C118.021 208.681 117.512 208.913 117.16 209.316C116.811 209.718 116.651 210.253 116.725 210.785L118.441 223.109C118.401 223.256 118.381 223.412 118.381 223.572C118.381 223.915 118.473 224.233 118.634 224.508L120.806 240.097L121.32 243.794L123.365 258.474L123.879 262.171L125.689 275.162C125.814 276.076 126.596 276.757 127.519 276.757H206.837L204.251 286.04C203.041 290.385 199.047 293.419 194.54 293.419H137.992C136.971 293.419 136.145 294.245 136.145 295.266C136.145 296.288 136.971 297.114 137.992 297.114H194.54C200.699 297.114 206.158 292.969 207.812 287.033L210.985 275.641C210.985 275.641 210.985 275.641 210.985 275.638L210.987 275.636C211.02 275.561 211.048 275.484 211.068 275.403L214.754 262.169L215.782 258.473L219.873 243.792L220.901 240.096L225.128 224.921L225.646 223.063V223.06L228.998 211.021C229.013 210.966 229.027 210.909 229.035 210.854L230.687 204.803H242.87C243.615 203.981 244.324 203.129 244.952 202.214ZM210.487 263.722V263.729C210.454 263.808 210.424 263.886 210.399 263.971L207.866 273.063H129.13L127.615 262.173H210.92L210.487 263.722ZM211.95 258.476H127.098L125.053 243.796H216.036L211.95 258.476ZM217.068 240.099H124.536L122.495 225.42H221.154L217.068 240.099ZM222.184 221.725H121.98L120.677 212.378H224.787L222.184 221.725Z" fill="#133643"/>
<path d="M244.214 201.069C244.443 201.466 244.69 201.847 244.952 202.216C244.323 203.131 243.615 203.981 242.869 204.805H237.432V201.07H244.214V201.069Z" fill="#C3810C"/>
<path d="M257.217 202.937C257.217 203.967 256.38 204.804 255.35 204.804H252.595C252.707 204.277 252.646 203.728 252.428 203.249C251.242 202.075 248.588 201.569 248.588 201.07H255.35C256.38 201.07 257.217 201.907 257.217 202.937Z" fill="#133643"/>
<path d="M257.216 202.937C257.216 203.967 256.379 204.804 255.349 204.804H252.593C252.707 204.276 252.645 203.727 252.427 203.249C251.241 202.075 248.586 201.569 248.586 201.069H255.348C256.379 201.069 257.216 201.906 257.216 202.937Z" fill="#C3810C"/>
<path d="M82.0762 202.029H63.7659C61.5601 202.029 59.7725 200.241 59.7725 198.035V179.725C59.7725 177.519 61.5601 175.731 63.7659 175.731H82.0762C84.282 175.731 86.0696 177.519 86.0696 179.725V198.035C86.0696 200.24 84.282 202.029 82.0762 202.029Z" fill="white"/>
<path d="M80.6026 187.027C80.6026 188.202 80.1575 189.377 79.2648 190.269L73.1743 196.359L67.0838 190.269C66.1912 189.376 65.7461 188.201 65.7461 187.027C65.7461 185.852 66.1912 184.677 67.0823 183.786C68.7461 182.122 71.2804 182.423 73.1743 185.234C75.0683 182.423 77.6026 182.122 79.2664 183.786C80.1575 184.677 80.6026 185.852 80.6026 187.027Z" fill="#FFDFA4"/>
<path d="M135.214 83.8562H57.4649C55.8748 83.8562 54.5854 82.5668 54.5854 80.9767V69.4741C54.5854 67.8841 55.8748 66.5947 57.4649 66.5947H135.214C136.804 66.5947 138.093 67.8841 138.093 69.4741V80.9767C138.092 82.5668 136.804 83.8562 135.214 83.8562Z" fill="#C3810C"/>
<path d="M133.041 79.7748H124.966C124.491 79.7748 124.106 79.3899 124.106 78.9155V70.8398C124.106 70.3653 124.491 69.9805 124.966 69.9805H133.041C133.516 69.9805 133.901 70.3653 133.901 70.8398V78.9155C133.902 79.3899 133.517 79.7748 133.041 79.7748Z" fill="#FFE5B7"/>
<path d="M115.977 71.833H60.7773C60.329 71.833 59.9648 71.4696 59.9648 71.0205V70.792C59.9648 70.3429 60.3282 69.9795 60.7773 69.9795H115.977C116.426 69.9795 116.789 70.3429 116.789 70.792V71.0205C116.789 71.4688 116.426 71.833 115.977 71.833Z" fill="#FFE5B7"/>
<path d="M115.977 75.8037H60.7773C60.329 75.8037 59.9648 75.4403 59.9648 74.9912V74.7627C59.9648 74.3144 60.3282 73.9502 60.7773 73.9502H115.977C116.426 73.9502 116.789 74.3136 116.789 74.7627V74.9912C116.789 75.4403 116.426 75.8037 115.977 75.8037Z" fill="#FFE5B7"/>
<path d="M115.977 79.7744H60.7773C60.329 79.7744 59.9648 79.411 59.9648 78.9619V78.7334C59.9648 78.2851 60.3282 77.9209 60.7773 77.9209H115.977C116.426 77.9209 116.789 78.2843 116.789 78.7334V78.9619C116.789 79.411 116.426 79.7744 115.977 79.7744Z" fill="#FFE5B7"/>
<path d="M135.629 109.191H57.8799C56.2898 109.191 55.0005 107.902 55.0005 106.312V94.8081C55.0005 93.2181 56.2898 91.9287 57.8799 91.9287H135.629C137.219 91.9287 138.508 93.2181 138.508 94.8081V106.312C138.508 107.902 137.219 109.191 135.629 109.191Z" fill="#FFDFA4"/>
<path d="M133.04 105.451H124.964C124.49 105.451 124.105 105.066 124.105 104.591V96.5155C124.105 96.0411 124.49 95.6562 124.964 95.6562H133.04C133.514 95.6562 133.899 96.0411 133.899 96.5155V104.591C133.9 105.066 133.515 105.451 133.04 105.451Z" fill="#FF8652"/>
<path d="M115.976 97.5156H60.7768C60.3285 97.5156 59.9644 97.1522 59.9644 96.7031V96.4746C59.9644 96.0255 60.3278 95.6621 60.7768 95.6621H115.976C116.425 95.6621 116.789 96.0255 116.789 96.4746V96.7031C116.789 97.1522 116.425 97.5156 115.976 97.5156Z" fill="#FF8652"/>
<path d="M115.976 101.486H60.7768C60.3285 101.486 59.9644 101.123 59.9644 100.674V100.445C59.9644 99.997 60.3278 99.6328 60.7768 99.6328H115.976C116.425 99.6328 116.789 99.9962 116.789 100.445V100.674C116.789 101.122 116.425 101.486 115.976 101.486Z" fill="#FF8652"/>
<path d="M115.976 105.457H60.7768C60.3285 105.457 59.9644 105.094 59.9644 104.645V104.416C59.9644 103.968 60.3278 103.604 60.7768 103.604H115.976C116.425 103.604 116.789 103.967 116.789 104.416V104.645C116.789 105.094 116.425 105.457 115.976 105.457Z" fill="#FF8652"/>
<path d="M266.525 29.194C264.045 29.194 262.026 27.1754 262.026 24.6951C262.026 22.214 264.045 20.1963 266.525 20.1963C269.006 20.1963 271.024 22.2148 271.024 24.6951C271.024 27.1754 269.006 29.194 266.525 29.194ZM266.525 21.6078C264.822 21.6078 263.438 22.9932 263.438 24.6951C263.438 26.3979 264.823 27.7824 266.525 27.7824C268.228 27.7824 269.613 26.3971 269.613 24.6951C269.613 22.9924 268.228 21.6078 266.525 21.6078Z" fill="#C3810C"/>
<path d="M259.102 8.99768C256.622 8.99768 254.603 6.97915 254.603 4.49884C254.603 2.01853 256.622 0 259.102 0C261.582 0 263.601 2.01853 263.601 4.49884C263.601 6.97915 261.582 8.99768 259.102 8.99768ZM259.102 1.41075C257.399 1.41075 256.015 2.79611 256.015 4.49805C256.015 6.20078 257.4 7.58535 259.102 7.58535C260.805 7.58535 262.189 6.19999 262.189 4.49805C262.189 2.79611 260.805 1.41075 259.102 1.41075Z" fill="#C3810C"/>
<path d="M276.748 41.4941C276.358 41.4941 276.042 41.1783 276.042 40.788V37.6761C276.042 37.2865 276.358 36.9707 276.748 36.9707C277.137 36.9707 277.453 37.2865 277.453 37.6761V40.788C277.454 41.1783 277.137 41.4941 276.748 41.4941Z" fill="#FFDFA4"/>
<path d="M276.748 46.9404C276.358 46.9404 276.042 46.6246 276.042 46.2343V43.1224C276.042 42.7328 276.358 42.417 276.748 42.417C277.137 42.417 277.453 42.7328 277.453 43.1224V46.2343C277.454 46.6246 277.137 46.9404 276.748 46.9404Z" fill="#FFDFA4"/>
<path d="M281.115 42.6607H278.32C277.93 42.6607 277.614 42.345 277.614 41.9554C277.614 41.5658 277.93 41.25 278.32 41.25H281.115C281.505 41.25 281.82 41.5658 281.82 41.9554C281.82 42.3442 281.505 42.6607 281.115 42.6607Z" fill="#FFDFA4"/>
<path d="M275.176 42.6607H272.381C271.991 42.6607 271.675 42.345 271.675 41.9554C271.675 41.5658 271.991 41.25 272.381 41.25H275.176C275.566 41.25 275.882 41.5658 275.882 41.9554C275.882 42.3442 275.566 42.6607 275.176 42.6607Z" fill="#FFDFA4"/>
<path d="M244.35 19.1904C243.961 19.1904 243.645 18.8746 243.645 18.4843V15.3724C243.645 14.9828 243.961 14.667 244.35 14.667C244.74 14.667 245.056 14.9828 245.056 15.3724V18.4843C245.057 18.8746 244.74 19.1904 244.35 19.1904Z" fill="#FFDFA4"/>
<path d="M244.35 24.6377C243.961 24.6377 243.645 24.3219 243.645 23.9315V20.8196C243.645 20.43 243.961 20.1143 244.35 20.1143C244.74 20.1143 245.056 20.43 245.056 20.8196V23.9315C245.057 24.3211 244.74 24.6377 244.35 24.6377Z" fill="#FFDFA4"/>
<path d="M248.72 20.357H245.925C245.535 20.357 245.22 20.0412 245.22 19.6517C245.22 19.2621 245.535 18.9463 245.925 18.9463H248.72C249.11 18.9463 249.427 19.2621 249.427 19.6517C249.426 20.0412 249.11 20.357 248.72 20.357Z" fill="#FFDFA4"/>
<path d="M242.778 20.357H239.983C239.593 20.357 239.277 20.0412 239.277 19.6517C239.277 19.2621 239.593 18.9463 239.983 18.9463H242.778C243.168 18.9463 243.483 19.2621 243.483 19.6517C243.484 20.0412 243.168 20.357 242.778 20.357Z" fill="#FFDFA4"/>
<path d="M25.6922 169.543C23.2119 169.543 21.1934 167.524 21.1934 165.044C21.1934 162.563 23.2119 160.545 25.6922 160.545C28.1725 160.545 30.191 162.563 30.191 165.044C30.191 167.525 28.1725 169.543 25.6922 169.543ZM25.6922 161.956C23.9895 161.956 22.6049 163.342 22.6049 165.044C22.6049 166.746 23.9903 168.131 25.6922 168.131C27.3949 168.131 28.7795 166.746 28.7795 165.044C28.7795 163.341 27.3949 161.956 25.6922 161.956Z" fill="#C3810C"/>
<path d="M36.5242 188.672C34.0439 188.672 32.0254 186.654 32.0254 184.174C32.0254 181.693 34.0439 179.675 36.5242 179.675C39.0053 179.675 41.0231 181.693 41.0231 184.174C41.0231 186.654 39.0053 188.672 36.5242 188.672ZM36.5242 181.086C34.8215 181.086 33.4369 182.471 33.4369 184.173C33.4369 185.876 34.8223 187.26 36.5242 187.26C38.227 187.26 39.6115 185.875 39.6115 184.173C39.6115 182.471 38.227 181.086 36.5242 181.086Z" fill="#FFDFA4"/>
<path d="M45.1715 202.881C44.7819 202.881 44.4653 202.565 44.4653 202.176V199.064C44.4653 198.674 44.7811 198.358 45.1715 198.358C45.5619 198.358 45.8769 198.674 45.8769 199.064V202.176C45.8769 202.565 45.5611 202.881 45.1715 202.881Z" fill="#C3810C"/>
<path d="M45.1715 208.327C44.7819 208.327 44.4653 208.012 44.4653 207.622V204.51C44.4653 204.12 44.7811 203.805 45.1715 203.805C45.5619 203.805 45.8769 204.12 45.8769 204.51V207.622C45.8769 208.012 45.5611 208.327 45.1715 208.327Z" fill="#C3810C"/>
<path d="M49.5397 204.048H46.7444C46.3549 204.048 46.0391 203.732 46.0391 203.343C46.0391 202.953 46.3549 202.637 46.7444 202.637H49.5397C49.9293 202.637 50.2451 202.953 50.2451 203.343C50.2451 203.732 49.9293 204.048 49.5397 204.048Z" fill="#C3810C"/>
<path d="M43.5982 204.048H40.8021C40.4125 204.048 40.0967 203.732 40.0967 203.343C40.0967 202.953 40.4125 202.637 40.8021 202.637H43.5982C43.9877 202.637 44.3035 202.953 44.3035 203.343C44.3035 203.732 43.9877 204.048 43.5982 204.048Z" fill="#C3810C"/>
<path d="M12.7742 180.578C12.3846 180.578 12.0688 180.263 12.0688 179.873V176.761C12.0688 176.371 12.3846 176.056 12.7742 176.056C13.1638 176.056 13.4796 176.371 13.4796 176.761V179.873C13.4796 180.263 13.1638 180.578 12.7742 180.578Z" fill="#FFDFA4"/>
<path d="M12.7742 186.025C12.3846 186.025 12.0688 185.709 12.0688 185.319V182.207C12.0688 181.818 12.3846 181.502 12.7742 181.502C13.1638 181.502 13.4796 181.818 13.4796 182.207V185.319C13.4796 185.709 13.1638 186.025 12.7742 186.025Z" fill="#FFDFA4"/>
<path d="M17.1441 181.745H14.348C13.9584 181.745 13.6426 181.429 13.6426 181.039C13.6426 180.65 13.9584 180.334 14.348 180.334H17.1441C17.5336 180.334 17.8494 180.65 17.8494 181.039C17.8494 181.429 17.5336 181.745 17.1441 181.745Z" fill="#FFDFA4"/>
<path d="M11.2027 181.745H8.40655C8.01696 181.745 7.70117 181.429 7.70117 181.039C7.70117 180.65 8.01696 180.334 8.40655 180.334H11.2019C11.5914 180.334 11.9072 180.65 11.9072 181.039C11.908 181.429 11.5922 181.745 11.2027 181.745Z" fill="#FFDFA4"/>
</svg>
